%FSLAX23Y23*%
%MOIN*%
G70*
G01*
G75*
G04 Layer_Color=2752767*
%ADD10C,0.006*%
%ADD11C,0.060*%
%ADD12C,0.020*%
%ADD13C,0.024*%
%ADD14R,0.047X0.012*%
%ADD15C,0.039*%
%ADD16R,0.039X0.022*%
%ADD17R,0.030X0.035*%
%ADD18R,0.035X0.024*%
%ADD19R,0.035X0.031*%
%ADD20C,0.020*%
%ADD21R,0.047X0.051*%
%ADD22C,0.068*%
%ADD23R,0.055X0.020*%
%ADD24C,0.047*%
%ADD25R,0.047X0.030*%
%ADD26R,0.038X0.043*%
%ADD27R,0.043X0.032*%
%ADD28R,0.043X0.039*%
%ADD29C,0.010*%
%ADD30C,0.008*%
%ADD31C,0.005*%
%ADD32C,0.007*%
D31*
X1033Y2895D02*
Y2935D01*
X1073D01*
Y2895D01*
X1033D01*
Y2795D02*
Y2835D01*
X1073D01*
Y2795D01*
X1033D01*
Y2695D02*
Y2735D01*
X1073D01*
Y2695D01*
X1033D01*
Y2595D02*
Y2635D01*
X1073D01*
Y2595D01*
X1033D01*
Y2495D02*
Y2535D01*
X1073D01*
Y2495D01*
X1033D01*
Y2395D02*
Y2435D01*
X1073D01*
Y2395D01*
X1033D01*
Y2295D02*
Y2335D01*
X1073D01*
Y2295D01*
X1033D01*
Y2195D02*
Y2235D01*
X1073D01*
Y2195D01*
X1033D01*
Y2095D02*
Y2135D01*
X1073D01*
Y2095D01*
X1033D01*
Y1995D02*
Y2035D01*
X1073D01*
Y1995D01*
X1033D01*
Y1895D02*
Y1935D01*
X1073D01*
Y1895D01*
X1033D01*
Y1795D02*
Y1835D01*
X1073D01*
Y1795D01*
X1033D01*
Y1695D02*
Y1735D01*
X1073D01*
Y1695D01*
X1033D01*
Y1595D02*
Y1635D01*
X1073D01*
Y1595D01*
X1033D01*
X1633Y2895D02*
Y2935D01*
X1673D01*
Y2895D01*
X1633D01*
Y1595D02*
Y1635D01*
X1673D01*
Y1595D01*
X1633D01*
Y1695D02*
Y1735D01*
X1673D01*
Y1695D01*
X1633D01*
Y1795D02*
Y1835D01*
X1673D01*
Y1795D01*
X1633D01*
Y1895D02*
Y1935D01*
X1673D01*
Y1895D01*
X1633D01*
Y1995D02*
Y2035D01*
X1673D01*
Y1995D01*
X1633D01*
Y2095D02*
Y2135D01*
X1673D01*
Y2095D01*
X1633D01*
Y2195D02*
Y2235D01*
X1673D01*
Y2195D01*
X1633D01*
Y2295D02*
Y2335D01*
X1673D01*
Y2295D01*
X1633D01*
Y2395D02*
Y2435D01*
X1673D01*
Y2395D01*
X1633D01*
Y2495D02*
Y2535D01*
X1673D01*
Y2495D01*
X1633D01*
Y2595D02*
Y2635D01*
X1673D01*
Y2595D01*
X1633D01*
Y2695D02*
Y2735D01*
X1673D01*
Y2695D01*
X1633D01*
Y2795D02*
Y2835D01*
X1673D01*
Y2795D01*
X1633D01*
X1133D02*
Y2835D01*
X1173D01*
Y2795D01*
X1133D01*
D32*
X1201Y1181D02*
G03*
X1201Y1181I-20J0D01*
G01*
X1300Y1378D02*
G03*
X1300Y1378I-20J0D01*
G01*
X1201Y1575D02*
G03*
X1201Y1575I-20J0D01*
G01*
Y2362D02*
G03*
X1201Y2362I-20J0D01*
G01*
Y2756D02*
G03*
X1201Y2756I-20J0D01*
G01*
X1398Y1181D02*
G03*
X1398Y1181I-20J0D01*
G01*
X1496Y1378D02*
G03*
X1496Y1378I-20J0D01*
G01*
X1398Y1575D02*
G03*
X1398Y1575I-20J0D01*
G01*
X1496Y1772D02*
G03*
X1496Y1772I-20J0D01*
G01*
X1398Y1969D02*
G03*
X1398Y1969I-20J0D01*
G01*
X1496Y2165D02*
G03*
X1496Y2165I-20J0D01*
G01*
X1398Y2756D02*
G03*
X1398Y2756I-20J0D01*
G01*
X1595Y1181D02*
G03*
X1595Y1181I-20J0D01*
G01*
X1693Y1378D02*
G03*
X1693Y1378I-20J0D01*
G01*
X1595Y1969D02*
G03*
X1595Y1969I-20J0D01*
G01*
X1693Y2165D02*
G03*
X1693Y2165I-20J0D01*
G01*
X1595Y2756D02*
G03*
X1595Y2756I-20J0D01*
G01*
X1792Y1181D02*
G03*
X1792Y1181I-20J0D01*
G01*
X1890Y1378D02*
G03*
X1890Y1378I-20J0D01*
G01*
X1792Y1575D02*
G03*
X1792Y1575I-20J0D01*
G01*
X1890Y1772D02*
G03*
X1890Y1772I-20J0D01*
G01*
Y2165D02*
G03*
X1890Y2165I-20J0D01*
G01*
X1792Y2756D02*
G03*
X1792Y2756I-20J0D01*
G01*
X1989Y1181D02*
G03*
X1989Y1181I-20J0D01*
G01*
X2087Y1378D02*
G03*
X2087Y1378I-20J0D01*
G01*
Y1772D02*
G03*
X2087Y1772I-20J0D01*
G01*
Y2165D02*
G03*
X2087Y2165I-20J0D01*
G01*
X1989Y2756D02*
G03*
X1989Y2756I-20J0D01*
G01*
X2185Y1181D02*
G03*
X2185Y1181I-20J0D01*
G01*
X2284Y1378D02*
G03*
X2284Y1378I-20J0D01*
G01*
X2185Y2362D02*
G03*
X2185Y2362I-20J0D01*
G01*
Y2756D02*
G03*
X2185Y2756I-20J0D01*
G01*
X2382Y1181D02*
G03*
X2382Y1181I-20J0D01*
G01*
X2481Y1378D02*
G03*
X2481Y1378I-20J0D01*
G01*
X2382Y1575D02*
G03*
X2382Y1575I-20J0D01*
G01*
X2481Y1772D02*
G03*
X2481Y1772I-20J0D01*
G01*
X2382Y1969D02*
G03*
X2382Y1969I-20J0D01*
G01*
X2481Y2165D02*
G03*
X2481Y2165I-20J0D01*
G01*
X2382Y2362D02*
G03*
X2382Y2362I-20J0D01*
G01*
Y2756D02*
G03*
X2382Y2756I-20J0D01*
G01*
X2579Y1181D02*
G03*
X2579Y1181I-20J0D01*
G01*
Y2756D02*
G03*
X2579Y2756I-20J0D01*
G01*
X2776Y1181D02*
G03*
X2776Y1181I-20J0D01*
G01*
X2874Y1378D02*
G03*
X2874Y1378I-20J0D01*
G01*
X2776Y1575D02*
G03*
X2776Y1575I-20J0D01*
G01*
X2874Y1772D02*
G03*
X2874Y1772I-20J0D01*
G01*
X2776Y1969D02*
G03*
X2776Y1969I-20J0D01*
G01*
X2874Y2165D02*
G03*
X2874Y2165I-20J0D01*
G01*
X2776Y2362D02*
G03*
X2776Y2362I-20J0D01*
G01*
X2874Y2559D02*
G03*
X2874Y2559I-20J0D01*
G01*
X2776Y2756D02*
G03*
X2776Y2756I-20J0D01*
G01*
X1315Y1787D02*
G03*
X1315Y1787I-20J0D01*
G01*
Y2567D02*
G03*
X1315Y2567I-20J0D01*
G01*
X1870D02*
G03*
X1870Y2567I-20J0D01*
G01*
X1918D02*
G03*
X1918Y2567I-20J0D01*
G01*
X1339Y1764D02*
G03*
X1339Y1764I-20J0D01*
G01*
Y2362D02*
G03*
X1339Y2362I-20J0D01*
G01*
X1941Y2543D02*
G03*
X1941Y2543I-20J0D01*
G01*
M02*
