%FSLAX23Y23*%
%MOIN*%
G70*
G01*
G75*
G04 Layer_Color=16711935*
%ADD10C,0.006*%
%ADD11C,0.060*%
%ADD12C,0.024*%
%ADD13C,0.020*%
%ADD14R,0.039X0.022*%
%ADD15R,0.047X0.008*%
%ADD16C,0.039*%
%ADD17R,0.031X0.035*%
%ADD18R,0.035X0.024*%
%ADD19R,0.035X0.031*%
%ADD20C,0.020*%
%ADD21R,0.047X0.051*%
%ADD22C,0.068*%
%ADD23R,0.047X0.030*%
%ADD24R,0.059X0.020*%
%ADD25C,0.047*%
%ADD26R,0.039X0.043*%
%ADD27R,0.043X0.032*%
%ADD28R,0.043X0.039*%
G36*
X2361Y1471D02*
X2361Y1470D01*
X2362Y1470D01*
X2362Y1470D01*
X2363Y1470D01*
X2363Y1469D01*
X2363Y1469D01*
X2364Y1469D01*
X2364Y1468D01*
X2364Y1468D01*
X2364Y1467D01*
X2364Y1467D01*
Y1372D01*
X2364Y1372D01*
X2364Y1371D01*
X2364Y1371D01*
X2364Y1370D01*
X2363Y1370D01*
X2363Y1369D01*
X2363Y1369D01*
X2362Y1369D01*
X2362Y1368D01*
X2361Y1368D01*
X2361Y1368D01*
X2360Y1368D01*
X2297D01*
X2297Y1368D01*
X2296Y1368D01*
X2296Y1368D01*
X2295Y1369D01*
X2295Y1369D01*
X2294Y1369D01*
X2294Y1370D01*
X2294Y1370D01*
X2294Y1371D01*
X2293Y1371D01*
X2293Y1372D01*
X2293Y1372D01*
Y1400D01*
X2266D01*
X2265Y1400D01*
X2265Y1400D01*
X2264Y1400D01*
X2264Y1400D01*
X2263Y1400D01*
X2263Y1401D01*
X2263Y1401D01*
X2262Y1402D01*
X2262Y1402D01*
X2262Y1403D01*
X2262Y1403D01*
X2262Y1404D01*
Y1467D01*
X2262Y1467D01*
X2262Y1468D01*
X2262Y1468D01*
X2262Y1469D01*
X2263Y1469D01*
X2263Y1469D01*
X2263Y1470D01*
X2264Y1470D01*
X2264Y1470D01*
X2265Y1470D01*
X2265Y1471D01*
X2266Y1471D01*
X2360D01*
X2361Y1471D01*
D02*
G37*
G36*
X2361Y2600D02*
X2361Y2600D01*
X2362Y2600D01*
X2362Y2600D01*
X2363Y2600D01*
X2363Y2599D01*
X2363Y2599D01*
X2364Y2598D01*
X2364Y2598D01*
X2364Y2597D01*
X2364Y2597D01*
X2364Y2596D01*
Y2502D01*
X2364Y2501D01*
X2364Y2501D01*
X2364Y2500D01*
X2364Y2500D01*
X2363Y2500D01*
X2363Y2499D01*
X2363Y2499D01*
X2362Y2498D01*
X2362Y2498D01*
X2361Y2498D01*
X2361Y2498D01*
X2360Y2498D01*
X2266D01*
X2265Y2498D01*
X2265Y2498D01*
X2264Y2498D01*
X2264Y2498D01*
X2263Y2499D01*
X2263Y2499D01*
X2263Y2500D01*
X2262Y2500D01*
X2262Y2500D01*
X2262Y2501D01*
X2262Y2501D01*
X2262Y2502D01*
Y2565D01*
X2262Y2565D01*
X2262Y2566D01*
X2262Y2566D01*
X2262Y2567D01*
X2263Y2567D01*
X2263Y2568D01*
X2263Y2568D01*
X2264Y2568D01*
X2264Y2569D01*
X2265Y2569D01*
X2265Y2569D01*
X2266Y2569D01*
X2293D01*
Y2596D01*
X2293Y2597D01*
X2293Y2597D01*
X2294Y2598D01*
X2294Y2598D01*
X2294Y2599D01*
X2294Y2599D01*
X2295Y2600D01*
X2295Y2600D01*
X2296Y2600D01*
X2296Y2600D01*
X2297Y2600D01*
X2297Y2600D01*
X2360D01*
X2361Y2600D01*
D02*
G37*
D22*
X1053Y2915D02*
D03*
Y2815D02*
D03*
Y2715D02*
D03*
Y2615D02*
D03*
Y2515D02*
D03*
Y2415D02*
D03*
Y2315D02*
D03*
Y2215D02*
D03*
Y2115D02*
D03*
Y2015D02*
D03*
Y1915D02*
D03*
Y1815D02*
D03*
Y1715D02*
D03*
Y1615D02*
D03*
X1653Y2915D02*
D03*
Y1615D02*
D03*
Y1715D02*
D03*
Y1815D02*
D03*
Y1915D02*
D03*
Y2015D02*
D03*
Y2115D02*
D03*
Y2215D02*
D03*
Y2315D02*
D03*
Y2415D02*
D03*
Y2515D02*
D03*
Y2615D02*
D03*
Y2715D02*
D03*
Y2815D02*
D03*
X1153D02*
D03*
D23*
X1927Y2769D02*
D03*
Y2806D02*
D03*
Y2844D02*
D03*
X2035D02*
D03*
Y2769D02*
D03*
D24*
X2207Y1502D02*
D03*
Y1522D02*
D03*
Y1541D02*
D03*
Y1561D02*
D03*
Y1581D02*
D03*
Y1600D02*
D03*
Y1620D02*
D03*
Y1640D02*
D03*
Y1659D02*
D03*
Y1679D02*
D03*
Y1699D02*
D03*
Y1719D02*
D03*
Y1738D02*
D03*
Y1758D02*
D03*
Y1778D02*
D03*
Y1797D02*
D03*
Y1817D02*
D03*
Y1837D02*
D03*
Y1856D02*
D03*
Y1876D02*
D03*
Y1896D02*
D03*
Y1915D02*
D03*
Y1935D02*
D03*
Y1955D02*
D03*
Y1974D02*
D03*
Y1994D02*
D03*
Y2014D02*
D03*
Y2033D02*
D03*
Y2053D02*
D03*
Y2073D02*
D03*
Y2093D02*
D03*
Y2112D02*
D03*
Y2132D02*
D03*
Y2152D02*
D03*
Y2171D02*
D03*
Y2191D02*
D03*
Y2211D02*
D03*
Y2230D02*
D03*
Y2250D02*
D03*
Y2270D02*
D03*
Y2289D02*
D03*
Y2309D02*
D03*
Y2329D02*
D03*
Y2348D02*
D03*
Y2368D02*
D03*
Y2388D02*
D03*
Y2407D02*
D03*
Y2427D02*
D03*
Y2447D02*
D03*
Y2467D02*
D03*
D25*
X2315Y2535D02*
D03*
Y1433D02*
D03*
D26*
X1953Y2525D02*
D03*
X2010D02*
D03*
X1953Y2482D02*
D03*
X2010D02*
D03*
X1953Y2567D02*
D03*
X2010D02*
D03*
X1953Y2440D02*
D03*
X2010D02*
D03*
X1953Y2398D02*
D03*
X2010D02*
D03*
X1953Y2355D02*
D03*
X2010D02*
D03*
X1964Y1663D02*
D03*
X2021D02*
D03*
X1964Y1621D02*
D03*
X2021D02*
D03*
X1964Y1579D02*
D03*
X2021D02*
D03*
X1964Y1536D02*
D03*
X2021D02*
D03*
D27*
X2060Y2502D02*
D03*
Y2577D02*
D03*
X2151Y2539D02*
D03*
D28*
X2147Y1679D02*
D03*
Y1736D02*
D03*
X2092Y2835D02*
D03*
Y2778D02*
D03*
X1871D02*
D03*
Y2835D02*
D03*
M02*
