M48
;Layer_Color=9474304
;FILE_FORMAT=2:3
INCH,LZ
;TYPE=PLATED
T1F00S00C0.012
T2F00S00C0.040
%
T01
X01181Y01181
X01378
X0128Y01378
X01476
X01673
X0187
X02067
X02264
X02461
X02362Y01181
X02165
X01969
X01772
X01575
X02559
X02756
X02854Y01378
X02756Y01575
X02854Y01772
X02756Y01969
X02854Y02165
X02756Y02362
X02854Y02559
X02756Y02756
X02559
X02362
X02165
X01969
X01772
X01575
X0185Y02567
X01898
X01921Y02543
X02165Y02362
X02362
X02461Y02165
X02362Y01969
X02461Y01772
X02362Y01575
X02067Y01772
X0187
X01772Y01575
X01575Y01969
X01673Y02165
X0187
X02067
X01476
X01378Y01969
X01295Y01787
X01319Y01764
X01476Y01772
X01378Y01575
X01181
Y02362
X01319Y02362
X01295Y02567
X01378Y02756
X01181
T02
X01653Y01615
Y01715
Y01815
Y01915
Y02015
Y02115
Y02215
Y02315
Y02415
Y02515
Y02615
Y02715
Y02815
Y02915
X01053
Y02815
Y02715
Y02615
Y02515
Y02415
Y02315
Y02215
Y02115
Y02015
Y01915
Y01815
Y01715
Y01615
X01153Y02815
M30
