%FSLAX23Y23*%
%MOIN*%
G70*
G01*
G75*
G04 Layer_Color=65535*
%ADD10C,0.006*%
%ADD11C,0.060*%
%ADD12C,0.020*%
%ADD13C,0.024*%
%ADD14R,0.047X0.012*%
%ADD15C,0.039*%
%ADD16R,0.039X0.022*%
%ADD17R,0.030X0.035*%
%ADD18R,0.035X0.024*%
%ADD19R,0.035X0.031*%
%ADD20C,0.020*%
%ADD21R,0.047X0.051*%
G36*
X1116Y1931D02*
X1116Y1931D01*
X1117Y1931D01*
X1118Y1931D01*
X1119Y1931D01*
X1120Y1931D01*
X1120Y1931D01*
X1120Y1931D01*
X1120Y1930D01*
X1121Y1930D01*
X1121Y1930D01*
X1122Y1929D01*
X1122Y1929D01*
X1123Y1928D01*
X1123Y1928D01*
X1123Y1928D01*
X1123Y1927D01*
X1124Y1927D01*
X1124Y1926D01*
X1124Y1925D01*
X1125Y1925D01*
X1125Y1924D01*
Y1924D01*
X1125Y1924D01*
Y1923D01*
X1125Y1923D01*
X1125Y1923D01*
X1125Y1922D01*
X1126Y1921D01*
X1126Y1920D01*
X1126Y1919D01*
X1126Y1917D01*
Y1917D01*
Y1917D01*
Y1917D01*
Y1916D01*
X1126Y1916D01*
Y1915D01*
X1126Y1914D01*
X1125Y1913D01*
Y1912D01*
X1125Y1912D01*
X1125Y1912D01*
X1125Y1911D01*
X1125Y1910D01*
X1125Y1910D01*
X1124Y1908D01*
X1124Y1908D01*
X1124Y1908D01*
X1124Y1907D01*
X1124Y1907D01*
X1124Y1906D01*
X1123Y1906D01*
X1122Y1904D01*
X1122Y1904D01*
X1122Y1904D01*
X1122Y1904D01*
X1122Y1903D01*
X1121Y1903D01*
X1121Y1903D01*
X1120Y1902D01*
X1119Y1902D01*
X1119Y1902D01*
X1119Y1901D01*
X1119Y1901D01*
X1118Y1901D01*
X1118Y1901D01*
X1117Y1900D01*
X1116Y1900D01*
X1115Y1900D01*
X1115D01*
X1115Y1900D01*
X1115Y1900D01*
X1114Y1899D01*
X1113Y1899D01*
X1113Y1899D01*
X1112Y1899D01*
X1111Y1899D01*
X1109Y1899D01*
X1106D01*
Y1903D01*
X1110D01*
X1111Y1903D01*
X1111Y1903D01*
X1112Y1903D01*
X1113Y1903D01*
X1114Y1903D01*
X1115Y1903D01*
X1115Y1903D01*
X1115Y1903D01*
X1115Y1904D01*
X1116Y1904D01*
X1116Y1904D01*
X1117Y1905D01*
X1118Y1905D01*
X1118Y1905D01*
X1118Y1905D01*
X1118Y1906D01*
X1119Y1906D01*
X1119Y1906D01*
X1119Y1907D01*
X1120Y1907D01*
X1120Y1908D01*
X1120Y1908D01*
X1120Y1908D01*
X1120Y1909D01*
X1121Y1909D01*
X1121Y1910D01*
X1121Y1910D01*
X1121Y1911D01*
X1121Y1912D01*
X1121Y1912D01*
X1121Y1913D01*
X1121Y1913D01*
X1121Y1913D01*
X1121Y1913D01*
X1120Y1913D01*
X1120Y1913D01*
X1119Y1912D01*
X1118Y1912D01*
X1118Y1912D01*
X1118Y1912D01*
X1117Y1912D01*
X1117Y1912D01*
X1116Y1912D01*
X1116Y1911D01*
X1115Y1911D01*
X1114Y1911D01*
X1113D01*
X1112Y1911D01*
X1112Y1911D01*
X1111Y1911D01*
X1111Y1912D01*
X1110Y1912D01*
X1109Y1912D01*
X1109Y1912D01*
X1109Y1912D01*
X1108Y1912D01*
X1108Y1913D01*
X1108Y1913D01*
X1107Y1913D01*
X1107Y1914D01*
X1106Y1914D01*
X1106Y1914D01*
X1106Y1914D01*
X1106Y1915D01*
X1105Y1915D01*
X1105Y1915D01*
X1105Y1916D01*
X1105Y1916D01*
X1104Y1917D01*
X1104Y1917D01*
X1104Y1917D01*
X1104Y1918D01*
X1104Y1918D01*
X1104Y1919D01*
X1104Y1919D01*
X1104Y1920D01*
Y1921D01*
Y1921D01*
Y1921D01*
X1104Y1922D01*
X1104Y1922D01*
X1104Y1923D01*
X1104Y1924D01*
X1104Y1924D01*
X1104Y1925D01*
X1104Y1925D01*
X1105Y1925D01*
X1105Y1926D01*
X1105Y1926D01*
X1105Y1927D01*
X1106Y1927D01*
X1106Y1928D01*
X1107Y1928D01*
X1107Y1929D01*
X1107Y1929D01*
X1107Y1929D01*
X1108Y1929D01*
X1108Y1930D01*
X1109Y1930D01*
X1109Y1930D01*
X1110Y1931D01*
X1110Y1931D01*
X1111Y1931D01*
X1111Y1931D01*
X1112Y1931D01*
X1112Y1931D01*
X1113Y1931D01*
X1114Y1931D01*
X1115Y1932D01*
X1115D01*
X1116Y1931D01*
D02*
G37*
G36*
X1124Y2228D02*
X1120D01*
X1120Y2228D01*
X1119D01*
X1118Y2228D01*
X1117Y2228D01*
X1116Y2228D01*
X1115Y2227D01*
X1115D01*
X1115Y2227D01*
X1115Y2227D01*
X1115Y2227D01*
X1114Y2227D01*
X1113Y2227D01*
X1113Y2226D01*
X1112Y2226D01*
X1111Y2226D01*
X1111Y2225D01*
X1111Y2225D01*
X1111Y2225D01*
X1111Y2225D01*
X1110Y2224D01*
X1110Y2224D01*
X1109Y2223D01*
X1109Y2223D01*
X1109Y2222D01*
X1109Y2222D01*
X1109Y2222D01*
X1109Y2221D01*
X1109Y2221D01*
X1108Y2220D01*
X1108Y2219D01*
X1108Y2218D01*
X1108Y2217D01*
X1108Y2217D01*
X1108Y2218D01*
X1109Y2218D01*
X1109Y2218D01*
X1110Y2218D01*
X1110Y2218D01*
X1111Y2219D01*
X1112Y2219D01*
X1112D01*
X1112Y2219D01*
X1112Y2219D01*
X1113Y2219D01*
X1114Y2219D01*
X1114Y2219D01*
X1115Y2219D01*
X1116D01*
X1117Y2219D01*
X1117Y2219D01*
X1118Y2219D01*
X1119Y2219D01*
X1120Y2219D01*
X1120Y2219D01*
X1120Y2219D01*
X1121Y2219D01*
X1121Y2218D01*
X1121Y2218D01*
X1122Y2218D01*
X1122Y2218D01*
X1123Y2217D01*
X1123Y2217D01*
X1123Y2217D01*
X1124Y2217D01*
X1124Y2216D01*
X1124Y2216D01*
X1124Y2215D01*
X1125Y2215D01*
X1125Y2214D01*
X1125Y2214D01*
Y2214D01*
X1125Y2213D01*
X1125Y2213D01*
X1125Y2213D01*
X1126Y2212D01*
X1126Y2211D01*
X1126Y2211D01*
X1126Y2210D01*
Y2210D01*
Y2209D01*
X1126Y2209D01*
X1126Y2208D01*
X1126Y2208D01*
X1125Y2207D01*
X1125Y2206D01*
X1125Y2206D01*
X1125Y2206D01*
X1125Y2205D01*
X1125Y2205D01*
X1124Y2205D01*
X1124Y2204D01*
X1124Y2203D01*
X1123Y2203D01*
X1123Y2202D01*
X1123Y2202D01*
X1122Y2202D01*
X1122Y2202D01*
X1122Y2201D01*
X1121Y2201D01*
X1121Y2201D01*
X1120Y2200D01*
X1119Y2200D01*
X1119Y2200D01*
X1119Y2200D01*
X1118Y2200D01*
X1118Y2200D01*
X1117Y2199D01*
X1116Y2199D01*
X1116Y2199D01*
X1115Y2199D01*
X1114D01*
X1114Y2199D01*
X1113Y2199D01*
X1113Y2199D01*
X1112Y2199D01*
X1111Y2200D01*
X1110Y2200D01*
X1110Y2200D01*
X1110Y2200D01*
X1110Y2200D01*
X1109Y2201D01*
X1108Y2201D01*
X1108Y2201D01*
X1107Y2202D01*
X1107Y2203D01*
X1107Y2203D01*
X1107Y2203D01*
X1106Y2203D01*
X1106Y2204D01*
X1106Y2204D01*
X1105Y2205D01*
X1105Y2206D01*
X1104Y2207D01*
Y2207D01*
X1104Y2207D01*
X1104Y2207D01*
X1104Y2208D01*
X1104Y2208D01*
X1104Y2208D01*
X1104Y2209D01*
X1104Y2210D01*
X1104Y2211D01*
X1104Y2212D01*
X1104Y2214D01*
Y2214D01*
Y2214D01*
Y2214D01*
Y2215D01*
X1104Y2215D01*
Y2216D01*
X1104Y2216D01*
X1104Y2217D01*
X1104Y2218D01*
X1104Y2219D01*
X1104Y2221D01*
X1105Y2222D01*
Y2222D01*
X1105Y2222D01*
X1105Y2222D01*
X1105Y2223D01*
X1105Y2223D01*
X1106Y2224D01*
X1106Y2225D01*
X1107Y2226D01*
X1107Y2227D01*
X1108Y2228D01*
X1108Y2228D01*
X1108Y2228D01*
X1109Y2228D01*
X1110Y2229D01*
X1110Y2229D01*
X1111Y2230D01*
X1112Y2230D01*
X1114Y2231D01*
X1114D01*
X1114Y2231D01*
X1114Y2231D01*
X1114Y2231D01*
X1114Y2231D01*
X1115Y2231D01*
X1115Y2231D01*
X1116Y2231D01*
X1117Y2231D01*
X1118Y2232D01*
X1120Y2232D01*
X1121Y2232D01*
X1124D01*
Y2228D01*
D02*
G37*
G36*
X1152Y2228D02*
X1143D01*
Y2204D01*
X1151Y2208D01*
X1152Y2205D01*
X1142Y2199D01*
X1139D01*
Y2228D01*
X1131D01*
Y2232D01*
X1152D01*
Y2228D01*
D02*
G37*
G36*
X1152Y1927D02*
X1144D01*
Y1904D01*
X1152Y1908D01*
X1153Y1904D01*
X1143Y1899D01*
X1139D01*
Y1927D01*
X1132D01*
Y1931D01*
X1152D01*
Y1927D01*
D02*
G37*
G36*
X1123Y2908D02*
X1120D01*
X1119Y2912D01*
X1119Y2912D01*
X1119Y2911D01*
X1119Y2911D01*
X1119Y2911D01*
X1118Y2910D01*
X1117Y2909D01*
X1117Y2909D01*
X1117Y2909D01*
X1117Y2909D01*
X1117Y2909D01*
X1116Y2909D01*
X1115Y2908D01*
X1115D01*
X1115Y2908D01*
X1115Y2908D01*
X1115Y2908D01*
X1114Y2908D01*
X1113Y2907D01*
X1113D01*
X1113Y2907D01*
X1113D01*
X1113Y2907D01*
X1112Y2907D01*
X1111Y2907D01*
X1111D01*
X1111Y2907D01*
X1110D01*
X1110Y2907D01*
X1109Y2907D01*
X1108Y2908D01*
X1107Y2908D01*
X1106Y2909D01*
X1106Y2909D01*
X1105Y2910D01*
X1105Y2910D01*
X1105Y2910D01*
X1105Y2911D01*
X1104Y2912D01*
X1104Y2913D01*
X1104Y2915D01*
X1104Y2916D01*
Y2932D01*
X1108D01*
Y2917D01*
Y2916D01*
Y2916D01*
Y2916D01*
Y2916D01*
X1108Y2916D01*
X1108Y2915D01*
X1108Y2914D01*
X1108Y2914D01*
X1109Y2913D01*
X1109Y2912D01*
X1109Y2912D01*
X1109Y2912D01*
X1109Y2912D01*
X1110Y2912D01*
X1110Y2911D01*
X1111Y2911D01*
X1111Y2911D01*
X1112Y2911D01*
X1112D01*
X1113Y2911D01*
X1113Y2911D01*
X1114Y2911D01*
X1114D01*
X1114Y2911D01*
X1114Y2911D01*
X1115Y2912D01*
X1115Y2912D01*
X1115D01*
X1115Y2912D01*
X1116Y2912D01*
X1116Y2912D01*
X1116Y2913D01*
X1117Y2913D01*
X1117Y2914D01*
X1117Y2914D01*
X1117Y2914D01*
X1118Y2914D01*
X1118Y2915D01*
X1118Y2915D01*
X1119Y2915D01*
X1119Y2916D01*
Y2932D01*
X1123D01*
Y2908D01*
D02*
G37*
G36*
X1151Y1827D02*
X1143D01*
Y1804D01*
X1150Y1808D01*
X1152Y1804D01*
X1142Y1799D01*
X1138D01*
Y1827D01*
X1131D01*
Y1831D01*
X1151D01*
Y1827D01*
D02*
G37*
G36*
X1119Y1831D02*
X1119D01*
X1119Y1831D01*
X1120D01*
X1120Y1831D01*
X1121D01*
X1121Y1831D01*
X1121Y1831D01*
X1122Y1831D01*
X1122D01*
X1122Y1831D01*
X1123D01*
X1123Y1831D01*
Y1827D01*
X1123D01*
X1123Y1827D01*
X1123Y1827D01*
X1122Y1827D01*
X1122Y1827D01*
X1121Y1827D01*
X1121Y1828D01*
X1120Y1828D01*
X1120D01*
X1120Y1828D01*
X1119D01*
X1118Y1828D01*
X1116D01*
X1115Y1828D01*
X1115Y1828D01*
X1114Y1828D01*
X1113Y1827D01*
X1113D01*
X1113Y1827D01*
X1113Y1827D01*
X1112Y1827D01*
X1111Y1827D01*
X1111Y1826D01*
X1110Y1826D01*
X1110Y1826D01*
X1110Y1826D01*
X1110Y1825D01*
X1110Y1825D01*
X1109Y1825D01*
X1109Y1824D01*
X1109Y1824D01*
X1109Y1824D01*
X1109Y1823D01*
X1108Y1823D01*
X1108Y1823D01*
X1108Y1822D01*
X1108Y1822D01*
Y1821D01*
Y1821D01*
Y1821D01*
Y1821D01*
X1108Y1821D01*
X1108Y1820D01*
X1108Y1819D01*
X1109Y1819D01*
X1109Y1818D01*
X1110Y1817D01*
X1110Y1817D01*
X1110Y1817D01*
X1111Y1816D01*
X1111Y1816D01*
X1112Y1816D01*
X1113Y1816D01*
X1114Y1815D01*
X1115Y1815D01*
X1117Y1815D01*
X1123D01*
Y1799D01*
X1105D01*
Y1803D01*
X1119D01*
Y1812D01*
X1115D01*
X1114Y1812D01*
X1114Y1812D01*
X1113Y1812D01*
X1111Y1812D01*
X1111D01*
X1111Y1812D01*
X1111Y1812D01*
X1110Y1812D01*
X1109Y1813D01*
X1109Y1813D01*
X1108Y1813D01*
X1107Y1814D01*
X1107Y1814D01*
X1107Y1814D01*
X1107Y1814D01*
X1106Y1814D01*
X1106Y1815D01*
X1106Y1815D01*
X1105Y1816D01*
X1105Y1816D01*
X1105Y1816D01*
X1105Y1817D01*
X1104Y1817D01*
X1104Y1818D01*
X1104Y1818D01*
X1104Y1819D01*
X1104Y1820D01*
X1104Y1821D01*
Y1821D01*
Y1821D01*
X1104Y1822D01*
X1104Y1822D01*
X1104Y1823D01*
X1104Y1824D01*
X1104Y1824D01*
X1105Y1825D01*
X1105Y1825D01*
X1105Y1825D01*
X1105Y1826D01*
X1105Y1826D01*
X1106Y1827D01*
X1106Y1827D01*
X1107Y1828D01*
X1108Y1828D01*
X1108Y1829D01*
X1108Y1829D01*
X1108Y1829D01*
X1109Y1829D01*
X1109Y1830D01*
X1110Y1830D01*
X1111Y1830D01*
X1112Y1831D01*
X1112Y1831D01*
X1112Y1831D01*
X1113Y1831D01*
X1113Y1831D01*
X1114Y1831D01*
X1115Y1831D01*
X1116Y1831D01*
X1117Y1831D01*
X1118D01*
X1119Y1831D01*
D02*
G37*
G36*
X1128Y2707D02*
X1123D01*
X1117Y2723D01*
X1116Y2727D01*
X1114Y2723D01*
X1108Y2707D01*
X1104D01*
X1113Y2732D01*
X1118D01*
X1128Y2707D01*
D02*
G37*
G36*
X1172Y2732D02*
X1172Y2732D01*
X1173Y2732D01*
X1173D01*
X1173Y2732D01*
X1173Y2732D01*
X1174Y2731D01*
X1174Y2731D01*
X1174Y2731D01*
X1174Y2731D01*
X1175Y2730D01*
X1175Y2730D01*
Y2730D01*
X1175Y2730D01*
X1175Y2729D01*
Y2729D01*
X1175Y2729D01*
X1175Y2728D01*
Y2728D01*
Y2728D01*
Y2728D01*
X1175Y2728D01*
X1175Y2727D01*
X1175Y2726D01*
Y2726D01*
X1175Y2726D01*
X1175Y2726D01*
X1175Y2726D01*
X1174Y2725D01*
Y2725D01*
X1174Y2725D01*
X1174Y2725D01*
X1173Y2725D01*
X1173Y2724D01*
X1173D01*
X1173Y2724D01*
X1173Y2724D01*
X1172Y2724D01*
X1172Y2724D01*
X1171Y2724D01*
X1171D01*
X1171Y2724D01*
X1170Y2724D01*
X1170Y2724D01*
X1170D01*
X1170Y2724D01*
X1169Y2724D01*
X1169Y2725D01*
X1168Y2725D01*
X1168Y2725D01*
X1168Y2726D01*
X1168Y2726D01*
X1167Y2726D01*
Y2727D01*
X1167Y2727D01*
X1167Y2727D01*
X1167Y2727D01*
X1167Y2728D01*
Y2728D01*
Y2728D01*
Y2728D01*
X1167Y2729D01*
X1167Y2729D01*
X1167Y2730D01*
Y2730D01*
X1168Y2730D01*
X1168Y2730D01*
X1168Y2731D01*
X1168Y2731D01*
X1168Y2731D01*
X1169Y2731D01*
X1169Y2732D01*
X1170Y2732D01*
X1170D01*
X1170Y2732D01*
X1170Y2732D01*
X1170Y2732D01*
X1171Y2732D01*
X1171Y2732D01*
X1172D01*
X1172Y2732D01*
D02*
G37*
G36*
X1149D02*
X1149D01*
X1150Y2732D01*
X1151D01*
X1151Y2732D01*
X1151D01*
X1152Y2732D01*
X1152Y2732D01*
X1153Y2732D01*
Y2728D01*
X1153D01*
X1153Y2728D01*
X1153Y2728D01*
X1152Y2728D01*
X1152Y2728D01*
X1151Y2728D01*
X1150Y2728D01*
X1150D01*
X1149Y2728D01*
X1148D01*
X1148Y2728D01*
X1146D01*
X1145Y2728D01*
X1144Y2728D01*
X1144Y2728D01*
X1143Y2728D01*
X1142Y2728D01*
X1142D01*
X1142Y2728D01*
X1142Y2728D01*
X1141Y2728D01*
X1140Y2727D01*
X1140Y2727D01*
X1140Y2727D01*
X1140Y2727D01*
X1139Y2727D01*
X1139Y2726D01*
X1139Y2726D01*
X1138Y2726D01*
X1138Y2725D01*
X1138Y2725D01*
Y2725D01*
X1138Y2725D01*
X1138Y2724D01*
X1138Y2724D01*
X1138Y2724D01*
X1138Y2723D01*
X1137Y2722D01*
Y2722D01*
Y2722D01*
X1137Y2722D01*
Y2721D01*
X1138Y2721D01*
X1138Y2720D01*
X1138Y2720D01*
Y2720D01*
X1138Y2720D01*
X1138Y2720D01*
X1138Y2719D01*
X1139Y2719D01*
X1140Y2718D01*
X1140Y2718D01*
X1140Y2718D01*
X1140Y2718D01*
X1140Y2718D01*
X1141Y2718D01*
X1141Y2718D01*
X1142Y2717D01*
X1142Y2717D01*
X1142D01*
X1143Y2717D01*
X1143Y2717D01*
X1143Y2717D01*
X1144Y2717D01*
X1144Y2717D01*
X1146Y2717D01*
X1149D01*
Y2713D01*
X1145D01*
X1145Y2713D01*
X1144Y2713D01*
X1144Y2713D01*
X1143Y2713D01*
X1143D01*
X1143Y2713D01*
X1142Y2713D01*
X1142Y2713D01*
X1141Y2712D01*
X1141Y2712D01*
X1141Y2712D01*
X1141Y2712D01*
X1140Y2712D01*
X1140Y2711D01*
X1140Y2711D01*
X1139Y2710D01*
Y2710D01*
X1139Y2710D01*
X1139Y2710D01*
X1139Y2709D01*
X1139Y2709D01*
X1139Y2709D01*
X1139Y2708D01*
Y2708D01*
Y2708D01*
Y2707D01*
X1139Y2707D01*
X1139Y2706D01*
X1139Y2706D01*
X1140Y2705D01*
X1140Y2704D01*
X1141Y2704D01*
X1141Y2704D01*
X1141Y2704D01*
X1141Y2704D01*
X1142Y2703D01*
X1142Y2703D01*
X1143Y2703D01*
X1144Y2703D01*
X1145Y2703D01*
X1146D01*
X1146Y2703D01*
X1147D01*
X1147Y2703D01*
X1149Y2703D01*
X1149D01*
X1149Y2703D01*
X1149Y2703D01*
X1150Y2703D01*
X1150Y2704D01*
X1151Y2704D01*
X1152Y2704D01*
X1152Y2704D01*
Y2700D01*
X1152D01*
X1152Y2700D01*
X1152Y2700D01*
X1152Y2700D01*
X1151Y2700D01*
X1150Y2700D01*
X1150D01*
X1150Y2700D01*
X1150D01*
X1150Y2700D01*
X1149Y2700D01*
X1149Y2699D01*
X1149D01*
X1148Y2699D01*
X1148D01*
X1148Y2699D01*
X1147Y2699D01*
X1147Y2699D01*
X1147D01*
X1146Y2699D01*
X1146D01*
X1146Y2699D01*
X1144D01*
X1144Y2699D01*
X1143D01*
X1143Y2699D01*
X1142Y2699D01*
X1141Y2699D01*
X1140Y2700D01*
X1140D01*
X1140Y2700D01*
X1140Y2700D01*
X1139Y2700D01*
X1139Y2700D01*
X1138Y2701D01*
X1138Y2701D01*
X1137Y2701D01*
X1137Y2701D01*
X1137Y2701D01*
X1137Y2702D01*
X1136Y2702D01*
X1136Y2702D01*
X1136Y2703D01*
X1135Y2703D01*
X1135Y2704D01*
X1135Y2704D01*
X1135Y2704D01*
X1135Y2704D01*
X1135Y2705D01*
X1135Y2705D01*
X1135Y2706D01*
X1135Y2706D01*
X1134Y2707D01*
Y2707D01*
Y2707D01*
Y2708D01*
X1135Y2708D01*
X1135Y2709D01*
X1135Y2709D01*
X1135Y2710D01*
X1135Y2711D01*
X1136Y2712D01*
X1136Y2712D01*
X1136Y2712D01*
X1136Y2712D01*
X1137Y2713D01*
X1137Y2713D01*
X1138Y2714D01*
X1139Y2714D01*
X1140Y2715D01*
X1140D01*
X1140Y2715D01*
X1139Y2715D01*
X1139Y2715D01*
X1139Y2715D01*
X1138Y2715D01*
X1137Y2716D01*
X1137D01*
X1137Y2716D01*
X1137Y2716D01*
X1137Y2716D01*
X1136Y2716D01*
X1135Y2717D01*
X1135Y2717D01*
X1135Y2717D01*
X1135Y2717D01*
X1135Y2718D01*
X1134Y2718D01*
X1134Y2718D01*
X1134Y2719D01*
X1134Y2719D01*
X1133Y2719D01*
X1133Y2720D01*
X1133Y2720D01*
X1133Y2720D01*
X1133Y2721D01*
X1133Y2721D01*
Y2722D01*
Y2722D01*
Y2722D01*
X1133Y2723D01*
X1133Y2723D01*
X1133Y2724D01*
X1133Y2725D01*
X1134Y2725D01*
X1134Y2726D01*
X1134Y2726D01*
X1134Y2726D01*
X1134Y2727D01*
X1134Y2727D01*
X1135Y2728D01*
X1135Y2728D01*
X1136Y2729D01*
X1136Y2729D01*
X1136Y2729D01*
X1137Y2729D01*
X1137Y2730D01*
X1138Y2730D01*
X1138Y2730D01*
X1139Y2731D01*
X1140Y2731D01*
X1141Y2731D01*
X1141D01*
X1141Y2731D01*
X1141D01*
X1141Y2731D01*
X1142Y2732D01*
X1143Y2732D01*
X1143Y2732D01*
X1144Y2732D01*
X1146Y2732D01*
X1147Y2732D01*
X1148D01*
X1149Y2732D01*
D02*
G37*
G36*
X1119Y2632D02*
X1120D01*
X1121Y2632D01*
X1121D01*
X1121Y2632D01*
X1122D01*
X1122Y2632D01*
X1123Y2632D01*
X1124Y2632D01*
Y2628D01*
X1124D01*
X1123Y2628D01*
X1123Y2628D01*
X1123Y2628D01*
X1122Y2628D01*
X1122Y2628D01*
X1121Y2628D01*
X1120D01*
X1120Y2628D01*
X1119D01*
X1118Y2628D01*
X1116D01*
X1116Y2628D01*
X1115Y2628D01*
X1114Y2628D01*
X1114Y2628D01*
X1113Y2628D01*
X1113D01*
X1113Y2628D01*
X1112Y2628D01*
X1112Y2628D01*
X1111Y2627D01*
X1111Y2627D01*
X1110Y2627D01*
X1110Y2627D01*
X1110Y2627D01*
X1110Y2626D01*
X1110Y2626D01*
X1109Y2625D01*
X1109Y2625D01*
X1109Y2625D01*
Y2625D01*
X1108Y2625D01*
X1108Y2624D01*
X1108Y2624D01*
X1108Y2624D01*
X1108Y2623D01*
X1108Y2622D01*
Y2622D01*
Y2622D01*
X1108Y2622D01*
Y2621D01*
X1108Y2621D01*
X1108Y2620D01*
X1109Y2620D01*
Y2620D01*
X1109Y2620D01*
X1109Y2619D01*
X1109Y2619D01*
X1110Y2619D01*
X1110Y2618D01*
X1110Y2618D01*
X1111Y2618D01*
X1111Y2618D01*
X1111Y2618D01*
X1111Y2618D01*
X1112Y2617D01*
X1112Y2617D01*
X1113Y2617D01*
X1113D01*
X1113Y2617D01*
X1113Y2617D01*
X1114Y2617D01*
X1114Y2617D01*
X1115Y2617D01*
X1116Y2617D01*
X1120D01*
Y2613D01*
X1116D01*
X1115Y2613D01*
X1115Y2613D01*
X1114Y2613D01*
X1113Y2613D01*
X1113D01*
X1113Y2613D01*
X1113Y2613D01*
X1113Y2613D01*
X1112Y2612D01*
X1111Y2612D01*
X1111Y2612D01*
X1111Y2612D01*
X1111Y2612D01*
X1111Y2611D01*
X1110Y2611D01*
X1110Y2610D01*
Y2610D01*
X1110Y2610D01*
X1110Y2610D01*
X1110Y2609D01*
X1110Y2609D01*
X1110Y2609D01*
X1110Y2608D01*
Y2608D01*
Y2608D01*
Y2607D01*
X1110Y2607D01*
X1110Y2606D01*
X1110Y2606D01*
X1110Y2605D01*
X1111Y2604D01*
X1111Y2604D01*
X1111Y2604D01*
X1111Y2604D01*
X1112Y2604D01*
X1112Y2603D01*
X1113Y2603D01*
X1114Y2603D01*
X1115Y2603D01*
X1116Y2603D01*
X1116D01*
X1117Y2603D01*
X1117D01*
X1118Y2603D01*
X1119Y2603D01*
X1119D01*
X1119Y2603D01*
X1120Y2603D01*
X1120Y2603D01*
X1121Y2603D01*
X1121Y2604D01*
X1122Y2604D01*
X1123Y2604D01*
Y2600D01*
X1123D01*
X1123Y2600D01*
X1123Y2600D01*
X1122Y2600D01*
X1122Y2600D01*
X1121Y2600D01*
X1121D01*
X1121Y2600D01*
X1121D01*
X1121Y2600D01*
X1120Y2599D01*
X1119Y2599D01*
X1119D01*
X1119Y2599D01*
X1119D01*
X1119Y2599D01*
X1118Y2599D01*
X1117Y2599D01*
X1117D01*
X1117Y2599D01*
X1117D01*
X1116Y2599D01*
X1115D01*
X1115Y2599D01*
X1114D01*
X1113Y2599D01*
X1113Y2599D01*
X1112Y2599D01*
X1111Y2600D01*
X1111D01*
X1111Y2600D01*
X1110Y2600D01*
X1110Y2600D01*
X1109Y2600D01*
X1109Y2600D01*
X1108Y2601D01*
X1108Y2601D01*
X1108Y2601D01*
X1108Y2601D01*
X1107Y2602D01*
X1107Y2602D01*
X1107Y2602D01*
X1106Y2603D01*
X1106Y2603D01*
X1106Y2604D01*
X1106Y2604D01*
X1106Y2604D01*
X1106Y2604D01*
X1105Y2605D01*
X1105Y2605D01*
X1105Y2606D01*
X1105Y2606D01*
X1105Y2607D01*
Y2607D01*
Y2607D01*
Y2607D01*
X1105Y2608D01*
X1105Y2609D01*
X1105Y2609D01*
X1106Y2610D01*
X1106Y2611D01*
X1107Y2612D01*
X1107Y2612D01*
X1107Y2612D01*
X1107Y2612D01*
X1108Y2613D01*
X1108Y2613D01*
X1109Y2614D01*
X1110Y2614D01*
X1110Y2615D01*
X1110D01*
X1110Y2615D01*
X1110Y2615D01*
X1110Y2615D01*
X1109Y2615D01*
X1109Y2615D01*
X1108Y2615D01*
X1108D01*
X1108Y2616D01*
X1108Y2616D01*
X1107Y2616D01*
X1107Y2616D01*
X1106Y2617D01*
X1106Y2617D01*
X1106Y2617D01*
X1105Y2617D01*
X1105Y2618D01*
X1105Y2618D01*
X1105Y2618D01*
X1104Y2619D01*
X1104Y2619D01*
X1104Y2619D01*
X1104Y2620D01*
X1104Y2620D01*
X1104Y2620D01*
X1104Y2621D01*
X1104Y2621D01*
Y2622D01*
Y2622D01*
Y2622D01*
X1104Y2623D01*
X1104Y2623D01*
X1104Y2624D01*
X1104Y2624D01*
X1104Y2625D01*
X1104Y2626D01*
X1105Y2626D01*
X1105Y2626D01*
X1105Y2627D01*
X1105Y2627D01*
X1105Y2627D01*
X1106Y2628D01*
X1106Y2629D01*
X1107Y2629D01*
X1107Y2629D01*
X1107Y2629D01*
X1108Y2630D01*
X1108Y2630D01*
X1109Y2630D01*
X1110Y2631D01*
X1110Y2631D01*
X1111Y2631D01*
X1111D01*
X1111Y2631D01*
X1112D01*
X1112Y2631D01*
X1112Y2631D01*
X1113Y2632D01*
X1114Y2632D01*
X1115Y2632D01*
X1116Y2632D01*
X1117Y2632D01*
X1119D01*
X1119Y2632D01*
D02*
G37*
G36*
X1116Y2332D02*
X1117Y2332D01*
X1118Y2332D01*
X1119Y2331D01*
X1119Y2331D01*
X1120Y2331D01*
X1120Y2331D01*
X1121Y2331D01*
X1121Y2330D01*
X1121Y2330D01*
X1122Y2330D01*
X1123Y2329D01*
X1123Y2329D01*
X1124Y2328D01*
X1124Y2328D01*
X1124Y2327D01*
X1124Y2327D01*
X1125Y2326D01*
X1125Y2326D01*
X1125Y2325D01*
X1126Y2324D01*
X1126Y2323D01*
Y2323D01*
X1126Y2323D01*
Y2322D01*
X1126Y2322D01*
X1126Y2322D01*
X1126Y2322D01*
X1126Y2321D01*
X1127Y2321D01*
X1127Y2320D01*
X1127Y2318D01*
X1127Y2317D01*
X1127Y2315D01*
Y2315D01*
Y2315D01*
Y2315D01*
Y2315D01*
Y2314D01*
X1127Y2314D01*
X1127Y2313D01*
X1127Y2312D01*
X1127Y2311D01*
X1126Y2310D01*
X1126Y2309D01*
Y2309D01*
X1126Y2308D01*
X1126Y2308D01*
X1126Y2308D01*
X1126Y2308D01*
X1126Y2307D01*
X1125Y2306D01*
X1125Y2305D01*
X1124Y2304D01*
X1124Y2303D01*
X1124Y2303D01*
X1124Y2303D01*
X1123Y2303D01*
X1123Y2302D01*
X1122Y2302D01*
X1122Y2301D01*
X1121Y2300D01*
X1120Y2300D01*
X1120Y2300D01*
X1120Y2300D01*
X1119Y2300D01*
X1119Y2299D01*
X1118Y2299D01*
X1117Y2299D01*
X1116Y2299D01*
X1115Y2299D01*
X1115D01*
X1114Y2299D01*
X1113Y2299D01*
X1113Y2299D01*
X1112Y2299D01*
X1111Y2299D01*
X1110Y2300D01*
X1110Y2300D01*
X1110Y2300D01*
X1110Y2300D01*
X1109Y2301D01*
X1109Y2301D01*
X1108Y2301D01*
X1107Y2302D01*
X1107Y2303D01*
X1107Y2303D01*
X1106Y2303D01*
X1106Y2304D01*
X1106Y2304D01*
X1105Y2305D01*
X1105Y2306D01*
X1105Y2307D01*
X1104Y2308D01*
Y2308D01*
X1104Y2308D01*
Y2308D01*
X1104Y2308D01*
X1104Y2309D01*
X1104Y2309D01*
X1104Y2310D01*
X1104Y2310D01*
X1104Y2311D01*
X1104Y2312D01*
X1104Y2314D01*
X1104Y2315D01*
Y2315D01*
Y2315D01*
Y2316D01*
Y2316D01*
Y2316D01*
X1104Y2317D01*
X1104Y2318D01*
X1104Y2319D01*
X1104Y2320D01*
X1104Y2321D01*
X1104Y2322D01*
Y2322D01*
X1104Y2322D01*
Y2322D01*
X1104Y2323D01*
X1105Y2323D01*
X1105Y2324D01*
X1105Y2325D01*
X1106Y2326D01*
X1106Y2326D01*
X1107Y2327D01*
X1107Y2327D01*
X1107Y2328D01*
X1107Y2328D01*
X1108Y2329D01*
X1108Y2329D01*
X1109Y2330D01*
X1109Y2330D01*
X1110Y2331D01*
X1110Y2331D01*
X1111Y2331D01*
X1111Y2331D01*
X1112Y2331D01*
X1113Y2331D01*
X1113Y2332D01*
X1114Y2332D01*
X1115Y2332D01*
X1116D01*
X1116Y2332D01*
D02*
G37*
G36*
X1153Y2328D02*
X1145Y2319D01*
X1145Y2319D01*
X1145Y2319D01*
X1144Y2319D01*
X1144Y2318D01*
X1143Y2318D01*
X1143Y2317D01*
X1142Y2316D01*
X1142Y2316D01*
X1142Y2316D01*
X1141Y2316D01*
X1141Y2315D01*
X1141Y2315D01*
X1141Y2315D01*
X1140Y2314D01*
X1140Y2313D01*
X1140Y2313D01*
X1140Y2313D01*
X1139Y2313D01*
X1139Y2312D01*
X1139Y2312D01*
X1139Y2311D01*
Y2311D01*
X1139Y2311D01*
X1139Y2310D01*
X1138Y2310D01*
Y2310D01*
X1138Y2309D01*
X1138Y2308D01*
Y2308D01*
Y2308D01*
Y2308D01*
X1138Y2308D01*
X1138Y2307D01*
X1139Y2306D01*
Y2306D01*
X1139Y2306D01*
X1139Y2306D01*
X1139Y2306D01*
X1139Y2305D01*
X1140Y2304D01*
X1140Y2304D01*
X1140Y2304D01*
X1140Y2304D01*
X1140Y2304D01*
X1141Y2303D01*
X1141Y2303D01*
X1141D01*
X1142Y2303D01*
X1142Y2303D01*
X1142Y2303D01*
X1143Y2303D01*
X1143Y2303D01*
X1143Y2303D01*
X1144D01*
X1145Y2303D01*
X1145Y2303D01*
X1146Y2303D01*
X1146Y2303D01*
X1147Y2303D01*
X1148Y2303D01*
X1148Y2304D01*
X1148Y2304D01*
X1148Y2304D01*
X1149Y2304D01*
X1149Y2304D01*
X1150Y2305D01*
X1150Y2305D01*
X1151Y2306D01*
X1153Y2303D01*
X1153Y2303D01*
X1153Y2303D01*
X1152Y2302D01*
X1152Y2302D01*
X1151Y2301D01*
X1151Y2301D01*
X1150Y2300D01*
X1149Y2300D01*
X1149D01*
X1149Y2300D01*
X1148Y2300D01*
X1148Y2300D01*
X1147Y2299D01*
X1146Y2299D01*
X1146Y2299D01*
X1145Y2299D01*
X1143Y2299D01*
X1143D01*
X1143Y2299D01*
X1142D01*
X1141Y2299D01*
X1141Y2299D01*
X1140Y2299D01*
X1139Y2299D01*
X1139Y2299D01*
X1139Y2300D01*
X1139Y2300D01*
X1138Y2300D01*
X1138Y2300D01*
X1137Y2300D01*
X1136Y2301D01*
X1136Y2301D01*
X1136Y2302D01*
X1136Y2302D01*
X1136Y2302D01*
X1135Y2303D01*
X1135Y2303D01*
X1135Y2304D01*
X1134Y2304D01*
X1134Y2304D01*
X1134Y2305D01*
X1134Y2305D01*
X1134Y2305D01*
X1134Y2306D01*
X1134Y2307D01*
X1134Y2307D01*
X1134Y2308D01*
Y2308D01*
Y2308D01*
Y2309D01*
X1134Y2309D01*
X1134Y2310D01*
X1134Y2310D01*
X1134Y2312D01*
Y2312D01*
X1134Y2312D01*
X1134Y2312D01*
X1135Y2313D01*
X1135Y2313D01*
X1135Y2314D01*
X1136Y2315D01*
X1136Y2315D01*
X1136Y2315D01*
X1136Y2315D01*
X1136Y2316D01*
X1137Y2316D01*
X1137Y2317D01*
X1138Y2317D01*
X1138Y2318D01*
X1138Y2318D01*
X1139Y2318D01*
X1139Y2319D01*
X1139Y2319D01*
X1140Y2320D01*
X1140Y2320D01*
X1141Y2321D01*
X1142Y2322D01*
X1148Y2327D01*
X1132D01*
Y2331D01*
X1153D01*
Y2328D01*
D02*
G37*
G36*
X1152Y2628D02*
X1144Y2620D01*
X1143Y2619D01*
X1143Y2619D01*
X1143Y2619D01*
X1142Y2618D01*
X1142Y2618D01*
X1141Y2617D01*
X1141Y2617D01*
X1140Y2616D01*
X1140Y2616D01*
X1140Y2616D01*
X1140Y2615D01*
X1140Y2615D01*
X1139Y2615D01*
X1139Y2614D01*
X1138Y2613D01*
X1138Y2613D01*
X1138Y2613D01*
X1138Y2613D01*
X1138Y2613D01*
X1138Y2612D01*
X1137Y2611D01*
Y2611D01*
X1137Y2611D01*
X1137Y2611D01*
X1137Y2610D01*
Y2610D01*
X1137Y2610D01*
X1137Y2609D01*
Y2609D01*
Y2609D01*
Y2608D01*
X1137Y2608D01*
X1137Y2607D01*
X1137Y2606D01*
Y2606D01*
X1137Y2606D01*
X1137Y2606D01*
X1138Y2606D01*
X1138Y2605D01*
X1138Y2605D01*
X1138Y2605D01*
X1138Y2604D01*
X1139Y2604D01*
X1139Y2604D01*
X1139Y2604D01*
X1140Y2603D01*
X1140D01*
X1140Y2603D01*
X1140Y2603D01*
X1141Y2603D01*
X1141Y2603D01*
X1142Y2603D01*
X1142Y2603D01*
X1143D01*
X1143Y2603D01*
X1144Y2603D01*
X1144Y2603D01*
X1145Y2603D01*
X1146Y2603D01*
X1146Y2604D01*
X1146Y2604D01*
X1147Y2604D01*
X1147Y2604D01*
X1147Y2604D01*
X1148Y2605D01*
X1148Y2605D01*
X1149Y2606D01*
X1149Y2606D01*
X1152Y2603D01*
X1152Y2603D01*
X1151Y2603D01*
X1151Y2603D01*
X1151Y2602D01*
X1150Y2602D01*
X1149Y2601D01*
X1148Y2601D01*
X1148Y2600D01*
X1148D01*
X1147Y2600D01*
X1147Y2600D01*
X1147Y2600D01*
X1146Y2600D01*
X1145Y2599D01*
X1144Y2599D01*
X1143Y2599D01*
X1142Y2599D01*
X1142D01*
X1141Y2599D01*
X1141D01*
X1140Y2599D01*
X1140Y2599D01*
X1139Y2599D01*
X1138Y2600D01*
X1138Y2600D01*
X1138Y2600D01*
X1138Y2600D01*
X1137Y2600D01*
X1137Y2600D01*
X1136Y2601D01*
X1135Y2602D01*
X1135Y2602D01*
X1135Y2602D01*
X1135Y2602D01*
X1134Y2602D01*
X1134Y2603D01*
X1134Y2603D01*
X1133Y2604D01*
X1133Y2604D01*
X1133Y2605D01*
X1133Y2605D01*
X1133Y2605D01*
X1133Y2606D01*
X1133Y2606D01*
X1133Y2607D01*
X1132Y2608D01*
X1132Y2608D01*
Y2608D01*
Y2609D01*
Y2609D01*
X1132Y2610D01*
X1133Y2610D01*
X1133Y2611D01*
X1133Y2612D01*
Y2612D01*
X1133Y2612D01*
X1133Y2612D01*
X1133Y2613D01*
X1133Y2613D01*
X1134Y2614D01*
X1134Y2615D01*
X1134Y2615D01*
X1135Y2615D01*
X1135Y2616D01*
X1135Y2616D01*
X1135Y2616D01*
X1136Y2617D01*
X1136Y2618D01*
X1137Y2618D01*
X1137Y2618D01*
X1137Y2618D01*
X1138Y2619D01*
X1138Y2619D01*
X1138Y2620D01*
X1139Y2620D01*
X1140Y2621D01*
X1140Y2622D01*
X1146Y2628D01*
X1131D01*
Y2632D01*
X1152D01*
Y2628D01*
D02*
G37*
G36*
X1151Y2929D02*
X1143D01*
Y2911D01*
X1150D01*
Y2908D01*
X1138D01*
Y2929D01*
X1131D01*
Y2932D01*
X1151D01*
Y2929D01*
D02*
G37*
G36*
X1116Y2132D02*
X1116D01*
X1117Y2132D01*
X1118Y2131D01*
X1119Y2131D01*
X1119Y2131D01*
X1119Y2131D01*
X1120Y2131D01*
X1120Y2131D01*
X1121Y2131D01*
X1121Y2130D01*
X1122Y2130D01*
X1122Y2130D01*
X1123Y2129D01*
X1123Y2129D01*
X1123Y2129D01*
X1123Y2129D01*
X1124Y2129D01*
X1124Y2128D01*
X1124Y2128D01*
X1124Y2127D01*
X1125Y2127D01*
Y2127D01*
X1125Y2127D01*
X1125Y2126D01*
X1125Y2126D01*
X1125Y2126D01*
X1125Y2125D01*
X1125Y2124D01*
X1125Y2124D01*
Y2124D01*
Y2124D01*
Y2123D01*
X1125Y2123D01*
X1125Y2123D01*
X1125Y2122D01*
X1125Y2121D01*
X1125Y2120D01*
X1124Y2119D01*
X1124Y2119D01*
X1124Y2119D01*
X1123Y2118D01*
X1123Y2118D01*
X1123Y2117D01*
X1122Y2117D01*
X1121Y2116D01*
X1120Y2115D01*
X1119Y2115D01*
X1119D01*
X1119Y2115D01*
X1119Y2115D01*
X1119Y2114D01*
X1120Y2114D01*
X1120Y2114D01*
X1121Y2113D01*
X1122Y2113D01*
X1123Y2112D01*
X1123Y2111D01*
X1123Y2111D01*
X1124Y2111D01*
X1124Y2110D01*
X1124Y2110D01*
X1124Y2109D01*
X1124Y2108D01*
X1125Y2108D01*
X1125Y2107D01*
Y2107D01*
Y2106D01*
X1125Y2106D01*
Y2106D01*
X1125Y2105D01*
X1124Y2105D01*
X1124Y2104D01*
X1124Y2104D01*
X1124Y2104D01*
X1124Y2103D01*
X1124Y2103D01*
X1124Y2103D01*
X1123Y2102D01*
X1123Y2102D01*
X1123Y2102D01*
X1122Y2101D01*
X1122Y2101D01*
X1122Y2101D01*
X1122Y2101D01*
X1121Y2100D01*
X1121Y2100D01*
X1120Y2100D01*
X1120Y2100D01*
X1119Y2099D01*
X1119Y2099D01*
X1119Y2099D01*
X1118Y2099D01*
X1118Y2099D01*
X1117Y2099D01*
X1116Y2099D01*
X1115Y2099D01*
X1114Y2099D01*
X1114D01*
X1113Y2099D01*
X1112Y2099D01*
X1111Y2099D01*
X1111Y2099D01*
X1110Y2099D01*
X1110D01*
X1110Y2099D01*
X1109Y2099D01*
X1109Y2100D01*
X1108Y2100D01*
X1108Y2100D01*
X1107Y2100D01*
X1107Y2101D01*
X1107Y2101D01*
X1107Y2101D01*
X1106Y2101D01*
X1106Y2101D01*
X1106Y2102D01*
X1106Y2102D01*
X1105Y2103D01*
X1105Y2103D01*
X1105Y2103D01*
X1105Y2103D01*
X1105Y2104D01*
X1105Y2104D01*
X1105Y2104D01*
X1104Y2105D01*
X1104Y2106D01*
Y2106D01*
Y2106D01*
Y2106D01*
Y2106D01*
Y2107D01*
X1104Y2107D01*
X1105Y2108D01*
X1105Y2109D01*
X1105Y2109D01*
X1105Y2110D01*
X1106Y2111D01*
X1106Y2111D01*
X1106Y2111D01*
X1107Y2112D01*
X1107Y2112D01*
X1108Y2113D01*
X1108Y2113D01*
X1109Y2114D01*
X1110Y2114D01*
X1110Y2114D01*
X1110Y2115D01*
X1110Y2115D01*
X1109Y2115D01*
X1109Y2115D01*
X1109Y2115D01*
X1108Y2116D01*
X1108Y2116D01*
X1107Y2116D01*
X1107Y2116D01*
X1107Y2117D01*
X1106Y2117D01*
X1106Y2118D01*
X1105Y2118D01*
X1105Y2118D01*
X1105Y2118D01*
X1105Y2119D01*
X1105Y2119D01*
X1105Y2119D01*
X1104Y2120D01*
Y2120D01*
X1104Y2120D01*
X1104Y2121D01*
X1104Y2121D01*
X1104Y2122D01*
X1104Y2122D01*
X1104Y2123D01*
Y2123D01*
Y2123D01*
X1104Y2124D01*
X1104Y2124D01*
X1104Y2125D01*
X1104Y2126D01*
X1104Y2126D01*
X1104Y2127D01*
X1105Y2127D01*
X1105Y2127D01*
X1105Y2127D01*
X1105Y2128D01*
X1105Y2128D01*
X1106Y2129D01*
X1106Y2129D01*
X1107Y2129D01*
X1107Y2130D01*
X1107Y2130D01*
X1107Y2130D01*
X1108Y2130D01*
X1108Y2130D01*
X1109Y2131D01*
X1110Y2131D01*
X1110Y2131D01*
X1110D01*
X1111Y2131D01*
X1111Y2131D01*
X1112Y2131D01*
X1112Y2131D01*
X1113Y2132D01*
X1114Y2132D01*
X1115D01*
X1116Y2132D01*
D02*
G37*
G36*
X1152Y2127D02*
X1143D01*
Y2104D01*
X1151Y2108D01*
X1153Y2104D01*
X1143Y2099D01*
X1139D01*
Y2127D01*
X1132D01*
Y2131D01*
X1152D01*
Y2127D01*
D02*
G37*
G36*
X1152Y2028D02*
X1143D01*
Y2004D01*
X1151Y2008D01*
X1152Y2005D01*
X1142Y1999D01*
X1139D01*
Y2028D01*
X1131D01*
Y2032D01*
X1152D01*
Y2028D01*
D02*
G37*
G36*
X1113Y1724D02*
X1129D01*
Y1720D01*
X1115Y1699D01*
X1109D01*
Y1720D01*
X1104D01*
Y1724D01*
X1109D01*
Y1731D01*
X1113D01*
Y1724D01*
D02*
G37*
G36*
X1151Y1627D02*
X1143D01*
Y1603D01*
X1151Y1608D01*
X1152Y1604D01*
X1142Y1599D01*
X1138D01*
Y1627D01*
X1131D01*
Y1631D01*
X1151D01*
Y1627D01*
D02*
G37*
G36*
X1119Y1631D02*
X1120D01*
X1121Y1631D01*
X1121D01*
X1121Y1631D01*
X1122D01*
X1122Y1631D01*
X1123Y1631D01*
X1124Y1631D01*
Y1627D01*
X1124D01*
X1123Y1627D01*
X1123Y1627D01*
X1123Y1627D01*
X1122Y1627D01*
X1122Y1627D01*
X1121Y1627D01*
X1120D01*
X1120Y1628D01*
X1119D01*
X1118Y1628D01*
X1116D01*
X1116Y1628D01*
X1115Y1627D01*
X1114Y1627D01*
X1114Y1627D01*
X1113Y1627D01*
X1113D01*
X1113Y1627D01*
X1112Y1627D01*
X1112Y1627D01*
X1111Y1626D01*
X1111Y1626D01*
X1110Y1626D01*
X1110Y1626D01*
X1110Y1626D01*
X1110Y1626D01*
X1110Y1625D01*
X1109Y1625D01*
X1109Y1624D01*
X1109Y1624D01*
Y1624D01*
X1108Y1624D01*
X1108Y1624D01*
X1108Y1623D01*
X1108Y1623D01*
X1108Y1622D01*
X1108Y1621D01*
Y1621D01*
Y1621D01*
X1108Y1621D01*
Y1621D01*
X1108Y1620D01*
X1108Y1619D01*
X1109Y1619D01*
Y1619D01*
X1109Y1619D01*
X1109Y1619D01*
X1109Y1618D01*
X1110Y1618D01*
X1110Y1617D01*
X1110Y1617D01*
X1111Y1617D01*
X1111Y1617D01*
X1111Y1617D01*
X1111Y1617D01*
X1112Y1617D01*
X1112Y1617D01*
X1113Y1616D01*
X1113D01*
X1113Y1616D01*
X1113Y1616D01*
X1114Y1616D01*
X1114Y1616D01*
X1115Y1616D01*
X1116Y1616D01*
X1120D01*
Y1613D01*
X1116D01*
X1115Y1612D01*
X1115Y1612D01*
X1114Y1612D01*
X1113Y1612D01*
X1113D01*
X1113Y1612D01*
X1113Y1612D01*
X1113Y1612D01*
X1112Y1612D01*
X1111Y1611D01*
X1111Y1611D01*
X1111Y1611D01*
X1111Y1611D01*
X1111Y1611D01*
X1110Y1610D01*
X1110Y1609D01*
Y1609D01*
X1110Y1609D01*
X1110Y1609D01*
X1110Y1609D01*
X1110Y1608D01*
X1110Y1608D01*
X1110Y1607D01*
Y1607D01*
Y1607D01*
Y1606D01*
X1110Y1606D01*
X1110Y1606D01*
X1110Y1605D01*
X1110Y1604D01*
X1111Y1604D01*
X1111Y1603D01*
X1111Y1603D01*
X1111Y1603D01*
X1112Y1603D01*
X1112Y1603D01*
X1113Y1602D01*
X1114Y1602D01*
X1115Y1602D01*
X1116Y1602D01*
X1116D01*
X1117Y1602D01*
X1117D01*
X1118Y1602D01*
X1119Y1602D01*
X1119D01*
X1119Y1602D01*
X1120Y1602D01*
X1120Y1603D01*
X1121Y1603D01*
X1121Y1603D01*
X1122Y1603D01*
X1123Y1603D01*
Y1600D01*
X1123D01*
X1123Y1599D01*
X1123Y1599D01*
X1122Y1599D01*
X1122Y1599D01*
X1121Y1599D01*
X1121D01*
X1121Y1599D01*
X1121D01*
X1121Y1599D01*
X1120Y1599D01*
X1119Y1599D01*
X1119D01*
X1119Y1599D01*
X1119D01*
X1119Y1599D01*
X1118Y1598D01*
X1117Y1598D01*
X1117D01*
X1117Y1598D01*
X1117D01*
X1116Y1598D01*
X1115D01*
X1115Y1598D01*
X1114D01*
X1113Y1598D01*
X1113Y1599D01*
X1112Y1599D01*
X1111Y1599D01*
X1111D01*
X1111Y1599D01*
X1110Y1599D01*
X1110Y1599D01*
X1109Y1599D01*
X1109Y1600D01*
X1108Y1600D01*
X1108Y1600D01*
X1108Y1600D01*
X1108Y1601D01*
X1107Y1601D01*
X1107Y1601D01*
X1107Y1602D01*
X1106Y1602D01*
X1106Y1602D01*
X1106Y1603D01*
X1106Y1603D01*
X1106Y1603D01*
X1106Y1603D01*
X1105Y1604D01*
X1105Y1604D01*
X1105Y1605D01*
X1105Y1606D01*
X1105Y1606D01*
Y1606D01*
Y1606D01*
Y1607D01*
X1105Y1607D01*
X1105Y1608D01*
X1105Y1609D01*
X1106Y1609D01*
X1106Y1610D01*
X1107Y1611D01*
X1107Y1611D01*
X1107Y1611D01*
X1107Y1612D01*
X1108Y1612D01*
X1108Y1612D01*
X1109Y1613D01*
X1110Y1613D01*
X1110Y1614D01*
X1110D01*
X1110Y1614D01*
X1110Y1614D01*
X1110Y1614D01*
X1109Y1614D01*
X1109Y1614D01*
X1108Y1615D01*
X1108D01*
X1108Y1615D01*
X1108Y1615D01*
X1107Y1615D01*
X1107Y1616D01*
X1106Y1616D01*
X1106Y1616D01*
X1106Y1616D01*
X1105Y1617D01*
X1105Y1617D01*
X1105Y1617D01*
X1105Y1617D01*
X1104Y1618D01*
X1104Y1618D01*
X1104Y1619D01*
X1104Y1619D01*
X1104Y1619D01*
X1104Y1620D01*
X1104Y1620D01*
X1104Y1621D01*
Y1621D01*
Y1621D01*
Y1622D01*
X1104Y1622D01*
X1104Y1622D01*
X1104Y1623D01*
X1104Y1624D01*
X1104Y1624D01*
X1104Y1625D01*
X1105Y1625D01*
X1105Y1625D01*
X1105Y1626D01*
X1105Y1626D01*
X1105Y1627D01*
X1106Y1627D01*
X1106Y1628D01*
X1107Y1628D01*
X1107Y1628D01*
X1107Y1629D01*
X1108Y1629D01*
X1108Y1629D01*
X1109Y1629D01*
X1110Y1630D01*
X1110Y1630D01*
X1111Y1631D01*
X1111D01*
X1111Y1631D01*
X1112D01*
X1112Y1631D01*
X1112Y1631D01*
X1113Y1631D01*
X1114Y1631D01*
X1115Y1631D01*
X1116Y1631D01*
X1117Y1631D01*
X1119D01*
X1119Y1631D01*
D02*
G37*
G36*
X1153Y1727D02*
X1145D01*
Y1704D01*
X1153Y1708D01*
X1154Y1704D01*
X1144Y1699D01*
X1140D01*
Y1727D01*
X1133D01*
Y1731D01*
X1153D01*
Y1727D01*
D02*
G37*
G36*
X1124Y2428D02*
X1115D01*
Y2404D01*
X1123Y2409D01*
X1125Y2405D01*
X1115Y2400D01*
X1111D01*
Y2428D01*
X1104D01*
Y2432D01*
X1124D01*
Y2428D01*
D02*
G37*
G36*
X1142Y2904D02*
X1142Y2904D01*
X1143Y2904D01*
X1143Y2904D01*
X1143Y2904D01*
X1143Y2903D01*
X1144Y2903D01*
X1144Y2903D01*
X1144Y2903D01*
X1144Y2902D01*
X1144Y2902D01*
Y2902D01*
X1144Y2902D01*
X1144Y2902D01*
X1145Y2901D01*
X1145Y2901D01*
Y2901D01*
Y2901D01*
X1145Y2900D01*
X1144Y2900D01*
X1144Y2899D01*
Y2899D01*
X1144Y2899D01*
X1144Y2899D01*
X1144Y2899D01*
X1144Y2898D01*
X1144Y2898D01*
X1143Y2898D01*
X1143Y2898D01*
X1143Y2898D01*
X1143D01*
X1142Y2897D01*
X1142Y2897D01*
X1142Y2897D01*
X1141Y2897D01*
X1141D01*
X1141Y2897D01*
X1140Y2897D01*
X1140Y2898D01*
X1140D01*
X1140Y2898D01*
X1140Y2898D01*
X1139Y2898D01*
X1139Y2898D01*
X1139Y2898D01*
X1139Y2899D01*
X1138Y2899D01*
X1138Y2899D01*
X1138Y2899D01*
X1138Y2900D01*
X1138Y2900D01*
X1138Y2901D01*
Y2901D01*
Y2901D01*
X1138Y2901D01*
X1138Y2902D01*
X1138Y2902D01*
X1138Y2902D01*
X1138Y2902D01*
X1139Y2903D01*
X1139Y2903D01*
X1139Y2903D01*
X1139Y2903D01*
X1140Y2904D01*
X1140Y2904D01*
X1140Y2904D01*
X1140Y2904D01*
X1141Y2904D01*
X1141Y2904D01*
X1141D01*
X1142Y2904D01*
D02*
G37*
G36*
X1183Y2900D02*
X1178D01*
X1171Y2922D01*
X1169Y2928D01*
X1167Y2922D01*
X1160Y2900D01*
X1155D01*
X1166Y2932D01*
X1172D01*
X1183Y2900D01*
D02*
G37*
G36*
X1152Y2428D02*
X1144Y2420D01*
X1144Y2420D01*
X1144Y2419D01*
X1143Y2419D01*
X1143Y2419D01*
X1142Y2418D01*
X1142Y2417D01*
X1141Y2417D01*
X1141Y2416D01*
X1141Y2416D01*
X1140Y2416D01*
X1140Y2416D01*
X1140Y2415D01*
X1140Y2415D01*
X1139Y2415D01*
X1139Y2414D01*
X1139Y2414D01*
X1139Y2413D01*
X1138Y2413D01*
X1138Y2413D01*
X1138Y2412D01*
X1138Y2411D01*
Y2411D01*
X1138Y2411D01*
X1138Y2411D01*
X1137Y2411D01*
Y2410D01*
X1137Y2410D01*
X1137Y2409D01*
Y2409D01*
Y2409D01*
Y2409D01*
X1137Y2408D01*
X1137Y2408D01*
X1138Y2407D01*
Y2407D01*
X1138Y2407D01*
X1138Y2406D01*
X1138Y2406D01*
X1138Y2406D01*
X1139Y2405D01*
X1139Y2405D01*
X1139Y2405D01*
X1139Y2405D01*
X1139Y2404D01*
X1140Y2404D01*
X1140Y2404D01*
X1140D01*
X1141Y2403D01*
X1141Y2403D01*
X1141Y2403D01*
X1142Y2403D01*
X1142Y2403D01*
X1142Y2403D01*
X1143D01*
X1144Y2403D01*
X1144Y2403D01*
X1145Y2403D01*
X1145Y2403D01*
X1146Y2404D01*
X1147Y2404D01*
X1147Y2404D01*
X1147Y2404D01*
X1147Y2404D01*
X1148Y2405D01*
X1148Y2405D01*
X1149Y2405D01*
X1149Y2406D01*
X1150Y2406D01*
X1152Y2404D01*
X1152Y2403D01*
X1152Y2403D01*
X1151Y2403D01*
X1151Y2402D01*
X1150Y2402D01*
X1150Y2401D01*
X1149Y2401D01*
X1148Y2400D01*
X1148D01*
X1148Y2400D01*
X1147Y2400D01*
X1147Y2400D01*
X1146Y2400D01*
X1146Y2400D01*
X1145Y2399D01*
X1144Y2399D01*
X1142Y2399D01*
X1142D01*
X1142Y2399D01*
X1141D01*
X1140Y2399D01*
X1140Y2400D01*
X1139Y2400D01*
X1138Y2400D01*
X1138Y2400D01*
X1138Y2400D01*
X1138Y2400D01*
X1137Y2400D01*
X1137Y2401D01*
X1136Y2401D01*
X1135Y2402D01*
X1135Y2402D01*
X1135Y2402D01*
X1135Y2402D01*
X1135Y2403D01*
X1134Y2403D01*
X1134Y2404D01*
X1134Y2404D01*
X1133Y2405D01*
X1133Y2405D01*
X1133Y2405D01*
X1133Y2405D01*
X1133Y2406D01*
X1133Y2406D01*
X1133Y2407D01*
X1133Y2408D01*
X1133Y2409D01*
Y2409D01*
Y2409D01*
Y2409D01*
X1133Y2410D01*
X1133Y2410D01*
X1133Y2411D01*
X1133Y2412D01*
Y2412D01*
X1133Y2412D01*
X1133Y2413D01*
X1134Y2413D01*
X1134Y2414D01*
X1134Y2414D01*
X1135Y2415D01*
X1135Y2415D01*
X1135Y2416D01*
X1135Y2416D01*
X1135Y2416D01*
X1136Y2417D01*
X1136Y2417D01*
X1137Y2418D01*
X1137Y2419D01*
X1137Y2419D01*
X1138Y2419D01*
X1138Y2419D01*
X1138Y2420D01*
X1139Y2420D01*
X1139Y2421D01*
X1140Y2421D01*
X1141Y2422D01*
X1147Y2428D01*
X1131D01*
Y2432D01*
X1152D01*
Y2428D01*
D02*
G37*
G36*
X1108Y2003D02*
X1125D01*
Y1999D01*
X1104D01*
Y2003D01*
X1117Y2032D01*
X1122D01*
X1108Y2003D01*
D02*
G37*
G36*
X1125Y2528D02*
X1117Y2520D01*
X1116Y2520D01*
X1116Y2520D01*
X1116Y2519D01*
X1115Y2519D01*
X1115Y2518D01*
X1114Y2518D01*
X1114Y2517D01*
X1113Y2516D01*
X1113Y2516D01*
X1113Y2516D01*
X1113Y2516D01*
X1112Y2516D01*
X1112Y2515D01*
X1112Y2515D01*
X1111Y2514D01*
X1111Y2514D01*
X1111Y2514D01*
X1111Y2513D01*
X1111Y2513D01*
X1110Y2512D01*
X1110Y2511D01*
Y2511D01*
X1110Y2511D01*
X1110Y2511D01*
X1110Y2511D01*
Y2510D01*
X1110Y2510D01*
X1110Y2509D01*
Y2509D01*
Y2509D01*
Y2509D01*
X1110Y2508D01*
X1110Y2508D01*
X1110Y2507D01*
Y2507D01*
X1110Y2507D01*
X1110Y2506D01*
X1111Y2506D01*
X1111Y2506D01*
X1111Y2505D01*
X1111Y2505D01*
X1111Y2505D01*
X1112Y2505D01*
X1112Y2504D01*
X1112Y2504D01*
X1113Y2504D01*
X1113D01*
X1113Y2504D01*
X1113Y2503D01*
X1114Y2503D01*
X1114Y2503D01*
X1114Y2503D01*
X1115Y2503D01*
X1116D01*
X1116Y2503D01*
X1117Y2503D01*
X1117Y2503D01*
X1118Y2504D01*
X1119Y2504D01*
X1119Y2504D01*
X1119Y2504D01*
X1120Y2504D01*
X1120Y2504D01*
X1120Y2505D01*
X1121Y2505D01*
X1121Y2505D01*
X1122Y2506D01*
X1122Y2506D01*
X1125Y2504D01*
X1125Y2504D01*
X1124Y2503D01*
X1124Y2503D01*
X1123Y2503D01*
X1123Y2502D01*
X1122Y2502D01*
X1121Y2501D01*
X1121Y2501D01*
X1120D01*
X1120Y2501D01*
X1120Y2500D01*
X1120Y2500D01*
X1119Y2500D01*
X1118Y2500D01*
X1117Y2500D01*
X1116Y2499D01*
X1115Y2499D01*
X1115D01*
X1114Y2499D01*
X1114D01*
X1113Y2500D01*
X1112Y2500D01*
X1112Y2500D01*
X1111Y2500D01*
X1111Y2500D01*
X1111Y2500D01*
X1110Y2500D01*
X1110Y2501D01*
X1110Y2501D01*
X1109Y2501D01*
X1108Y2502D01*
X1108Y2502D01*
X1108Y2502D01*
X1108Y2502D01*
X1107Y2503D01*
X1107Y2503D01*
X1107Y2504D01*
X1106Y2504D01*
X1106Y2505D01*
X1106Y2505D01*
X1106Y2505D01*
X1106Y2505D01*
X1106Y2506D01*
X1106Y2507D01*
X1105Y2507D01*
X1105Y2508D01*
X1105Y2509D01*
Y2509D01*
Y2509D01*
Y2509D01*
X1105Y2510D01*
X1105Y2510D01*
X1106Y2511D01*
X1106Y2512D01*
Y2512D01*
X1106Y2512D01*
X1106Y2513D01*
X1106Y2513D01*
X1106Y2514D01*
X1107Y2514D01*
X1107Y2515D01*
X1107Y2515D01*
X1108Y2516D01*
X1108Y2516D01*
X1108Y2516D01*
X1108Y2517D01*
X1109Y2517D01*
X1109Y2518D01*
X1110Y2519D01*
X1110Y2519D01*
X1110Y2519D01*
X1110Y2519D01*
X1111Y2520D01*
X1111Y2520D01*
X1112Y2521D01*
X1113Y2521D01*
X1113Y2522D01*
X1119Y2528D01*
X1104D01*
Y2532D01*
X1125D01*
Y2528D01*
D02*
G37*
G36*
X1152D02*
X1144Y2520D01*
X1144Y2520D01*
X1144Y2520D01*
X1143Y2519D01*
X1143Y2519D01*
X1142Y2518D01*
X1142Y2518D01*
X1141Y2517D01*
X1141Y2516D01*
X1141Y2516D01*
X1141Y2516D01*
X1140Y2516D01*
X1140Y2516D01*
X1140Y2515D01*
X1140Y2515D01*
X1139Y2514D01*
X1139Y2514D01*
X1139Y2514D01*
X1139Y2513D01*
X1138Y2513D01*
X1138Y2512D01*
X1138Y2511D01*
Y2511D01*
X1138Y2511D01*
X1138Y2511D01*
X1138Y2511D01*
Y2510D01*
X1138Y2510D01*
X1138Y2509D01*
Y2509D01*
Y2509D01*
Y2509D01*
X1138Y2508D01*
X1138Y2508D01*
X1138Y2507D01*
Y2507D01*
X1138Y2507D01*
X1138Y2506D01*
X1138Y2506D01*
X1139Y2506D01*
X1139Y2505D01*
X1139Y2505D01*
X1139Y2505D01*
X1139Y2505D01*
X1139Y2504D01*
X1140Y2504D01*
X1141Y2504D01*
X1141D01*
X1141Y2504D01*
X1141Y2503D01*
X1141Y2503D01*
X1142Y2503D01*
X1142Y2503D01*
X1143Y2503D01*
X1144D01*
X1144Y2503D01*
X1144Y2503D01*
X1145Y2503D01*
X1146Y2504D01*
X1146Y2504D01*
X1147Y2504D01*
X1147Y2504D01*
X1147Y2504D01*
X1148Y2504D01*
X1148Y2505D01*
X1148Y2505D01*
X1149Y2505D01*
X1149Y2506D01*
X1150Y2506D01*
X1152Y2504D01*
X1152Y2504D01*
X1152Y2503D01*
X1152Y2503D01*
X1151Y2503D01*
X1151Y2502D01*
X1150Y2502D01*
X1149Y2501D01*
X1148Y2501D01*
X1148D01*
X1148Y2501D01*
X1148Y2500D01*
X1147Y2500D01*
X1147Y2500D01*
X1146Y2500D01*
X1145Y2500D01*
X1144Y2499D01*
X1143Y2499D01*
X1142D01*
X1142Y2499D01*
X1141D01*
X1141Y2500D01*
X1140Y2500D01*
X1139Y2500D01*
X1139Y2500D01*
X1139Y2500D01*
X1138Y2500D01*
X1138Y2500D01*
X1138Y2501D01*
X1137Y2501D01*
X1137Y2501D01*
X1136Y2502D01*
X1136Y2502D01*
X1136Y2502D01*
X1135Y2502D01*
X1135Y2503D01*
X1135Y2503D01*
X1134Y2504D01*
X1134Y2504D01*
X1134Y2505D01*
X1134Y2505D01*
X1134Y2505D01*
X1133Y2505D01*
X1133Y2506D01*
X1133Y2507D01*
X1133Y2507D01*
X1133Y2508D01*
X1133Y2509D01*
Y2509D01*
Y2509D01*
Y2509D01*
X1133Y2510D01*
X1133Y2510D01*
X1133Y2511D01*
X1133Y2512D01*
Y2512D01*
X1134Y2512D01*
X1134Y2513D01*
X1134Y2513D01*
X1134Y2514D01*
X1134Y2514D01*
X1135Y2515D01*
X1135Y2515D01*
X1135Y2516D01*
X1135Y2516D01*
X1136Y2516D01*
X1136Y2517D01*
X1136Y2517D01*
X1137Y2518D01*
X1138Y2519D01*
X1138Y2519D01*
X1138Y2519D01*
X1138Y2519D01*
X1139Y2520D01*
X1139Y2520D01*
X1140Y2521D01*
X1140Y2521D01*
X1141Y2522D01*
X1147Y2528D01*
X1131D01*
Y2532D01*
X1152D01*
Y2528D01*
D02*
G37*
G36*
X1204Y2732D02*
X1204D01*
X1206Y2732D01*
X1206D01*
X1206Y2732D01*
X1207D01*
X1207Y2732D01*
X1207Y2732D01*
X1208Y2732D01*
Y2728D01*
X1208D01*
X1208Y2728D01*
X1208Y2728D01*
X1208Y2728D01*
X1207Y2728D01*
X1206Y2728D01*
X1205Y2728D01*
X1205D01*
X1205Y2728D01*
X1204D01*
X1203Y2728D01*
X1201D01*
X1200Y2728D01*
X1200Y2728D01*
X1199Y2728D01*
X1198Y2728D01*
X1198Y2728D01*
X1198D01*
X1197Y2728D01*
X1197Y2728D01*
X1197Y2728D01*
X1196Y2727D01*
X1195Y2727D01*
X1195Y2727D01*
X1195Y2727D01*
X1195Y2727D01*
X1195Y2726D01*
X1194Y2726D01*
X1194Y2726D01*
X1194Y2725D01*
X1193Y2725D01*
Y2725D01*
X1193Y2725D01*
X1193Y2724D01*
X1193Y2724D01*
X1193Y2724D01*
X1193Y2723D01*
X1193Y2722D01*
Y2722D01*
Y2722D01*
X1193Y2722D01*
Y2721D01*
X1193Y2721D01*
X1193Y2720D01*
X1193Y2720D01*
Y2720D01*
X1194Y2720D01*
X1194Y2720D01*
X1194Y2719D01*
X1194Y2719D01*
X1195Y2718D01*
X1195Y2718D01*
X1195Y2718D01*
X1195Y2718D01*
X1196Y2718D01*
X1196Y2718D01*
X1197Y2718D01*
X1197Y2717D01*
X1198Y2717D01*
X1198D01*
X1198Y2717D01*
X1198Y2717D01*
X1199Y2717D01*
X1199Y2717D01*
X1200Y2717D01*
X1201Y2717D01*
X1205D01*
Y2713D01*
X1200D01*
X1200Y2713D01*
X1200Y2713D01*
X1199Y2713D01*
X1198Y2713D01*
X1198D01*
X1198Y2713D01*
X1198Y2713D01*
X1197Y2713D01*
X1197Y2712D01*
X1196Y2712D01*
X1196Y2712D01*
X1196Y2712D01*
X1196Y2712D01*
X1196Y2711D01*
X1195Y2711D01*
X1195Y2710D01*
Y2710D01*
X1195Y2710D01*
X1195Y2710D01*
X1195Y2709D01*
X1194Y2709D01*
X1194Y2709D01*
X1194Y2708D01*
Y2708D01*
Y2708D01*
Y2707D01*
X1194Y2707D01*
X1195Y2706D01*
X1195Y2706D01*
X1195Y2705D01*
X1195Y2704D01*
X1196Y2704D01*
X1196Y2704D01*
X1196Y2704D01*
X1197Y2704D01*
X1197Y2703D01*
X1198Y2703D01*
X1199Y2703D01*
X1199Y2703D01*
X1201Y2703D01*
X1201D01*
X1202Y2703D01*
X1202D01*
X1203Y2703D01*
X1204Y2703D01*
X1204D01*
X1204Y2703D01*
X1205Y2703D01*
X1205Y2703D01*
X1206Y2704D01*
X1206Y2704D01*
X1207Y2704D01*
X1208Y2704D01*
Y2700D01*
X1208D01*
X1207Y2700D01*
X1207Y2700D01*
X1207Y2700D01*
X1206Y2700D01*
X1206Y2700D01*
X1206D01*
X1206Y2700D01*
X1205D01*
X1205Y2700D01*
X1205Y2700D01*
X1204Y2699D01*
X1204D01*
X1204Y2699D01*
X1204D01*
X1203Y2699D01*
X1203Y2699D01*
X1202Y2699D01*
X1202D01*
X1202Y2699D01*
X1201D01*
X1201Y2699D01*
X1200D01*
X1199Y2699D01*
X1199D01*
X1198Y2699D01*
X1197Y2699D01*
X1197Y2699D01*
X1196Y2700D01*
X1196D01*
X1195Y2700D01*
X1195Y2700D01*
X1195Y2700D01*
X1194Y2700D01*
X1194Y2701D01*
X1193Y2701D01*
X1193Y2701D01*
X1192Y2701D01*
X1192Y2701D01*
X1192Y2702D01*
X1192Y2702D01*
X1191Y2702D01*
X1191Y2703D01*
X1191Y2703D01*
X1191Y2704D01*
X1190Y2704D01*
X1190Y2704D01*
X1190Y2704D01*
X1190Y2705D01*
X1190Y2705D01*
X1190Y2706D01*
X1190Y2706D01*
X1190Y2707D01*
Y2707D01*
Y2707D01*
Y2708D01*
X1190Y2708D01*
X1190Y2709D01*
X1190Y2709D01*
X1190Y2710D01*
X1191Y2711D01*
X1191Y2712D01*
X1191Y2712D01*
X1192Y2712D01*
X1192Y2712D01*
X1192Y2713D01*
X1193Y2713D01*
X1194Y2714D01*
X1194Y2714D01*
X1195Y2715D01*
X1195D01*
X1195Y2715D01*
X1195Y2715D01*
X1194Y2715D01*
X1194Y2715D01*
X1194Y2715D01*
X1193Y2716D01*
X1193D01*
X1193Y2716D01*
X1192Y2716D01*
X1192Y2716D01*
X1191Y2716D01*
X1191Y2717D01*
X1190Y2717D01*
X1190Y2717D01*
X1190Y2717D01*
X1190Y2718D01*
X1190Y2718D01*
X1189Y2718D01*
X1189Y2719D01*
X1189Y2719D01*
X1189Y2719D01*
X1189Y2720D01*
X1189Y2720D01*
X1189Y2720D01*
X1188Y2721D01*
X1188Y2721D01*
Y2722D01*
Y2722D01*
Y2722D01*
X1188Y2723D01*
X1188Y2723D01*
X1189Y2724D01*
X1189Y2725D01*
X1189Y2725D01*
X1189Y2726D01*
X1189Y2726D01*
X1189Y2726D01*
X1190Y2727D01*
X1190Y2727D01*
X1190Y2728D01*
X1191Y2728D01*
X1191Y2729D01*
X1192Y2729D01*
X1192Y2729D01*
X1192Y2729D01*
X1192Y2730D01*
X1193Y2730D01*
X1194Y2730D01*
X1194Y2731D01*
X1195Y2731D01*
X1196Y2731D01*
X1196D01*
X1196Y2731D01*
X1196D01*
X1197Y2731D01*
X1197Y2732D01*
X1198Y2732D01*
X1199Y2732D01*
X1200Y2732D01*
X1201Y2732D01*
X1202Y2732D01*
X1203D01*
X1204Y2732D01*
D02*
G37*
G36*
X1544Y2897D02*
X1535D01*
X1534Y2897D01*
X1534Y2897D01*
X1533Y2897D01*
X1532Y2897D01*
X1531Y2898D01*
X1531Y2898D01*
X1530Y2898D01*
X1529Y2898D01*
X1528Y2899D01*
X1527Y2899D01*
X1526Y2900D01*
X1525Y2900D01*
X1524Y2901D01*
X1524Y2901D01*
X1524Y2901D01*
X1524Y2901D01*
X1524Y2902D01*
X1524Y2902D01*
X1523Y2903D01*
X1523Y2903D01*
X1523Y2904D01*
X1522Y2905D01*
X1522Y2905D01*
X1522Y2906D01*
X1521Y2908D01*
X1521Y2909D01*
X1521Y2910D01*
X1521Y2911D01*
X1521Y2913D01*
Y2913D01*
Y2913D01*
Y2914D01*
X1521Y2914D01*
X1521Y2915D01*
X1521Y2916D01*
X1521Y2917D01*
Y2917D01*
X1521Y2918D01*
X1521Y2918D01*
X1521Y2918D01*
X1522Y2919D01*
X1522Y2920D01*
X1522Y2921D01*
X1522Y2921D01*
X1522Y2921D01*
X1523Y2922D01*
X1523Y2922D01*
X1523Y2923D01*
X1523Y2923D01*
X1524Y2924D01*
X1524Y2924D01*
X1525Y2925D01*
X1525Y2925D01*
X1525Y2925D01*
X1526Y2926D01*
X1526Y2926D01*
X1527Y2927D01*
X1527Y2927D01*
X1528Y2927D01*
X1528Y2927D01*
X1528Y2927D01*
X1529Y2928D01*
X1529Y2928D01*
X1530Y2928D01*
X1531Y2928D01*
X1532Y2929D01*
X1532D01*
X1532Y2929D01*
X1533Y2929D01*
X1533Y2929D01*
X1534Y2929D01*
X1535Y2929D01*
X1536Y2929D01*
X1544D01*
Y2897D01*
D02*
G37*
G36*
X1587Y2930D02*
X1588Y2929D01*
X1589Y2929D01*
X1590Y2929D01*
X1591Y2929D01*
X1592Y2929D01*
X1592D01*
X1592Y2929D01*
X1593Y2928D01*
X1593Y2928D01*
X1594Y2928D01*
X1594Y2927D01*
X1595Y2927D01*
X1596Y2926D01*
X1597Y2926D01*
X1597Y2925D01*
X1597Y2925D01*
X1597Y2925D01*
X1598Y2924D01*
X1598Y2923D01*
X1599Y2923D01*
X1599Y2922D01*
X1599Y2920D01*
Y2920D01*
X1599Y2920D01*
X1600Y2920D01*
X1600Y2920D01*
X1600Y2920D01*
X1600Y2919D01*
X1600Y2918D01*
X1600Y2917D01*
X1600Y2916D01*
X1600Y2915D01*
X1600Y2913D01*
Y2913D01*
Y2913D01*
Y2913D01*
Y2913D01*
X1600Y2912D01*
Y2912D01*
X1600Y2911D01*
X1600Y2910D01*
X1600Y2909D01*
X1600Y2908D01*
X1599Y2906D01*
Y2906D01*
X1599Y2906D01*
X1599Y2906D01*
X1599Y2906D01*
X1599Y2905D01*
X1598Y2905D01*
X1598Y2904D01*
X1598Y2903D01*
X1597Y2902D01*
X1596Y2901D01*
X1596Y2901D01*
X1596Y2901D01*
X1595Y2900D01*
X1595Y2900D01*
X1594Y2899D01*
X1593Y2899D01*
X1592Y2898D01*
X1591Y2898D01*
X1591D01*
X1591Y2898D01*
X1591Y2898D01*
X1591Y2898D01*
X1590Y2897D01*
X1590Y2897D01*
X1589Y2897D01*
X1588Y2897D01*
X1586Y2897D01*
X1585Y2897D01*
X1584D01*
X1584Y2897D01*
X1583Y2897D01*
X1583Y2897D01*
X1581Y2897D01*
X1581D01*
X1581Y2897D01*
X1580Y2897D01*
X1580Y2897D01*
X1579Y2897D01*
X1579Y2898D01*
X1577Y2898D01*
Y2902D01*
X1577Y2902D01*
X1578Y2902D01*
X1578Y2902D01*
X1578Y2902D01*
X1579Y2902D01*
X1580Y2901D01*
X1581Y2901D01*
X1581D01*
X1581Y2901D01*
X1582Y2901D01*
X1582Y2901D01*
X1583Y2901D01*
X1584Y2901D01*
X1584Y2900D01*
X1586D01*
X1586Y2901D01*
X1587Y2901D01*
X1587Y2901D01*
X1588Y2901D01*
X1589Y2901D01*
X1590Y2901D01*
X1590Y2901D01*
X1590Y2902D01*
X1590Y2902D01*
X1591Y2902D01*
X1591Y2902D01*
X1592Y2903D01*
X1592Y2903D01*
X1593Y2904D01*
X1593Y2904D01*
X1593Y2904D01*
X1594Y2905D01*
X1594Y2905D01*
X1594Y2906D01*
X1594Y2906D01*
X1595Y2907D01*
X1595Y2908D01*
X1595Y2908D01*
X1595Y2908D01*
X1595Y2909D01*
X1595Y2909D01*
X1596Y2910D01*
X1596Y2911D01*
X1596Y2912D01*
X1596Y2913D01*
Y2913D01*
Y2913D01*
Y2913D01*
Y2914D01*
X1596Y2914D01*
Y2915D01*
X1596Y2916D01*
X1596Y2917D01*
X1595Y2918D01*
X1595Y2918D01*
X1595Y2919D01*
X1595Y2919D01*
X1595Y2919D01*
X1595Y2920D01*
X1595Y2920D01*
X1594Y2921D01*
X1594Y2922D01*
X1593Y2922D01*
X1593Y2922D01*
X1593Y2923D01*
X1593Y2923D01*
X1593Y2923D01*
X1592Y2924D01*
X1591Y2924D01*
X1591Y2924D01*
X1590Y2925D01*
X1590Y2925D01*
X1590Y2925D01*
X1589Y2925D01*
X1589Y2925D01*
X1588Y2925D01*
X1587Y2926D01*
X1586Y2926D01*
X1585Y2926D01*
X1584D01*
X1584Y2926D01*
X1584D01*
X1583Y2926D01*
X1583D01*
X1583Y2926D01*
X1583Y2925D01*
X1582Y2925D01*
X1582Y2925D01*
X1582Y2925D01*
X1582Y2925D01*
X1581Y2925D01*
Y2915D01*
X1588D01*
Y2911D01*
X1577D01*
Y2928D01*
X1577D01*
X1577Y2928D01*
X1578Y2928D01*
X1578Y2928D01*
X1578Y2928D01*
X1579Y2929D01*
X1579D01*
X1579Y2929D01*
X1580Y2929D01*
X1580Y2929D01*
X1580Y2929D01*
X1581Y2929D01*
X1582Y2929D01*
X1582D01*
X1582Y2929D01*
X1582D01*
X1582Y2929D01*
X1583Y2929D01*
X1584Y2929D01*
X1584D01*
X1584Y2929D01*
X1585D01*
X1585Y2930D01*
X1586Y2930D01*
X1587D01*
X1587Y2930D01*
D02*
G37*
G36*
X1585Y2423D02*
X1600D01*
Y2419D01*
X1587Y2398D01*
X1581D01*
Y2419D01*
X1575D01*
Y2423D01*
X1581D01*
Y2430D01*
X1585D01*
Y2423D01*
D02*
G37*
G36*
X1596Y2530D02*
X1596D01*
X1598Y2530D01*
X1598D01*
X1598Y2530D01*
X1598D01*
X1599Y2530D01*
X1599Y2530D01*
X1600Y2530D01*
Y2526D01*
X1600D01*
X1600Y2526D01*
X1600Y2526D01*
X1599Y2526D01*
X1599Y2526D01*
X1598Y2526D01*
X1597Y2526D01*
X1597D01*
X1597Y2526D01*
X1596D01*
X1595Y2526D01*
X1593D01*
X1592Y2526D01*
X1592Y2526D01*
X1591Y2526D01*
X1590Y2526D01*
X1590Y2526D01*
X1590D01*
X1589Y2526D01*
X1589Y2526D01*
X1589Y2526D01*
X1588Y2525D01*
X1587Y2525D01*
X1587Y2525D01*
X1587Y2525D01*
X1587Y2525D01*
X1586Y2524D01*
X1586Y2524D01*
X1586Y2523D01*
X1585Y2523D01*
X1585Y2523D01*
Y2523D01*
X1585Y2522D01*
X1585Y2522D01*
X1585Y2522D01*
X1585Y2522D01*
X1585Y2521D01*
X1585Y2520D01*
Y2520D01*
Y2520D01*
X1585Y2520D01*
Y2519D01*
X1585Y2519D01*
X1585Y2518D01*
X1585Y2518D01*
Y2518D01*
X1585Y2518D01*
X1586Y2517D01*
X1586Y2517D01*
X1586Y2517D01*
X1587Y2516D01*
X1587Y2516D01*
X1587Y2516D01*
X1587Y2516D01*
X1588Y2516D01*
X1588Y2516D01*
X1589Y2515D01*
X1589Y2515D01*
X1590Y2515D01*
X1590D01*
X1590Y2515D01*
X1590Y2515D01*
X1591Y2515D01*
X1591Y2515D01*
X1592Y2515D01*
X1593Y2515D01*
X1596D01*
Y2511D01*
X1592D01*
X1592Y2511D01*
X1591Y2511D01*
X1591Y2511D01*
X1590Y2511D01*
X1590D01*
X1590Y2511D01*
X1590Y2511D01*
X1589Y2511D01*
X1589Y2510D01*
X1588Y2510D01*
X1588Y2510D01*
X1588Y2510D01*
X1588Y2510D01*
X1588Y2509D01*
X1587Y2509D01*
X1587Y2508D01*
Y2508D01*
X1587Y2508D01*
X1587Y2508D01*
X1586Y2507D01*
X1586Y2507D01*
X1586Y2507D01*
X1586Y2506D01*
Y2506D01*
Y2506D01*
Y2505D01*
X1586Y2505D01*
X1586Y2504D01*
X1587Y2504D01*
X1587Y2503D01*
X1587Y2502D01*
X1588Y2502D01*
X1588Y2502D01*
X1588Y2502D01*
X1588Y2502D01*
X1589Y2501D01*
X1590Y2501D01*
X1590Y2501D01*
X1591Y2501D01*
X1592Y2501D01*
X1593D01*
X1594Y2501D01*
X1594D01*
X1595Y2501D01*
X1596Y2501D01*
X1596D01*
X1596Y2501D01*
X1597Y2501D01*
X1597Y2501D01*
X1597Y2501D01*
X1598Y2502D01*
X1599Y2502D01*
X1600Y2502D01*
Y2498D01*
X1599D01*
X1599Y2498D01*
X1599Y2498D01*
X1599Y2498D01*
X1598Y2498D01*
X1598Y2498D01*
X1598D01*
X1598Y2498D01*
X1597D01*
X1597Y2498D01*
X1597Y2497D01*
X1596Y2497D01*
X1596D01*
X1596Y2497D01*
X1596D01*
X1595Y2497D01*
X1595Y2497D01*
X1594Y2497D01*
X1594D01*
X1594Y2497D01*
X1593D01*
X1593Y2497D01*
X1592D01*
X1591Y2497D01*
X1591D01*
X1590Y2497D01*
X1589Y2497D01*
X1588Y2497D01*
X1588Y2498D01*
X1588D01*
X1587Y2498D01*
X1587Y2498D01*
X1587Y2498D01*
X1586Y2498D01*
X1585Y2498D01*
X1585Y2499D01*
X1584Y2499D01*
X1584Y2499D01*
X1584Y2499D01*
X1584Y2500D01*
X1584Y2500D01*
X1583Y2500D01*
X1583Y2501D01*
X1583Y2501D01*
X1582Y2502D01*
X1582Y2502D01*
X1582Y2502D01*
X1582Y2502D01*
X1582Y2503D01*
X1582Y2503D01*
X1582Y2504D01*
X1582Y2504D01*
X1582Y2505D01*
Y2505D01*
Y2505D01*
Y2505D01*
X1582Y2506D01*
X1582Y2507D01*
X1582Y2507D01*
X1582Y2508D01*
X1583Y2509D01*
X1583Y2510D01*
X1583Y2510D01*
X1583Y2510D01*
X1584Y2510D01*
X1584Y2511D01*
X1585Y2511D01*
X1585Y2512D01*
X1586Y2512D01*
X1587Y2513D01*
X1587D01*
X1587Y2513D01*
X1587Y2513D01*
X1586Y2513D01*
X1586Y2513D01*
X1586Y2513D01*
X1585Y2513D01*
X1585D01*
X1584Y2514D01*
X1584Y2514D01*
X1584Y2514D01*
X1583Y2514D01*
X1582Y2515D01*
X1582Y2515D01*
X1582Y2515D01*
X1582Y2515D01*
X1582Y2516D01*
X1582Y2516D01*
X1581Y2516D01*
X1581Y2517D01*
X1581Y2517D01*
X1581Y2517D01*
X1581Y2518D01*
X1581Y2518D01*
X1580Y2518D01*
X1580Y2519D01*
X1580Y2519D01*
Y2520D01*
Y2520D01*
Y2520D01*
X1580Y2521D01*
X1580Y2521D01*
X1580Y2522D01*
X1581Y2522D01*
X1581Y2523D01*
X1581Y2524D01*
X1581Y2524D01*
X1581Y2524D01*
X1582Y2525D01*
X1582Y2525D01*
X1582Y2525D01*
X1583Y2526D01*
X1583Y2527D01*
X1584Y2527D01*
X1584Y2527D01*
X1584Y2527D01*
X1584Y2528D01*
X1585Y2528D01*
X1586Y2528D01*
X1586Y2529D01*
X1587Y2529D01*
X1588Y2529D01*
X1588D01*
X1588Y2529D01*
X1588D01*
X1588Y2529D01*
X1589Y2529D01*
X1590Y2530D01*
X1591Y2530D01*
X1592Y2530D01*
X1593Y2530D01*
X1594Y2530D01*
X1595D01*
X1596Y2530D01*
D02*
G37*
G36*
X1590Y2230D02*
X1591Y2230D01*
X1592Y2230D01*
X1593Y2230D01*
X1593Y2230D01*
X1594Y2230D01*
X1594Y2230D01*
X1595Y2229D01*
X1595Y2229D01*
X1595Y2229D01*
X1596Y2229D01*
X1597Y2228D01*
X1597Y2228D01*
X1598Y2227D01*
X1598Y2227D01*
X1598Y2227D01*
X1598Y2226D01*
X1598Y2226D01*
X1599Y2225D01*
X1599Y2224D01*
X1599Y2223D01*
X1600Y2223D01*
Y2222D01*
X1600Y2222D01*
Y2222D01*
X1600Y2222D01*
X1600Y2221D01*
X1600Y2221D01*
X1600Y2220D01*
X1600Y2219D01*
X1600Y2217D01*
X1600Y2216D01*
Y2216D01*
Y2216D01*
Y2216D01*
Y2215D01*
X1600Y2215D01*
Y2214D01*
X1600Y2213D01*
X1600Y2211D01*
Y2211D01*
X1600Y2211D01*
X1600Y2211D01*
X1600Y2210D01*
X1600Y2209D01*
X1600Y2209D01*
X1599Y2207D01*
X1599Y2207D01*
X1599Y2207D01*
X1599Y2206D01*
X1599Y2206D01*
X1598Y2205D01*
X1598Y2205D01*
X1597Y2203D01*
X1597Y2203D01*
X1597Y2203D01*
X1597Y2203D01*
X1596Y2202D01*
X1596Y2202D01*
X1595Y2201D01*
X1595Y2201D01*
X1594Y2200D01*
X1594Y2200D01*
X1594Y2200D01*
X1593Y2200D01*
X1593Y2200D01*
X1592Y2199D01*
X1591Y2199D01*
X1591Y2199D01*
X1590Y2199D01*
X1590D01*
X1590Y2198D01*
X1589Y2198D01*
X1589Y2198D01*
X1588Y2198D01*
X1587Y2198D01*
X1586Y2198D01*
X1585Y2198D01*
X1584Y2198D01*
X1581D01*
Y2202D01*
X1585D01*
X1585Y2202D01*
X1586Y2202D01*
X1587Y2202D01*
X1588Y2202D01*
X1588Y2202D01*
X1589Y2202D01*
X1589Y2202D01*
X1590Y2202D01*
X1590Y2203D01*
X1590Y2203D01*
X1591Y2203D01*
X1592Y2203D01*
X1592Y2204D01*
X1593Y2204D01*
X1593Y2204D01*
X1593Y2204D01*
X1593Y2205D01*
X1594Y2205D01*
X1594Y2206D01*
X1594Y2206D01*
X1595Y2207D01*
X1595Y2207D01*
X1595Y2207D01*
X1595Y2208D01*
X1595Y2208D01*
X1595Y2208D01*
X1596Y2209D01*
X1596Y2210D01*
X1596Y2210D01*
X1596Y2211D01*
X1596Y2212D01*
X1596Y2212D01*
X1596Y2212D01*
X1595Y2212D01*
X1595Y2212D01*
X1594Y2211D01*
X1594Y2211D01*
X1593Y2211D01*
X1592Y2211D01*
X1592Y2211D01*
X1592Y2211D01*
X1592Y2211D01*
X1591Y2210D01*
X1590Y2210D01*
X1590Y2210D01*
X1589Y2210D01*
X1588D01*
X1587Y2210D01*
X1587Y2210D01*
X1586Y2210D01*
X1585Y2211D01*
X1585Y2211D01*
X1584Y2211D01*
X1584Y2211D01*
X1583Y2211D01*
X1583Y2211D01*
X1583Y2211D01*
X1582Y2212D01*
X1582Y2212D01*
X1581Y2212D01*
X1581Y2213D01*
X1581Y2213D01*
X1581Y2213D01*
X1580Y2213D01*
X1580Y2214D01*
X1580Y2214D01*
X1579Y2215D01*
X1579Y2215D01*
X1579Y2216D01*
X1579Y2216D01*
X1579Y2216D01*
X1579Y2217D01*
X1579Y2217D01*
X1578Y2218D01*
X1578Y2218D01*
X1578Y2219D01*
Y2220D01*
Y2220D01*
Y2220D01*
X1578Y2221D01*
X1578Y2221D01*
X1578Y2222D01*
X1579Y2223D01*
X1579Y2223D01*
X1579Y2224D01*
X1579Y2224D01*
X1579Y2224D01*
X1579Y2225D01*
X1580Y2225D01*
X1580Y2226D01*
X1580Y2226D01*
X1581Y2227D01*
X1581Y2227D01*
X1581Y2227D01*
X1582Y2228D01*
X1582Y2228D01*
X1582Y2228D01*
X1583Y2228D01*
X1583Y2229D01*
X1584Y2229D01*
X1585Y2230D01*
X1585Y2230D01*
X1585Y2230D01*
X1586Y2230D01*
X1586Y2230D01*
X1587Y2230D01*
X1588Y2230D01*
X1589Y2230D01*
X1589Y2230D01*
X1590D01*
X1590Y2230D01*
D02*
G37*
G36*
X1563Y1831D02*
X1564Y1831D01*
X1565Y1831D01*
X1566Y1830D01*
X1566Y1830D01*
X1567Y1830D01*
X1567Y1830D01*
X1568Y1830D01*
X1568Y1829D01*
X1568Y1829D01*
X1569Y1829D01*
X1570Y1828D01*
X1570Y1828D01*
X1571Y1827D01*
X1571Y1827D01*
X1571Y1827D01*
X1571Y1826D01*
X1572Y1825D01*
X1572Y1825D01*
X1572Y1824D01*
X1573Y1823D01*
X1573Y1822D01*
Y1822D01*
X1573Y1822D01*
Y1821D01*
X1573Y1821D01*
X1573Y1821D01*
X1573Y1821D01*
X1573Y1820D01*
X1574Y1820D01*
X1574Y1819D01*
X1574Y1817D01*
X1574Y1816D01*
X1574Y1814D01*
Y1814D01*
Y1814D01*
Y1814D01*
Y1814D01*
Y1813D01*
X1574Y1813D01*
X1574Y1812D01*
X1574Y1811D01*
X1574Y1810D01*
X1573Y1809D01*
X1573Y1808D01*
Y1808D01*
X1573Y1807D01*
X1573Y1807D01*
X1573Y1807D01*
X1573Y1807D01*
X1573Y1806D01*
X1572Y1805D01*
X1572Y1804D01*
X1571Y1803D01*
X1571Y1802D01*
X1571Y1802D01*
X1571Y1802D01*
X1570Y1802D01*
X1570Y1801D01*
X1569Y1801D01*
X1569Y1800D01*
X1568Y1799D01*
X1567Y1799D01*
X1567Y1799D01*
X1567Y1799D01*
X1566Y1799D01*
X1566Y1798D01*
X1565Y1798D01*
X1564Y1798D01*
X1563Y1798D01*
X1562Y1798D01*
X1562D01*
X1561Y1798D01*
X1560Y1798D01*
X1560Y1798D01*
X1559Y1798D01*
X1558Y1798D01*
X1557Y1799D01*
X1557Y1799D01*
X1557Y1799D01*
X1557Y1799D01*
X1556Y1800D01*
X1556Y1800D01*
X1555Y1800D01*
X1554Y1801D01*
X1554Y1802D01*
X1554Y1802D01*
X1553Y1802D01*
X1553Y1803D01*
X1553Y1803D01*
X1553Y1804D01*
X1552Y1805D01*
X1552Y1806D01*
X1551Y1807D01*
Y1807D01*
X1551Y1807D01*
Y1807D01*
X1551Y1808D01*
X1551Y1808D01*
X1551Y1808D01*
X1551Y1809D01*
X1551Y1809D01*
X1551Y1810D01*
X1551Y1811D01*
X1551Y1813D01*
X1551Y1814D01*
Y1814D01*
Y1815D01*
Y1815D01*
Y1815D01*
Y1815D01*
X1551Y1816D01*
X1551Y1817D01*
X1551Y1818D01*
X1551Y1819D01*
X1551Y1820D01*
X1551Y1821D01*
Y1821D01*
X1551Y1821D01*
Y1821D01*
X1551Y1822D01*
X1552Y1822D01*
X1552Y1823D01*
X1552Y1824D01*
X1553Y1825D01*
X1553Y1825D01*
X1554Y1826D01*
X1554Y1826D01*
X1554Y1827D01*
X1554Y1827D01*
X1555Y1828D01*
X1555Y1828D01*
X1556Y1829D01*
X1556Y1829D01*
X1557Y1830D01*
X1557Y1830D01*
X1558Y1830D01*
X1558Y1830D01*
X1559Y1830D01*
X1560Y1830D01*
X1560Y1831D01*
X1561Y1831D01*
X1563Y1831D01*
X1563D01*
X1563Y1831D01*
D02*
G37*
G36*
X1599Y1826D02*
X1591D01*
Y1803D01*
X1599Y1807D01*
X1600Y1803D01*
X1590Y1798D01*
X1586D01*
Y1826D01*
X1579D01*
Y1830D01*
X1599D01*
Y1826D01*
D02*
G37*
G36*
X1598Y1927D02*
X1595D01*
X1594Y1927D01*
X1594D01*
X1593Y1927D01*
X1592Y1927D01*
X1591Y1927D01*
X1590Y1926D01*
X1590D01*
X1590Y1926D01*
X1590Y1926D01*
X1589Y1926D01*
X1589Y1926D01*
X1588Y1926D01*
X1587Y1925D01*
X1587Y1925D01*
X1586Y1924D01*
X1586Y1924D01*
X1586Y1924D01*
X1586Y1924D01*
X1585Y1924D01*
X1585Y1923D01*
X1585Y1923D01*
X1584Y1922D01*
X1584Y1921D01*
X1584Y1921D01*
X1584Y1921D01*
X1584Y1921D01*
X1583Y1920D01*
X1583Y1920D01*
X1583Y1919D01*
X1583Y1918D01*
X1583Y1917D01*
X1583Y1916D01*
X1583Y1916D01*
X1583Y1917D01*
X1583Y1917D01*
X1584Y1917D01*
X1584Y1917D01*
X1585Y1917D01*
X1586Y1918D01*
X1586Y1918D01*
X1586D01*
X1587Y1918D01*
X1587Y1918D01*
X1588Y1918D01*
X1588Y1918D01*
X1589Y1918D01*
X1590Y1918D01*
X1591D01*
X1591Y1918D01*
X1592Y1918D01*
X1593Y1918D01*
X1593Y1918D01*
X1594Y1918D01*
X1595Y1918D01*
X1595Y1918D01*
X1595Y1918D01*
X1596Y1917D01*
X1596Y1917D01*
X1596Y1917D01*
X1597Y1917D01*
X1597Y1916D01*
X1598Y1916D01*
X1598Y1916D01*
X1598Y1915D01*
X1598Y1915D01*
X1599Y1915D01*
X1599Y1914D01*
X1599Y1914D01*
X1600Y1913D01*
X1600Y1913D01*
Y1913D01*
X1600Y1912D01*
X1600Y1912D01*
X1600Y1911D01*
X1600Y1911D01*
X1600Y1910D01*
X1600Y1910D01*
X1600Y1909D01*
Y1909D01*
Y1908D01*
X1600Y1908D01*
X1600Y1907D01*
X1600Y1907D01*
X1600Y1906D01*
X1600Y1905D01*
X1600Y1905D01*
X1600Y1905D01*
X1599Y1904D01*
X1599Y1904D01*
X1599Y1904D01*
X1599Y1903D01*
X1598Y1902D01*
X1598Y1902D01*
X1597Y1901D01*
X1597Y1901D01*
X1597Y1901D01*
X1597Y1901D01*
X1596Y1900D01*
X1596Y1900D01*
X1595Y1900D01*
X1595Y1899D01*
X1594Y1899D01*
X1594Y1899D01*
X1593Y1899D01*
X1593Y1899D01*
X1592Y1899D01*
X1592Y1898D01*
X1591Y1898D01*
X1590Y1898D01*
X1589Y1898D01*
X1589D01*
X1588Y1898D01*
X1588Y1898D01*
X1587Y1898D01*
X1586Y1898D01*
X1586Y1899D01*
X1585Y1899D01*
X1585Y1899D01*
X1585Y1899D01*
X1584Y1899D01*
X1584Y1900D01*
X1583Y1900D01*
X1583Y1900D01*
X1582Y1901D01*
X1581Y1902D01*
X1581Y1902D01*
X1581Y1902D01*
X1581Y1902D01*
X1581Y1903D01*
X1580Y1903D01*
X1580Y1904D01*
X1579Y1905D01*
X1579Y1906D01*
Y1906D01*
X1579Y1906D01*
X1579Y1906D01*
X1579Y1907D01*
X1579Y1907D01*
X1579Y1907D01*
X1579Y1908D01*
X1578Y1909D01*
X1578Y1910D01*
X1578Y1911D01*
X1578Y1913D01*
Y1913D01*
Y1913D01*
Y1913D01*
Y1914D01*
X1578Y1914D01*
Y1915D01*
X1578Y1915D01*
X1578Y1916D01*
X1578Y1917D01*
X1579Y1918D01*
X1579Y1920D01*
X1579Y1921D01*
Y1921D01*
X1579Y1921D01*
X1579Y1921D01*
X1580Y1921D01*
X1580Y1922D01*
X1580Y1923D01*
X1581Y1924D01*
X1581Y1925D01*
X1582Y1926D01*
X1583Y1927D01*
X1583Y1927D01*
X1583Y1927D01*
X1584Y1927D01*
X1584Y1928D01*
X1585Y1928D01*
X1586Y1929D01*
X1587Y1929D01*
X1588Y1930D01*
X1588D01*
X1588Y1930D01*
X1589Y1930D01*
X1589Y1930D01*
X1589Y1930D01*
X1589Y1930D01*
X1590Y1930D01*
X1590Y1930D01*
X1591Y1930D01*
X1593Y1931D01*
X1594Y1931D01*
X1596Y1931D01*
X1598D01*
Y1927D01*
D02*
G37*
G36*
X1571Y2897D02*
X1566D01*
X1557Y2916D01*
X1554Y2923D01*
Y2906D01*
Y2897D01*
X1550D01*
Y2929D01*
X1556D01*
X1564Y2909D01*
X1567Y2903D01*
Y2919D01*
Y2929D01*
X1571D01*
Y2897D01*
D02*
G37*
G36*
X1590Y2830D02*
X1591Y2830D01*
X1591Y2829D01*
X1592Y2829D01*
X1593Y2829D01*
X1594Y2829D01*
X1594Y2829D01*
X1594Y2829D01*
X1594Y2828D01*
X1595Y2828D01*
X1596Y2828D01*
X1596Y2827D01*
X1597Y2826D01*
X1597Y2826D01*
X1597Y2826D01*
X1598Y2825D01*
X1598Y2825D01*
X1598Y2824D01*
X1599Y2824D01*
X1599Y2823D01*
X1599Y2822D01*
X1600Y2821D01*
Y2821D01*
X1600Y2820D01*
Y2820D01*
X1600Y2820D01*
X1600Y2820D01*
X1600Y2819D01*
X1600Y2819D01*
X1600Y2819D01*
X1600Y2817D01*
X1600Y2816D01*
X1600Y2815D01*
X1600Y2813D01*
Y2813D01*
Y2813D01*
Y2813D01*
Y2813D01*
Y2812D01*
X1600Y2812D01*
X1600Y2811D01*
X1600Y2810D01*
X1600Y2809D01*
X1600Y2808D01*
X1600Y2806D01*
Y2806D01*
X1600Y2806D01*
X1600Y2806D01*
X1600Y2806D01*
X1599Y2805D01*
X1599Y2805D01*
X1599Y2804D01*
X1598Y2803D01*
X1598Y2802D01*
X1597Y2801D01*
X1597Y2801D01*
X1597Y2801D01*
X1597Y2800D01*
X1596Y2800D01*
X1596Y2799D01*
X1595Y2799D01*
X1595Y2798D01*
X1594Y2798D01*
X1594Y2798D01*
X1593Y2798D01*
X1593Y2797D01*
X1592Y2797D01*
X1591Y2797D01*
X1591Y2797D01*
X1590Y2797D01*
X1588Y2797D01*
X1588D01*
X1588Y2797D01*
X1587Y2797D01*
X1586Y2797D01*
X1585Y2797D01*
X1585Y2797D01*
X1584Y2798D01*
X1584Y2798D01*
X1583Y2798D01*
X1583Y2798D01*
X1583Y2798D01*
X1582Y2799D01*
X1581Y2799D01*
X1581Y2800D01*
X1580Y2801D01*
X1580Y2801D01*
X1580Y2801D01*
X1580Y2801D01*
X1579Y2802D01*
X1579Y2803D01*
X1579Y2804D01*
X1578Y2805D01*
X1578Y2806D01*
Y2806D01*
X1578Y2806D01*
Y2806D01*
X1578Y2806D01*
X1578Y2807D01*
X1578Y2807D01*
X1578Y2807D01*
X1577Y2808D01*
X1577Y2809D01*
X1577Y2810D01*
X1577Y2812D01*
X1577Y2813D01*
Y2813D01*
Y2813D01*
Y2814D01*
Y2814D01*
Y2814D01*
X1577Y2815D01*
X1577Y2815D01*
X1577Y2816D01*
X1577Y2818D01*
X1578Y2819D01*
X1578Y2820D01*
Y2820D01*
X1578Y2820D01*
Y2820D01*
X1578Y2820D01*
X1578Y2821D01*
X1578Y2822D01*
X1579Y2823D01*
X1579Y2823D01*
X1580Y2824D01*
X1580Y2825D01*
X1580Y2825D01*
X1580Y2826D01*
X1581Y2826D01*
X1581Y2826D01*
X1582Y2827D01*
X1582Y2828D01*
X1583Y2828D01*
X1584Y2829D01*
X1584Y2829D01*
X1584Y2829D01*
X1585Y2829D01*
X1585Y2829D01*
X1586Y2829D01*
X1587Y2830D01*
X1588Y2830D01*
X1589Y2830D01*
X1589D01*
X1590Y2830D01*
D02*
G37*
G36*
X1599Y2726D02*
X1591D01*
Y2702D01*
X1599Y2707D01*
X1600Y2703D01*
X1590Y2698D01*
X1586D01*
Y2726D01*
X1579D01*
Y2730D01*
X1599D01*
Y2726D01*
D02*
G37*
G36*
X1600Y2626D02*
X1592Y2618D01*
X1592Y2618D01*
X1592Y2618D01*
X1591Y2617D01*
X1591Y2617D01*
X1590Y2616D01*
X1590Y2616D01*
X1589Y2615D01*
X1589Y2614D01*
X1589Y2614D01*
X1589Y2614D01*
X1588Y2614D01*
X1588Y2613D01*
X1588Y2613D01*
X1587Y2613D01*
X1587Y2612D01*
X1587Y2612D01*
X1587Y2611D01*
X1587Y2611D01*
X1586Y2611D01*
X1586Y2610D01*
X1586Y2609D01*
Y2609D01*
X1586Y2609D01*
X1586Y2609D01*
X1586Y2609D01*
Y2608D01*
X1586Y2608D01*
X1586Y2607D01*
Y2607D01*
Y2607D01*
Y2607D01*
X1586Y2606D01*
X1586Y2606D01*
X1586Y2605D01*
Y2605D01*
X1586Y2605D01*
X1586Y2604D01*
X1586Y2604D01*
X1586Y2604D01*
X1587Y2603D01*
X1587Y2603D01*
X1587Y2603D01*
X1587Y2603D01*
X1587Y2602D01*
X1588Y2602D01*
X1589Y2602D01*
X1589D01*
X1589Y2602D01*
X1589Y2601D01*
X1589Y2601D01*
X1590Y2601D01*
X1590Y2601D01*
X1591Y2601D01*
X1591D01*
X1592Y2601D01*
X1592Y2601D01*
X1593Y2601D01*
X1594Y2601D01*
X1594Y2602D01*
X1595Y2602D01*
X1595Y2602D01*
X1595Y2602D01*
X1595Y2602D01*
X1596Y2603D01*
X1596Y2603D01*
X1597Y2603D01*
X1597Y2604D01*
X1598Y2604D01*
X1600Y2602D01*
X1600Y2601D01*
X1600Y2601D01*
X1600Y2601D01*
X1599Y2600D01*
X1598Y2600D01*
X1598Y2600D01*
X1597Y2599D01*
X1596Y2599D01*
X1596D01*
X1596Y2598D01*
X1596Y2598D01*
X1595Y2598D01*
X1595Y2598D01*
X1594Y2598D01*
X1593Y2597D01*
X1592Y2597D01*
X1591Y2597D01*
X1590D01*
X1590Y2597D01*
X1589D01*
X1589Y2597D01*
X1588Y2598D01*
X1587Y2598D01*
X1587Y2598D01*
X1587Y2598D01*
X1586Y2598D01*
X1586Y2598D01*
X1586Y2598D01*
X1585Y2599D01*
X1585Y2599D01*
X1584Y2600D01*
X1584Y2600D01*
X1583Y2600D01*
X1583Y2600D01*
X1583Y2601D01*
X1583Y2601D01*
X1582Y2602D01*
X1582Y2602D01*
X1582Y2603D01*
X1582Y2603D01*
X1582Y2603D01*
X1581Y2603D01*
X1581Y2604D01*
X1581Y2605D01*
X1581Y2605D01*
X1581Y2606D01*
X1581Y2607D01*
Y2607D01*
Y2607D01*
Y2607D01*
X1581Y2608D01*
X1581Y2608D01*
X1581Y2609D01*
X1581Y2610D01*
Y2610D01*
X1582Y2610D01*
X1582Y2611D01*
X1582Y2611D01*
X1582Y2612D01*
X1582Y2612D01*
X1583Y2613D01*
X1583Y2613D01*
X1583Y2614D01*
X1583Y2614D01*
X1584Y2614D01*
X1584Y2615D01*
X1584Y2615D01*
X1585Y2616D01*
X1585Y2617D01*
X1586Y2617D01*
X1586Y2617D01*
X1586Y2617D01*
X1586Y2618D01*
X1587Y2618D01*
X1588Y2619D01*
X1588Y2619D01*
X1589Y2620D01*
X1595Y2626D01*
X1579D01*
Y2630D01*
X1600D01*
Y2626D01*
D02*
G37*
G36*
X1572Y1727D02*
X1563D01*
Y1704D01*
X1571Y1708D01*
X1573Y1704D01*
X1563Y1699D01*
X1559D01*
Y1727D01*
X1552D01*
Y1731D01*
X1572D01*
Y1727D01*
D02*
G37*
G36*
X1599D02*
X1591D01*
Y1704D01*
X1599Y1708D01*
X1600Y1704D01*
X1590Y1699D01*
X1586D01*
Y1727D01*
X1579D01*
Y1731D01*
X1599D01*
Y1727D01*
D02*
G37*
G36*
X1583Y2102D02*
X1600D01*
Y2098D01*
X1579D01*
Y2102D01*
X1592Y2130D01*
X1597D01*
X1583Y2102D01*
D02*
G37*
G36*
X1596Y2330D02*
X1596D01*
X1596Y2330D01*
X1597D01*
X1597Y2330D01*
X1598D01*
X1598Y2330D01*
X1598Y2330D01*
X1599Y2330D01*
X1599D01*
X1599Y2330D01*
X1600D01*
X1600Y2330D01*
Y2326D01*
X1600D01*
X1600Y2326D01*
X1600Y2326D01*
X1600Y2326D01*
X1599Y2326D01*
X1599Y2326D01*
X1598Y2326D01*
X1597Y2326D01*
X1597D01*
X1597Y2326D01*
X1596D01*
X1595Y2327D01*
X1593D01*
X1593Y2326D01*
X1592Y2326D01*
X1592Y2326D01*
X1590Y2326D01*
X1590D01*
X1590Y2326D01*
X1590Y2326D01*
X1589Y2326D01*
X1589Y2325D01*
X1588Y2325D01*
X1588Y2325D01*
X1588Y2325D01*
X1587Y2324D01*
X1587Y2324D01*
X1587Y2324D01*
X1587Y2323D01*
X1586Y2323D01*
X1586Y2323D01*
X1586Y2322D01*
X1586Y2322D01*
X1586Y2322D01*
X1586Y2321D01*
X1585Y2321D01*
X1585Y2320D01*
Y2320D01*
Y2320D01*
Y2320D01*
Y2320D01*
X1585Y2319D01*
X1585Y2319D01*
X1586Y2318D01*
X1586Y2317D01*
X1586Y2317D01*
X1587Y2316D01*
X1588Y2316D01*
X1588Y2315D01*
X1588Y2315D01*
X1588Y2315D01*
X1589Y2315D01*
X1590Y2315D01*
X1591Y2314D01*
X1592Y2314D01*
X1594Y2314D01*
X1600D01*
Y2298D01*
X1583D01*
Y2301D01*
X1596D01*
Y2310D01*
X1592D01*
X1592Y2310D01*
X1591Y2311D01*
X1590Y2311D01*
X1589Y2311D01*
X1588D01*
X1588Y2311D01*
X1588Y2311D01*
X1587Y2311D01*
X1587Y2311D01*
X1586Y2312D01*
X1585Y2312D01*
X1585Y2312D01*
X1585Y2312D01*
X1584Y2313D01*
X1584Y2313D01*
X1584Y2313D01*
X1583Y2313D01*
X1583Y2314D01*
X1582Y2315D01*
X1582Y2315D01*
X1582Y2315D01*
X1582Y2315D01*
X1582Y2316D01*
X1581Y2316D01*
X1581Y2317D01*
X1581Y2318D01*
X1581Y2319D01*
X1581Y2320D01*
Y2320D01*
Y2320D01*
X1581Y2320D01*
X1581Y2321D01*
X1581Y2322D01*
X1581Y2322D01*
X1582Y2323D01*
X1582Y2324D01*
X1582Y2324D01*
X1582Y2324D01*
X1582Y2325D01*
X1583Y2325D01*
X1583Y2326D01*
X1583Y2326D01*
X1584Y2327D01*
X1585Y2327D01*
X1585Y2327D01*
X1585Y2328D01*
X1585Y2328D01*
X1586Y2328D01*
X1587Y2328D01*
X1587Y2329D01*
X1588Y2329D01*
X1589Y2329D01*
X1589Y2330D01*
X1589Y2330D01*
X1590Y2330D01*
X1591Y2330D01*
X1591Y2330D01*
X1592Y2330D01*
X1593Y2330D01*
X1594Y2330D01*
X1595D01*
X1596Y2330D01*
D02*
G37*
G36*
X1572Y1627D02*
X1564Y1619D01*
X1564Y1619D01*
X1564Y1619D01*
X1564Y1618D01*
X1563Y1618D01*
X1563Y1617D01*
X1562Y1617D01*
X1561Y1616D01*
X1561Y1616D01*
X1561Y1615D01*
X1561Y1615D01*
X1560Y1615D01*
X1560Y1615D01*
X1560Y1614D01*
X1560Y1614D01*
X1559Y1613D01*
X1559Y1613D01*
X1559Y1613D01*
X1559Y1612D01*
X1559Y1612D01*
X1558Y1611D01*
X1558Y1611D01*
Y1610D01*
X1558Y1610D01*
X1558Y1610D01*
X1558Y1610D01*
Y1609D01*
X1558Y1609D01*
X1558Y1608D01*
Y1608D01*
Y1608D01*
Y1608D01*
X1558Y1607D01*
X1558Y1607D01*
X1558Y1606D01*
Y1606D01*
X1558Y1606D01*
X1558Y1606D01*
X1558Y1605D01*
X1559Y1605D01*
X1559Y1604D01*
X1559Y1604D01*
X1559Y1604D01*
X1559Y1604D01*
X1559Y1604D01*
X1560Y1603D01*
X1561Y1603D01*
X1561D01*
X1561Y1603D01*
X1561Y1603D01*
X1561Y1602D01*
X1562Y1602D01*
X1562Y1602D01*
X1563Y1602D01*
X1564D01*
X1564Y1602D01*
X1564Y1602D01*
X1565Y1602D01*
X1566Y1603D01*
X1566Y1603D01*
X1567Y1603D01*
X1567Y1603D01*
X1567Y1603D01*
X1568Y1604D01*
X1568Y1604D01*
X1568Y1604D01*
X1569Y1605D01*
X1569Y1605D01*
X1570Y1606D01*
X1572Y1603D01*
X1572Y1603D01*
X1572Y1602D01*
X1572Y1602D01*
X1571Y1602D01*
X1571Y1601D01*
X1570Y1601D01*
X1569Y1600D01*
X1568Y1600D01*
X1568D01*
X1568Y1600D01*
X1568Y1600D01*
X1567Y1599D01*
X1567Y1599D01*
X1566Y1599D01*
X1565Y1599D01*
X1564Y1599D01*
X1563Y1598D01*
X1562D01*
X1562Y1599D01*
X1561D01*
X1561Y1599D01*
X1560Y1599D01*
X1559Y1599D01*
X1559Y1599D01*
X1559Y1599D01*
X1559Y1599D01*
X1558Y1599D01*
X1558Y1600D01*
X1557Y1600D01*
X1557Y1600D01*
X1556Y1601D01*
X1556Y1601D01*
X1556Y1601D01*
X1555Y1601D01*
X1555Y1602D01*
X1555Y1602D01*
X1554Y1603D01*
X1554Y1603D01*
X1554Y1604D01*
X1554Y1604D01*
X1554Y1604D01*
X1554Y1605D01*
X1553Y1605D01*
X1553Y1606D01*
X1553Y1606D01*
X1553Y1607D01*
X1553Y1608D01*
Y1608D01*
Y1608D01*
Y1609D01*
X1553Y1609D01*
X1553Y1609D01*
X1553Y1610D01*
X1554Y1611D01*
Y1611D01*
X1554Y1612D01*
X1554Y1612D01*
X1554Y1612D01*
X1554Y1613D01*
X1554Y1613D01*
X1555Y1614D01*
X1555Y1615D01*
X1555Y1615D01*
X1555Y1615D01*
X1556Y1615D01*
X1556Y1616D01*
X1557Y1616D01*
X1557Y1617D01*
X1558Y1618D01*
X1558Y1618D01*
X1558Y1618D01*
X1558Y1618D01*
X1559Y1619D01*
X1559Y1619D01*
X1560Y1620D01*
X1560Y1621D01*
X1561Y1621D01*
X1567Y1627D01*
X1551D01*
Y1631D01*
X1572D01*
Y1627D01*
D02*
G37*
G36*
X1599Y1627D02*
X1591D01*
Y1604D01*
X1599Y1608D01*
X1600Y1604D01*
X1590Y1599D01*
X1586D01*
Y1627D01*
X1579D01*
Y1631D01*
X1599D01*
Y1627D01*
D02*
G37*
G36*
X1591Y2031D02*
X1591D01*
X1592Y2030D01*
X1593Y2030D01*
X1594Y2030D01*
X1594Y2030D01*
X1594Y2030D01*
X1595Y2030D01*
X1595Y2030D01*
X1596Y2030D01*
X1596Y2029D01*
X1597Y2029D01*
X1597Y2029D01*
X1598Y2028D01*
X1598Y2028D01*
X1598Y2028D01*
X1598Y2028D01*
X1598Y2028D01*
X1599Y2027D01*
X1599Y2027D01*
X1599Y2026D01*
X1600Y2026D01*
Y2026D01*
X1600Y2026D01*
X1600Y2025D01*
X1600Y2025D01*
X1600Y2024D01*
X1600Y2024D01*
X1600Y2023D01*
X1600Y2023D01*
Y2023D01*
Y2023D01*
Y2022D01*
X1600Y2022D01*
X1600Y2022D01*
X1600Y2021D01*
X1600Y2020D01*
X1600Y2019D01*
X1599Y2018D01*
X1599Y2018D01*
X1599Y2017D01*
X1598Y2017D01*
X1598Y2017D01*
X1597Y2016D01*
X1597Y2016D01*
X1596Y2015D01*
X1595Y2014D01*
X1594Y2014D01*
X1594D01*
X1594Y2014D01*
X1594Y2014D01*
X1594Y2013D01*
X1595Y2013D01*
X1595Y2013D01*
X1596Y2012D01*
X1597Y2011D01*
X1598Y2011D01*
X1598Y2010D01*
X1598Y2010D01*
X1598Y2010D01*
X1599Y2009D01*
X1599Y2009D01*
X1599Y2008D01*
X1599Y2007D01*
X1600Y2007D01*
X1600Y2006D01*
Y2006D01*
Y2005D01*
X1600Y2005D01*
Y2005D01*
X1600Y2004D01*
X1599Y2004D01*
X1599Y2003D01*
X1599Y2003D01*
X1599Y2003D01*
X1599Y2002D01*
X1599Y2002D01*
X1599Y2002D01*
X1598Y2001D01*
X1598Y2001D01*
X1598Y2001D01*
X1597Y2000D01*
X1597Y2000D01*
X1597Y2000D01*
X1597Y2000D01*
X1596Y1999D01*
X1596Y1999D01*
X1595Y1999D01*
X1595Y1999D01*
X1594Y1998D01*
X1594Y1998D01*
X1594Y1998D01*
X1593Y1998D01*
X1593Y1998D01*
X1592Y1998D01*
X1591Y1998D01*
X1590Y1998D01*
X1589Y1998D01*
X1588D01*
X1588Y1998D01*
X1587Y1998D01*
X1586Y1998D01*
X1586Y1998D01*
X1585Y1998D01*
X1585D01*
X1585Y1998D01*
X1584Y1998D01*
X1584Y1998D01*
X1583Y1999D01*
X1583Y1999D01*
X1582Y1999D01*
X1582Y2000D01*
X1582Y2000D01*
X1582Y2000D01*
X1581Y2000D01*
X1581Y2000D01*
X1581Y2001D01*
X1581Y2001D01*
X1580Y2002D01*
X1580Y2002D01*
X1580Y2002D01*
X1580Y2002D01*
X1580Y2003D01*
X1580Y2003D01*
X1579Y2003D01*
X1579Y2004D01*
X1579Y2005D01*
Y2005D01*
Y2005D01*
Y2005D01*
Y2005D01*
Y2006D01*
X1579Y2006D01*
X1579Y2007D01*
X1580Y2008D01*
X1580Y2008D01*
X1580Y2009D01*
X1581Y2010D01*
X1581Y2010D01*
X1581Y2010D01*
X1582Y2011D01*
X1582Y2011D01*
X1583Y2012D01*
X1583Y2012D01*
X1584Y2013D01*
X1585Y2013D01*
X1585Y2013D01*
X1585Y2013D01*
X1585Y2014D01*
X1584Y2014D01*
X1584Y2014D01*
X1584Y2014D01*
X1583Y2015D01*
X1583Y2015D01*
X1582Y2015D01*
X1582Y2015D01*
X1582Y2015D01*
X1581Y2016D01*
X1581Y2017D01*
X1580Y2017D01*
X1580Y2017D01*
X1580Y2017D01*
X1580Y2017D01*
X1580Y2018D01*
X1580Y2018D01*
X1579Y2019D01*
Y2019D01*
X1579Y2019D01*
X1579Y2020D01*
X1579Y2020D01*
X1579Y2020D01*
X1579Y2021D01*
X1579Y2022D01*
Y2022D01*
Y2022D01*
X1579Y2023D01*
X1579Y2023D01*
X1579Y2024D01*
X1579Y2024D01*
X1579Y2025D01*
X1579Y2026D01*
X1579Y2026D01*
X1580Y2026D01*
X1580Y2026D01*
X1580Y2027D01*
X1580Y2027D01*
X1581Y2028D01*
X1581Y2028D01*
X1582Y2028D01*
X1582Y2028D01*
X1582Y2029D01*
X1582Y2029D01*
X1583Y2029D01*
X1583Y2029D01*
X1584Y2030D01*
X1585Y2030D01*
X1585Y2030D01*
X1585D01*
X1586Y2030D01*
X1586Y2030D01*
X1587Y2030D01*
X1587Y2030D01*
X1588Y2030D01*
X1589Y2031D01*
X1590D01*
X1591Y2031D01*
D02*
G37*
%LPC*%
G36*
X1562Y1827D02*
X1562D01*
X1562Y1827D01*
X1561Y1827D01*
X1561Y1827D01*
X1560Y1827D01*
X1560Y1827D01*
X1559Y1826D01*
X1559Y1826D01*
X1559Y1826D01*
X1559Y1826D01*
X1558Y1826D01*
X1558Y1825D01*
X1558Y1825D01*
X1557Y1825D01*
X1557Y1824D01*
X1557Y1824D01*
X1557Y1824D01*
X1557Y1823D01*
X1556Y1823D01*
X1556Y1822D01*
X1556Y1822D01*
X1556Y1821D01*
X1555Y1820D01*
Y1820D01*
Y1820D01*
X1555Y1820D01*
X1555Y1819D01*
X1555Y1818D01*
X1555Y1818D01*
X1555Y1817D01*
X1555Y1816D01*
Y1815D01*
Y1814D01*
Y1814D01*
Y1814D01*
Y1814D01*
X1555Y1813D01*
X1555Y1813D01*
Y1813D01*
Y1813D01*
Y1813D01*
X1555Y1812D01*
Y1812D01*
X1555Y1811D01*
X1569Y1821D01*
Y1821D01*
X1569Y1822D01*
X1569Y1822D01*
X1568Y1822D01*
X1568Y1823D01*
X1568Y1824D01*
X1568Y1824D01*
X1568Y1824D01*
X1568Y1824D01*
X1567Y1824D01*
X1567Y1825D01*
X1566Y1826D01*
X1566Y1826D01*
X1566Y1826D01*
X1566Y1826D01*
X1566Y1826D01*
X1565Y1826D01*
X1565Y1827D01*
X1565D01*
X1564Y1827D01*
X1564Y1827D01*
X1564Y1827D01*
X1564Y1827D01*
X1563Y1827D01*
X1562Y1827D01*
D02*
G37*
G36*
X1114Y2128D02*
X1114D01*
X1114Y2128D01*
X1113Y2128D01*
X1112Y2128D01*
X1112D01*
X1112Y2128D01*
X1112Y2128D01*
X1111Y2128D01*
X1111Y2127D01*
X1110Y2127D01*
X1110Y2127D01*
X1110Y2127D01*
X1110Y2127D01*
X1109Y2126D01*
X1109Y2126D01*
Y2125D01*
X1109Y2125D01*
X1109Y2125D01*
X1108Y2125D01*
X1108Y2124D01*
X1108Y2124D01*
Y2123D01*
Y2123D01*
Y2123D01*
X1108Y2123D01*
X1108Y2122D01*
X1109Y2122D01*
Y2122D01*
X1109Y2122D01*
X1109Y2121D01*
X1109Y2121D01*
X1109Y2121D01*
X1110Y2120D01*
X1110Y2120D01*
X1110Y2120D01*
X1110Y2120D01*
X1110Y2120D01*
X1110Y2119D01*
X1111Y2119D01*
X1111Y2119D01*
X1112Y2118D01*
X1112Y2118D01*
X1112Y2118D01*
X1112Y2118D01*
X1113Y2118D01*
X1113Y2118D01*
X1114Y2117D01*
X1114Y2117D01*
X1115Y2117D01*
X1115Y2117D01*
X1115Y2117D01*
X1115Y2117D01*
X1116Y2117D01*
X1117Y2118D01*
X1118Y2118D01*
X1118Y2118D01*
X1118Y2118D01*
X1118Y2119D01*
X1118Y2119D01*
X1119Y2119D01*
X1120Y2120D01*
X1120Y2120D01*
X1120Y2120D01*
X1120Y2120D01*
X1120Y2120D01*
X1120Y2121D01*
X1121Y2122D01*
Y2122D01*
X1121Y2122D01*
X1121Y2122D01*
Y2122D01*
X1121Y2123D01*
X1121Y2123D01*
Y2124D01*
Y2124D01*
Y2124D01*
X1121Y2124D01*
X1121Y2125D01*
X1120Y2125D01*
Y2125D01*
X1120Y2126D01*
X1120Y2126D01*
X1120Y2126D01*
X1119Y2127D01*
X1119D01*
X1119Y2127D01*
X1119Y2127D01*
X1118Y2127D01*
X1118Y2127D01*
X1117Y2128D01*
X1117D01*
X1117Y2128D01*
X1117Y2128D01*
X1116D01*
X1116Y2128D01*
X1115Y2128D01*
X1114Y2128D01*
D02*
G37*
G36*
X1589Y2227D02*
X1589D01*
X1588Y2227D01*
X1587Y2227D01*
X1587Y2226D01*
X1587D01*
X1586Y2226D01*
X1586Y2226D01*
X1586Y2226D01*
X1585Y2226D01*
X1585Y2225D01*
X1585Y2225D01*
X1584Y2225D01*
X1584Y2225D01*
X1584Y2225D01*
X1584Y2224D01*
X1584Y2224D01*
X1583Y2223D01*
Y2223D01*
X1583Y2223D01*
X1583Y2222D01*
X1583Y2222D01*
X1583Y2222D01*
X1583Y2221D01*
X1583Y2221D01*
Y2220D01*
Y2220D01*
Y2220D01*
Y2220D01*
X1583Y2219D01*
X1583Y2219D01*
X1583Y2218D01*
X1583Y2217D01*
Y2217D01*
X1583Y2217D01*
X1583Y2217D01*
X1583Y2217D01*
X1584Y2216D01*
X1584Y2215D01*
X1584Y2215D01*
X1584Y2215D01*
X1585Y2215D01*
X1585Y2215D01*
X1585Y2214D01*
X1586Y2214D01*
X1586D01*
X1586Y2214D01*
X1587Y2214D01*
X1587Y2214D01*
X1587Y2214D01*
X1588Y2214D01*
X1588Y2214D01*
X1590D01*
X1590Y2214D01*
X1591Y2214D01*
X1591D01*
X1591Y2214D01*
X1591D01*
X1591Y2214D01*
X1592Y2214D01*
X1593Y2214D01*
X1593D01*
X1593Y2214D01*
X1593Y2214D01*
X1593Y2214D01*
X1594Y2215D01*
X1594Y2215D01*
X1595D01*
X1595Y2215D01*
X1595Y2215D01*
X1595Y2216D01*
X1596Y2216D01*
Y2216D01*
Y2216D01*
Y2216D01*
Y2216D01*
Y2217D01*
X1596Y2218D01*
X1596Y2219D01*
X1596Y2219D01*
X1596Y2220D01*
X1596Y2221D01*
Y2221D01*
X1595Y2221D01*
X1595Y2222D01*
X1595Y2222D01*
X1595Y2223D01*
X1595Y2223D01*
X1595Y2224D01*
X1594Y2225D01*
X1594Y2225D01*
X1594Y2225D01*
X1594Y2225D01*
X1594Y2225D01*
X1593Y2226D01*
X1593Y2226D01*
X1593Y2226D01*
X1592Y2226D01*
X1592D01*
X1592Y2226D01*
X1592Y2227D01*
X1591Y2227D01*
X1591Y2227D01*
X1590Y2227D01*
X1589Y2227D01*
D02*
G37*
G36*
X1125Y1720D02*
X1113D01*
Y1703D01*
X1125Y1720D01*
D02*
G37*
G36*
X1114Y2112D02*
X1114D01*
X1114Y2112D01*
X1114Y2112D01*
X1113Y2112D01*
X1113Y2112D01*
X1112Y2111D01*
X1111Y2111D01*
X1111Y2110D01*
X1110Y2110D01*
X1110Y2110D01*
X1110Y2110D01*
X1110Y2109D01*
X1109Y2109D01*
X1109Y2108D01*
X1109Y2108D01*
X1109Y2107D01*
X1109Y2107D01*
Y2106D01*
Y2106D01*
X1109Y2106D01*
X1109Y2105D01*
X1109Y2105D01*
X1109Y2104D01*
X1110Y2104D01*
X1110Y2103D01*
X1110Y2103D01*
X1111Y2103D01*
X1111Y2103D01*
X1111Y2103D01*
X1112Y2103D01*
X1113Y2102D01*
X1114Y2102D01*
X1114Y2102D01*
X1115D01*
X1115Y2102D01*
X1116Y2102D01*
X1117Y2102D01*
X1117Y2103D01*
X1118Y2103D01*
X1119Y2103D01*
X1119Y2103D01*
X1119Y2103D01*
X1119Y2104D01*
X1120Y2104D01*
X1120Y2105D01*
X1120Y2105D01*
X1120Y2106D01*
X1120Y2106D01*
Y2107D01*
Y2107D01*
Y2107D01*
X1120Y2107D01*
X1120Y2108D01*
X1120Y2108D01*
Y2108D01*
X1120Y2108D01*
X1120Y2109D01*
X1119Y2109D01*
X1119Y2110D01*
X1119Y2110D01*
X1119Y2110D01*
X1118Y2110D01*
X1118Y2110D01*
X1118Y2111D01*
X1117Y2111D01*
X1117Y2111D01*
X1117Y2111D01*
X1116Y2111D01*
X1116Y2112D01*
X1116Y2112D01*
X1115Y2112D01*
X1115Y2112D01*
X1114Y2112D01*
D02*
G37*
G36*
X1590Y1915D02*
X1589D01*
X1589Y1915D01*
X1588Y1915D01*
X1588D01*
X1588Y1915D01*
X1587D01*
X1587Y1915D01*
X1587Y1915D01*
X1586Y1914D01*
X1586D01*
X1586Y1914D01*
X1586Y1914D01*
X1585Y1914D01*
X1585Y1914D01*
X1584Y1914D01*
X1584D01*
X1584Y1914D01*
X1584Y1913D01*
X1584Y1913D01*
X1583Y1913D01*
X1583Y1913D01*
Y1913D01*
Y1913D01*
Y1912D01*
Y1912D01*
Y1912D01*
X1583Y1911D01*
X1583Y1910D01*
X1583Y1909D01*
X1583Y1908D01*
X1583Y1907D01*
Y1907D01*
X1583Y1907D01*
X1583Y1907D01*
X1583Y1906D01*
X1584Y1906D01*
X1584Y1905D01*
X1584Y1905D01*
X1585Y1904D01*
X1585Y1904D01*
X1585Y1904D01*
X1585Y1904D01*
X1585Y1903D01*
X1585Y1903D01*
X1586Y1903D01*
X1586Y1902D01*
X1587Y1902D01*
X1587D01*
X1587Y1902D01*
X1587Y1902D01*
X1588Y1902D01*
X1588Y1902D01*
X1588Y1902D01*
X1590Y1902D01*
X1590D01*
X1590Y1902D01*
X1591Y1902D01*
X1591Y1902D01*
X1592Y1902D01*
X1592D01*
X1592Y1902D01*
X1592Y1902D01*
X1593Y1902D01*
X1593Y1903D01*
X1594Y1903D01*
X1594Y1903D01*
X1594Y1904D01*
X1594Y1904D01*
X1595Y1904D01*
X1595Y1904D01*
X1595Y1905D01*
X1595Y1906D01*
Y1906D01*
X1595Y1906D01*
X1596Y1906D01*
X1596Y1906D01*
X1596Y1907D01*
X1596Y1907D01*
X1596Y1908D01*
Y1909D01*
Y1909D01*
Y1909D01*
Y1909D01*
X1596Y1909D01*
Y1910D01*
X1596Y1910D01*
X1596Y1911D01*
Y1911D01*
X1596Y1911D01*
X1595Y1912D01*
X1595Y1912D01*
X1595Y1913D01*
X1594Y1913D01*
X1594Y1913D01*
X1594Y1913D01*
X1594Y1914D01*
X1594Y1914D01*
X1594Y1914D01*
X1593Y1914D01*
X1593Y1915D01*
X1592D01*
X1592Y1915D01*
X1592Y1915D01*
X1592Y1915D01*
X1591Y1915D01*
X1591Y1915D01*
X1590Y1915D01*
D02*
G37*
G36*
X1116Y2216D02*
X1114D01*
X1114Y2216D01*
X1113Y2216D01*
X1113D01*
X1113Y2216D01*
X1113D01*
X1113Y2216D01*
X1112Y2216D01*
X1111Y2215D01*
X1111D01*
X1111Y2215D01*
X1111Y2215D01*
X1111Y2215D01*
X1110Y2215D01*
X1110Y2215D01*
X1109D01*
X1109Y2215D01*
X1109Y2214D01*
X1109Y2214D01*
X1109Y2214D01*
X1108Y2214D01*
Y2214D01*
Y2214D01*
Y2213D01*
Y2213D01*
Y2213D01*
X1108Y2212D01*
X1108Y2211D01*
X1108Y2210D01*
X1108Y2209D01*
X1108Y2208D01*
Y2208D01*
X1109Y2208D01*
X1109Y2208D01*
X1109Y2207D01*
X1109Y2207D01*
X1109Y2206D01*
X1110Y2206D01*
X1110Y2205D01*
X1110Y2205D01*
X1110Y2205D01*
X1110Y2205D01*
X1110Y2204D01*
X1111Y2204D01*
X1111Y2204D01*
X1112Y2203D01*
X1112Y2203D01*
X1112D01*
X1112Y2203D01*
X1113Y2203D01*
X1113Y2203D01*
X1113Y2203D01*
X1114Y2203D01*
X1115Y2203D01*
X1115D01*
X1116Y2203D01*
X1116Y2203D01*
X1117Y2203D01*
X1117Y2203D01*
X1117D01*
X1118Y2203D01*
X1118Y2203D01*
X1118Y2203D01*
X1119Y2204D01*
X1119Y2204D01*
X1120Y2204D01*
X1120Y2205D01*
X1120Y2205D01*
X1120Y2205D01*
X1120Y2205D01*
X1120Y2206D01*
X1121Y2207D01*
Y2207D01*
X1121Y2207D01*
X1121Y2207D01*
X1121Y2207D01*
X1121Y2208D01*
X1121Y2208D01*
X1121Y2209D01*
Y2210D01*
Y2210D01*
Y2210D01*
Y2210D01*
X1121Y2210D01*
Y2211D01*
X1121Y2211D01*
X1121Y2212D01*
Y2212D01*
X1121Y2212D01*
X1121Y2213D01*
X1121Y2213D01*
X1120Y2214D01*
X1120Y2214D01*
X1120Y2214D01*
X1120Y2214D01*
X1120Y2215D01*
X1119Y2215D01*
X1119Y2215D01*
X1119Y2215D01*
X1118Y2216D01*
X1118D01*
X1118Y2216D01*
X1117Y2216D01*
X1117Y2216D01*
X1117Y2216D01*
X1116Y2216D01*
X1116Y2216D01*
D02*
G37*
G36*
X1589Y2027D02*
X1589D01*
X1589Y2027D01*
X1588Y2027D01*
X1587Y2027D01*
X1587D01*
X1587Y2027D01*
X1587Y2027D01*
X1586Y2027D01*
X1586Y2026D01*
X1585Y2026D01*
X1585Y2026D01*
X1585Y2026D01*
X1585Y2026D01*
X1584Y2025D01*
X1584Y2024D01*
Y2024D01*
X1584Y2024D01*
X1584Y2024D01*
X1583Y2024D01*
X1583Y2023D01*
X1583Y2022D01*
Y2022D01*
Y2022D01*
Y2022D01*
X1583Y2022D01*
X1583Y2021D01*
X1584Y2021D01*
Y2021D01*
X1584Y2021D01*
X1584Y2020D01*
X1584Y2020D01*
X1584Y2020D01*
X1585Y2019D01*
X1585Y2019D01*
X1585Y2019D01*
X1585Y2019D01*
X1585Y2018D01*
X1585Y2018D01*
X1586Y2018D01*
X1586Y2018D01*
X1587Y2017D01*
X1587Y2017D01*
X1587Y2017D01*
X1587Y2017D01*
X1588Y2017D01*
X1588Y2017D01*
X1589Y2016D01*
X1589Y2016D01*
X1590Y2016D01*
X1590Y2016D01*
X1590Y2016D01*
X1590Y2016D01*
X1591Y2016D01*
X1592Y2017D01*
X1593Y2017D01*
X1593Y2017D01*
X1593Y2017D01*
X1593Y2017D01*
X1593Y2018D01*
X1594Y2018D01*
X1594Y2019D01*
X1595Y2019D01*
X1595Y2019D01*
X1595Y2019D01*
X1595Y2019D01*
X1595Y2020D01*
X1595Y2021D01*
Y2021D01*
X1596Y2021D01*
X1596Y2021D01*
Y2021D01*
X1596Y2022D01*
X1596Y2022D01*
Y2022D01*
Y2023D01*
Y2023D01*
X1596Y2023D01*
X1596Y2024D01*
X1595Y2024D01*
Y2024D01*
X1595Y2024D01*
X1595Y2025D01*
X1595Y2025D01*
X1594Y2026D01*
X1594D01*
X1594Y2026D01*
X1594Y2026D01*
X1593Y2026D01*
X1593Y2026D01*
X1592Y2027D01*
X1592D01*
X1592Y2027D01*
X1592Y2027D01*
X1591D01*
X1591Y2027D01*
X1590Y2027D01*
X1589Y2027D01*
D02*
G37*
G36*
X1589Y2011D02*
X1589D01*
X1589Y2011D01*
X1589Y2011D01*
X1588Y2011D01*
X1588Y2011D01*
X1587Y2010D01*
X1586Y2010D01*
X1586Y2009D01*
X1585Y2009D01*
X1585Y2009D01*
X1585Y2008D01*
X1585Y2008D01*
X1584Y2008D01*
X1584Y2007D01*
X1584Y2007D01*
X1584Y2006D01*
X1584Y2005D01*
Y2005D01*
Y2005D01*
X1584Y2005D01*
X1584Y2004D01*
X1584Y2004D01*
X1584Y2003D01*
X1585Y2003D01*
X1585Y2002D01*
X1585Y2002D01*
X1585Y2002D01*
X1586Y2002D01*
X1586Y2002D01*
X1587Y2001D01*
X1588Y2001D01*
X1588Y2001D01*
X1589Y2001D01*
X1590D01*
X1590Y2001D01*
X1591Y2001D01*
X1592Y2001D01*
X1592Y2002D01*
X1593Y2002D01*
X1594Y2002D01*
X1594Y2002D01*
X1594Y2002D01*
X1594Y2003D01*
X1594Y2003D01*
X1595Y2003D01*
X1595Y2004D01*
X1595Y2005D01*
X1595Y2005D01*
Y2005D01*
Y2006D01*
Y2006D01*
X1595Y2006D01*
X1595Y2007D01*
X1595Y2007D01*
Y2007D01*
X1595Y2007D01*
X1595Y2008D01*
X1594Y2008D01*
X1594Y2009D01*
X1594Y2009D01*
X1594Y2009D01*
X1593Y2009D01*
X1593Y2009D01*
X1593Y2010D01*
X1592Y2010D01*
X1592Y2010D01*
X1592Y2010D01*
X1591Y2010D01*
X1591Y2011D01*
X1591Y2011D01*
X1590Y2011D01*
X1590Y2011D01*
X1589Y2011D01*
D02*
G37*
G36*
X1115Y2328D02*
X1115D01*
X1115Y2328D01*
X1114Y2328D01*
X1114Y2328D01*
X1113Y2328D01*
X1113Y2328D01*
X1112Y2327D01*
X1112Y2327D01*
X1112Y2327D01*
X1112Y2327D01*
X1111Y2327D01*
X1111Y2326D01*
X1111Y2326D01*
X1110Y2326D01*
X1110Y2325D01*
X1110Y2325D01*
X1110Y2325D01*
X1110Y2324D01*
X1109Y2324D01*
X1109Y2323D01*
X1109Y2323D01*
X1109Y2322D01*
X1108Y2321D01*
Y2321D01*
Y2321D01*
X1108Y2321D01*
X1108Y2320D01*
X1108Y2319D01*
X1108Y2319D01*
X1108Y2318D01*
X1108Y2317D01*
Y2315D01*
Y2315D01*
Y2315D01*
Y2315D01*
Y2315D01*
X1108Y2314D01*
X1108Y2314D01*
Y2314D01*
Y2314D01*
Y2314D01*
X1108Y2313D01*
Y2313D01*
X1108Y2312D01*
X1122Y2322D01*
Y2322D01*
X1122Y2323D01*
X1122Y2323D01*
X1121Y2323D01*
X1121Y2324D01*
X1121Y2325D01*
X1121Y2325D01*
X1121Y2325D01*
X1121Y2325D01*
X1120Y2325D01*
X1120Y2326D01*
X1119Y2327D01*
X1119Y2327D01*
X1119Y2327D01*
X1119Y2327D01*
X1119Y2327D01*
X1118Y2327D01*
X1118Y2328D01*
X1118D01*
X1117Y2328D01*
X1117Y2328D01*
X1117Y2328D01*
X1117Y2328D01*
X1116Y2328D01*
X1115Y2328D01*
D02*
G37*
G36*
X1123Y2318D02*
X1109Y2308D01*
Y2308D01*
X1109Y2308D01*
X1109Y2308D01*
X1109Y2307D01*
X1109Y2307D01*
X1110Y2306D01*
Y2306D01*
X1110Y2306D01*
X1110Y2305D01*
X1110Y2305D01*
X1111Y2305D01*
X1111Y2304D01*
X1111Y2304D01*
X1111Y2304D01*
X1111Y2304D01*
X1112Y2304D01*
X1112Y2303D01*
X1113Y2303D01*
X1113D01*
X1113Y2303D01*
X1113Y2303D01*
X1114Y2303D01*
X1114Y2303D01*
X1114Y2302D01*
X1115Y2302D01*
X1116D01*
X1116Y2302D01*
X1116Y2303D01*
X1117Y2303D01*
X1117Y2303D01*
X1118Y2303D01*
X1118Y2303D01*
X1118Y2303D01*
X1119Y2303D01*
X1119Y2304D01*
X1119Y2304D01*
X1119Y2304D01*
X1120Y2305D01*
X1120Y2305D01*
X1121Y2306D01*
X1121Y2306D01*
X1121Y2306D01*
X1121Y2306D01*
X1121Y2307D01*
X1121Y2307D01*
X1122Y2308D01*
X1122Y2309D01*
X1122Y2310D01*
Y2310D01*
X1122Y2310D01*
X1122Y2311D01*
X1122Y2311D01*
X1122Y2312D01*
X1123Y2313D01*
X1123Y2314D01*
Y2315D01*
Y2315D01*
Y2315D01*
Y2316D01*
Y2316D01*
Y2317D01*
Y2317D01*
Y2317D01*
Y2317D01*
Y2318D01*
X1123Y2318D01*
D02*
G37*
G36*
X1114Y1928D02*
X1114D01*
X1114Y1928D01*
X1113Y1928D01*
X1112Y1928D01*
X1112D01*
X1112Y1927D01*
X1111Y1927D01*
X1111Y1927D01*
X1111Y1927D01*
X1110Y1926D01*
X1110Y1926D01*
X1110Y1926D01*
X1110Y1926D01*
X1109Y1926D01*
X1109Y1925D01*
X1109Y1925D01*
X1109Y1924D01*
Y1924D01*
X1108Y1924D01*
X1108Y1924D01*
X1108Y1923D01*
X1108Y1923D01*
X1108Y1922D01*
X1108Y1922D01*
Y1921D01*
Y1921D01*
Y1921D01*
Y1921D01*
X1108Y1920D01*
X1108Y1920D01*
X1108Y1919D01*
X1108Y1919D01*
Y1918D01*
X1108Y1918D01*
X1109Y1918D01*
X1109Y1918D01*
X1109Y1917D01*
X1110Y1916D01*
X1110Y1916D01*
X1110Y1916D01*
X1110Y1916D01*
X1110Y1916D01*
X1111Y1916D01*
X1111Y1915D01*
X1112D01*
X1112Y1915D01*
X1112Y1915D01*
X1112Y1915D01*
X1113Y1915D01*
X1113Y1915D01*
X1114Y1915D01*
X1115D01*
X1115Y1915D01*
X1116Y1915D01*
X1116D01*
X1116Y1915D01*
X1117D01*
X1117Y1915D01*
X1117Y1915D01*
X1118Y1915D01*
X1118D01*
X1118Y1916D01*
X1118Y1916D01*
X1119Y1916D01*
X1119Y1916D01*
X1120Y1916D01*
X1120D01*
X1120Y1916D01*
X1120Y1916D01*
X1121Y1917D01*
X1121Y1917D01*
Y1917D01*
Y1917D01*
Y1917D01*
Y1918D01*
Y1918D01*
X1121Y1919D01*
X1121Y1920D01*
X1121Y1921D01*
X1121Y1921D01*
X1121Y1922D01*
Y1922D01*
X1121Y1923D01*
X1121Y1923D01*
X1121Y1923D01*
X1120Y1924D01*
X1120Y1925D01*
X1120Y1925D01*
X1120Y1926D01*
X1120Y1926D01*
X1119Y1926D01*
X1119Y1926D01*
X1119Y1926D01*
X1119Y1927D01*
X1118Y1927D01*
X1118Y1927D01*
X1117Y1928D01*
X1117D01*
X1117Y1928D01*
X1117Y1928D01*
X1117Y1928D01*
X1116Y1928D01*
X1116Y1928D01*
X1114Y1928D01*
D02*
G37*
G36*
X1589Y2826D02*
X1588D01*
X1588Y2826D01*
X1588Y2826D01*
X1587Y2826D01*
X1587Y2826D01*
X1586Y2826D01*
X1586Y2825D01*
X1586Y2825D01*
X1585Y2825D01*
X1585Y2825D01*
X1585Y2825D01*
X1585Y2824D01*
X1584Y2824D01*
X1584Y2823D01*
X1583Y2823D01*
X1583Y2823D01*
X1583Y2823D01*
X1583Y2822D01*
X1583Y2822D01*
X1583Y2821D01*
X1582Y2821D01*
X1582Y2820D01*
X1582Y2819D01*
Y2819D01*
Y2819D01*
X1582Y2818D01*
X1582Y2818D01*
X1582Y2817D01*
X1582Y2816D01*
X1582Y2816D01*
X1581Y2815D01*
Y2813D01*
Y2813D01*
Y2813D01*
Y2813D01*
Y2813D01*
X1581Y2812D01*
X1582Y2812D01*
Y2812D01*
Y2812D01*
Y2811D01*
X1582Y2811D01*
Y2811D01*
X1582Y2810D01*
X1595Y2820D01*
Y2820D01*
X1595Y2820D01*
X1595Y2821D01*
X1595Y2821D01*
X1595Y2822D01*
X1594Y2823D01*
X1594Y2823D01*
X1594Y2823D01*
X1594Y2823D01*
X1594Y2823D01*
X1593Y2824D01*
X1593Y2824D01*
X1593Y2824D01*
X1593Y2825D01*
X1593Y2825D01*
X1592Y2825D01*
X1592Y2825D01*
X1591Y2826D01*
X1591D01*
X1591Y2826D01*
X1591Y2826D01*
X1590Y2826D01*
X1590Y2826D01*
X1590Y2826D01*
X1589Y2826D01*
D02*
G37*
G36*
X1570Y1817D02*
X1556Y1807D01*
Y1807D01*
X1556Y1807D01*
X1556Y1807D01*
X1556Y1806D01*
X1556Y1806D01*
X1557Y1805D01*
Y1805D01*
X1557Y1805D01*
X1557Y1804D01*
X1557Y1804D01*
X1558Y1804D01*
X1558Y1803D01*
X1558Y1803D01*
X1558Y1803D01*
X1559Y1803D01*
X1559Y1803D01*
X1559Y1802D01*
X1560Y1802D01*
X1560D01*
X1560Y1802D01*
X1560Y1802D01*
X1561Y1802D01*
X1561Y1802D01*
X1561Y1802D01*
X1562Y1801D01*
X1563D01*
X1563Y1802D01*
X1563Y1802D01*
X1564Y1802D01*
X1564Y1802D01*
X1565Y1802D01*
X1565Y1802D01*
X1565Y1802D01*
X1566Y1802D01*
X1566Y1803D01*
X1566Y1803D01*
X1566Y1803D01*
X1567Y1804D01*
X1567Y1804D01*
X1568Y1805D01*
X1568Y1805D01*
X1568Y1805D01*
X1568Y1805D01*
X1568Y1806D01*
X1568Y1806D01*
X1569Y1807D01*
X1569Y1808D01*
X1569Y1809D01*
Y1809D01*
X1569Y1809D01*
X1569Y1810D01*
X1569Y1810D01*
X1569Y1811D01*
X1570Y1812D01*
X1570Y1813D01*
Y1814D01*
Y1814D01*
Y1814D01*
Y1815D01*
Y1815D01*
Y1816D01*
Y1816D01*
Y1816D01*
Y1816D01*
Y1817D01*
X1570Y1817D01*
D02*
G37*
G36*
X1596Y2816D02*
X1582Y2806D01*
Y2806D01*
X1582Y2806D01*
X1583Y2806D01*
X1583Y2805D01*
X1583Y2805D01*
X1583Y2804D01*
Y2804D01*
X1583Y2804D01*
X1584Y2803D01*
X1584Y2803D01*
X1584Y2802D01*
X1585Y2802D01*
X1585Y2802D01*
X1585Y2802D01*
X1585Y2802D01*
X1585Y2802D01*
X1586Y2801D01*
X1587Y2801D01*
X1587D01*
X1587Y2801D01*
X1587Y2801D01*
X1587Y2801D01*
X1588Y2800D01*
X1588Y2800D01*
X1589Y2800D01*
X1589D01*
X1589Y2800D01*
X1590Y2800D01*
X1590Y2801D01*
X1591Y2801D01*
X1591Y2801D01*
X1592Y2801D01*
X1592Y2801D01*
X1592Y2801D01*
X1592Y2801D01*
X1593Y2802D01*
X1593Y2802D01*
X1593Y2802D01*
X1594Y2803D01*
X1594Y2804D01*
X1594Y2804D01*
X1594Y2804D01*
X1594Y2804D01*
X1595Y2805D01*
X1595Y2805D01*
X1595Y2806D01*
X1595Y2807D01*
X1596Y2808D01*
Y2808D01*
X1596Y2808D01*
X1596Y2809D01*
X1596Y2809D01*
X1596Y2810D01*
X1596Y2811D01*
X1596Y2812D01*
Y2813D01*
Y2813D01*
Y2813D01*
Y2814D01*
Y2814D01*
Y2815D01*
Y2815D01*
Y2815D01*
Y2815D01*
Y2815D01*
X1596Y2816D01*
D02*
G37*
G36*
X1596Y2419D02*
X1585D01*
Y2402D01*
X1596Y2419D01*
D02*
G37*
G36*
X1540Y2925D02*
X1536D01*
X1535Y2925D01*
X1535Y2925D01*
X1534Y2925D01*
X1533Y2925D01*
X1532Y2924D01*
X1531Y2924D01*
X1530Y2923D01*
X1529Y2922D01*
X1528Y2921D01*
X1527Y2920D01*
X1527Y2920D01*
X1526Y2919D01*
X1526Y2918D01*
X1526Y2917D01*
X1526Y2916D01*
X1525Y2915D01*
X1525Y2914D01*
X1525Y2913D01*
Y2913D01*
Y2913D01*
Y2913D01*
Y2913D01*
X1525Y2912D01*
Y2911D01*
X1526Y2910D01*
X1526Y2909D01*
X1526Y2908D01*
X1526Y2907D01*
Y2907D01*
X1526Y2907D01*
X1526Y2907D01*
X1526Y2907D01*
X1527Y2906D01*
X1527Y2905D01*
X1527Y2905D01*
X1528Y2904D01*
X1528Y2904D01*
X1528Y2903D01*
X1528Y2903D01*
X1528Y2903D01*
X1529Y2903D01*
X1529Y2902D01*
X1530Y2902D01*
X1531Y2902D01*
X1531Y2901D01*
X1531Y2901D01*
X1532Y2901D01*
X1532Y2901D01*
X1533Y2901D01*
X1533Y2901D01*
X1534Y2901D01*
X1535Y2901D01*
X1540D01*
Y2925D01*
D02*
G37*
%LPD*%
M02*
