%FSLAX23Y23*%
%MOIN*%
G70*
G01*
G75*
G04 Layer_Color=32896*
%ADD10C,0.006*%
%ADD11C,0.060*%
%ADD12C,0.020*%
%ADD13C,0.024*%
%ADD14R,0.047X0.012*%
%ADD15C,0.039*%
%ADD16R,0.039X0.022*%
%ADD17R,0.030X0.035*%
%ADD18R,0.035X0.024*%
%ADD19R,0.035X0.031*%
%ADD20C,0.020*%
%ADD21R,0.047X0.051*%
%ADD22C,0.068*%
%ADD23R,0.055X0.020*%
%ADD24C,0.047*%
%ADD25R,0.047X0.030*%
%ADD26R,0.038X0.043*%
%ADD27R,0.043X0.032*%
%ADD28R,0.043X0.039*%
%ADD29C,0.010*%
%ADD30C,0.008*%
G36*
X2206Y1078D02*
X2207Y1078D01*
X2208Y1078D01*
X2208Y1078D01*
X2209Y1078D01*
X2209Y1078D01*
X2210Y1078D01*
X2210Y1078D01*
X2210Y1077D01*
X2211Y1077D01*
X2211Y1077D01*
X2212Y1076D01*
X2212Y1076D01*
X2213Y1076D01*
X2213Y1076D01*
X2213Y1076D01*
X2213Y1075D01*
X2214Y1075D01*
X2214Y1075D01*
X2214Y1074D01*
X2214Y1074D01*
X2214Y1074D01*
X2214Y1074D01*
Y1073D01*
X2215Y1073D01*
X2215Y1072D01*
X2215Y1072D01*
X2215Y1072D01*
Y1071D01*
Y1071D01*
Y1071D01*
Y1071D01*
X2215Y1070D01*
X2215Y1070D01*
X2215Y1069D01*
X2214Y1069D01*
X2214Y1069D01*
X2214Y1069D01*
Y1068D01*
X2214Y1068D01*
X2213Y1067D01*
X2213Y1067D01*
X2213Y1067D01*
X2213Y1067D01*
X2213Y1066D01*
X2212Y1066D01*
X2211Y1065D01*
X2211Y1065D01*
X2210Y1065D01*
X2210Y1065D01*
X2210Y1065D01*
X2209Y1065D01*
X2209Y1064D01*
X2208Y1064D01*
X2208Y1064D01*
X2207Y1064D01*
X2207Y1064D01*
X2207D01*
X2206Y1064D01*
X2206Y1063D01*
X2205Y1063D01*
X2205Y1063D01*
X2204Y1063D01*
X2204Y1063D01*
X2204Y1063D01*
X2204D01*
X2203Y1063D01*
X2203Y1062D01*
X2202Y1062D01*
X2202Y1062D01*
X2202Y1062D01*
X2202Y1062D01*
X2202Y1062D01*
X2201Y1061D01*
X2201Y1061D01*
X2201Y1061D01*
X2201Y1061D01*
X2201Y1060D01*
X2201Y1060D01*
X2201Y1060D01*
Y1060D01*
Y1060D01*
X2201Y1059D01*
X2201Y1059D01*
X2201Y1058D01*
X2201Y1058D01*
X2202Y1057D01*
X2202Y1057D01*
X2202Y1057D01*
X2202Y1057D01*
X2203Y1057D01*
X2203Y1057D01*
X2204Y1057D01*
X2205Y1056D01*
X2206Y1056D01*
X2206Y1056D01*
X2207D01*
X2208Y1056D01*
X2209Y1056D01*
X2210Y1056D01*
X2210D01*
X2211Y1057D01*
X2211Y1057D01*
X2211D01*
X2212Y1057D01*
X2213Y1057D01*
X2214Y1057D01*
X2214Y1057D01*
X2215Y1057D01*
X2215Y1058D01*
X2215D01*
Y1054D01*
X2214Y1053D01*
X2213Y1053D01*
X2212Y1053D01*
X2212Y1053D01*
X2211Y1053D01*
X2211Y1053D01*
X2211D01*
X2209Y1053D01*
X2209Y1053D01*
X2208D01*
X2207Y1053D01*
X2206D01*
X2206Y1053D01*
X2205Y1053D01*
X2205Y1053D01*
X2204D01*
X2204Y1053D01*
X2204D01*
X2203Y1053D01*
X2203Y1053D01*
X2202Y1053D01*
X2202Y1053D01*
X2202Y1053D01*
X2202Y1053D01*
X2202D01*
X2201Y1054D01*
X2200Y1054D01*
X2200Y1054D01*
X2200Y1054D01*
X2200Y1054D01*
X2200D01*
X2199Y1055D01*
X2198Y1055D01*
X2198Y1055D01*
X2198Y1056D01*
X2198Y1056D01*
X2198Y1056D01*
X2197Y1056D01*
X2197Y1057D01*
X2197Y1057D01*
X2197Y1057D01*
X2197Y1057D01*
Y1058D01*
X2196Y1058D01*
X2196Y1059D01*
X2196Y1059D01*
Y1060D01*
Y1060D01*
Y1060D01*
X2196Y1061D01*
X2196Y1061D01*
X2196Y1062D01*
X2196Y1062D01*
X2197Y1062D01*
X2197Y1062D01*
Y1062D01*
X2197Y1063D01*
X2197Y1063D01*
X2197Y1064D01*
X2198Y1064D01*
X2198Y1064D01*
X2198Y1064D01*
X2198Y1064D01*
X2199Y1065D01*
X2199Y1065D01*
X2200Y1066D01*
X2200Y1066D01*
X2200Y1066D01*
X2200Y1066D01*
X2201Y1066D01*
X2202Y1066D01*
X2202Y1067D01*
X2203Y1067D01*
X2203Y1067D01*
X2204Y1067D01*
X2204Y1067D01*
X2204Y1067D01*
X2205Y1067D01*
X2205Y1068D01*
X2206Y1068D01*
X2206Y1068D01*
X2207Y1068D01*
X2207Y1068D01*
X2207Y1068D01*
X2207D01*
X2208Y1068D01*
X2208Y1069D01*
X2208Y1069D01*
X2209Y1069D01*
X2209Y1069D01*
X2209Y1069D01*
X2209Y1069D01*
X2209D01*
X2210Y1070D01*
X2210Y1070D01*
X2210Y1070D01*
X2210Y1070D01*
X2210Y1071D01*
X2210Y1071D01*
X2210Y1071D01*
Y1071D01*
Y1071D01*
X2210Y1072D01*
X2210Y1072D01*
X2210Y1073D01*
X2210Y1073D01*
X2210Y1073D01*
X2210Y1073D01*
X2209Y1074D01*
X2209Y1074D01*
X2209Y1074D01*
X2208Y1074D01*
X2208Y1074D01*
X2208Y1074D01*
X2208Y1074D01*
X2207D01*
X2207Y1075D01*
X2206Y1075D01*
X2205Y1075D01*
X2205D01*
X2204Y1075D01*
X2203Y1075D01*
X2203D01*
X2202Y1075D01*
X2202Y1074D01*
X2202Y1074D01*
X2202D01*
X2200Y1074D01*
X2200Y1074D01*
X2199Y1074D01*
X2199Y1074D01*
X2198Y1074D01*
X2198Y1074D01*
X2198D01*
Y1078D01*
X2199Y1078D01*
X2199Y1078D01*
X2200Y1078D01*
X2200Y1078D01*
X2201Y1078D01*
X2201D01*
X2201Y1078D01*
X2202D01*
X2203Y1078D01*
X2203D01*
X2204Y1078D01*
X2205D01*
X2206Y1078D01*
D02*
G37*
G36*
X1957D02*
X1958Y1078D01*
X1958Y1078D01*
X1959Y1078D01*
X1960Y1078D01*
X1960Y1078D01*
X1960Y1078D01*
X1961Y1078D01*
X1961Y1077D01*
X1962Y1077D01*
X1962Y1077D01*
X1963Y1076D01*
X1963Y1076D01*
X1963Y1076D01*
X1964Y1076D01*
X1964Y1076D01*
X1964Y1075D01*
X1964Y1075D01*
X1965Y1075D01*
X1965Y1074D01*
X1965Y1074D01*
X1965Y1074D01*
X1965Y1074D01*
Y1073D01*
X1966Y1073D01*
X1966Y1072D01*
X1966Y1072D01*
X1966Y1072D01*
Y1071D01*
Y1071D01*
Y1071D01*
Y1071D01*
X1966Y1070D01*
X1966Y1070D01*
X1965Y1069D01*
X1965Y1069D01*
X1965Y1069D01*
X1965Y1069D01*
Y1068D01*
X1965Y1068D01*
X1964Y1067D01*
X1964Y1067D01*
X1964Y1067D01*
X1964Y1067D01*
X1964Y1066D01*
X1963Y1066D01*
X1962Y1065D01*
X1962Y1065D01*
X1961Y1065D01*
X1961Y1065D01*
X1961Y1065D01*
X1960Y1065D01*
X1959Y1064D01*
X1959Y1064D01*
X1959Y1064D01*
X1958Y1064D01*
X1958Y1064D01*
X1958D01*
X1957Y1064D01*
X1957Y1063D01*
X1956Y1063D01*
X1955Y1063D01*
X1955Y1063D01*
X1955Y1063D01*
X1955Y1063D01*
X1954D01*
X1954Y1063D01*
X1954Y1062D01*
X1953Y1062D01*
X1953Y1062D01*
X1953Y1062D01*
X1953Y1062D01*
X1953Y1062D01*
X1952Y1061D01*
X1952Y1061D01*
X1952Y1061D01*
X1952Y1061D01*
X1952Y1060D01*
X1951Y1060D01*
X1951Y1060D01*
Y1060D01*
Y1060D01*
X1951Y1059D01*
X1952Y1059D01*
X1952Y1058D01*
X1952Y1058D01*
X1952Y1057D01*
X1953Y1057D01*
X1953Y1057D01*
X1953Y1057D01*
X1954Y1057D01*
X1954Y1057D01*
X1955Y1057D01*
X1956Y1056D01*
X1956Y1056D01*
X1957Y1056D01*
X1957D01*
X1959Y1056D01*
X1960Y1056D01*
X1960Y1056D01*
X1961D01*
X1961Y1057D01*
X1962Y1057D01*
X1962D01*
X1963Y1057D01*
X1964Y1057D01*
X1965Y1057D01*
X1965Y1057D01*
X1966Y1057D01*
X1966Y1058D01*
X1966D01*
Y1054D01*
X1965Y1053D01*
X1964Y1053D01*
X1963Y1053D01*
X1963Y1053D01*
X1962Y1053D01*
X1962Y1053D01*
X1962D01*
X1960Y1053D01*
X1960Y1053D01*
X1959D01*
X1958Y1053D01*
X1957D01*
X1956Y1053D01*
X1956Y1053D01*
X1955Y1053D01*
X1955D01*
X1955Y1053D01*
X1955D01*
X1954Y1053D01*
X1954Y1053D01*
X1953Y1053D01*
X1953Y1053D01*
X1953Y1053D01*
X1953Y1053D01*
X1953D01*
X1952Y1054D01*
X1951Y1054D01*
X1951Y1054D01*
X1951Y1054D01*
X1951Y1054D01*
X1951D01*
X1950Y1055D01*
X1949Y1055D01*
X1949Y1055D01*
X1949Y1056D01*
X1949Y1056D01*
X1949Y1056D01*
X1948Y1056D01*
X1948Y1057D01*
X1948Y1057D01*
X1948Y1057D01*
X1948Y1057D01*
Y1058D01*
X1947Y1058D01*
X1947Y1059D01*
X1947Y1059D01*
Y1060D01*
Y1060D01*
Y1060D01*
X1947Y1061D01*
X1947Y1061D01*
X1947Y1062D01*
X1947Y1062D01*
X1947Y1062D01*
X1947Y1062D01*
Y1062D01*
X1948Y1063D01*
X1948Y1063D01*
X1948Y1064D01*
X1948Y1064D01*
X1949Y1064D01*
X1949Y1064D01*
X1949Y1064D01*
X1950Y1065D01*
X1950Y1065D01*
X1951Y1066D01*
X1951Y1066D01*
X1951Y1066D01*
X1951Y1066D01*
X1952Y1066D01*
X1952Y1066D01*
X1953Y1067D01*
X1954Y1067D01*
X1954Y1067D01*
X1955Y1067D01*
X1955Y1067D01*
X1955Y1067D01*
X1956Y1067D01*
X1956Y1068D01*
X1957Y1068D01*
X1957Y1068D01*
X1958Y1068D01*
X1958Y1068D01*
X1958Y1068D01*
X1958D01*
X1959Y1068D01*
X1959Y1069D01*
X1959Y1069D01*
X1960Y1069D01*
X1960Y1069D01*
X1960Y1069D01*
X1960Y1069D01*
X1960D01*
X1961Y1070D01*
X1961Y1070D01*
X1961Y1070D01*
X1961Y1070D01*
X1961Y1071D01*
X1961Y1071D01*
X1961Y1071D01*
Y1071D01*
Y1071D01*
X1961Y1072D01*
X1961Y1072D01*
X1961Y1073D01*
X1961Y1073D01*
X1961Y1073D01*
X1961Y1073D01*
X1960Y1074D01*
X1960Y1074D01*
X1960Y1074D01*
X1959Y1074D01*
X1959Y1074D01*
X1958Y1074D01*
X1958Y1074D01*
X1958D01*
X1957Y1075D01*
X1957Y1075D01*
X1956Y1075D01*
X1956D01*
X1955Y1075D01*
X1954Y1075D01*
X1954D01*
X1953Y1075D01*
X1953Y1074D01*
X1953Y1074D01*
X1952D01*
X1951Y1074D01*
X1950Y1074D01*
X1950Y1074D01*
X1949Y1074D01*
X1949Y1074D01*
X1949Y1074D01*
X1949D01*
Y1078D01*
X1949Y1078D01*
X1950Y1078D01*
X1951Y1078D01*
X1951Y1078D01*
X1952Y1078D01*
X1952D01*
X1952Y1078D01*
X1952D01*
X1954Y1078D01*
X1954D01*
X1955Y1078D01*
X1956D01*
X1957Y1078D01*
D02*
G37*
G36*
X2161Y1067D02*
X2144Y1053D01*
X2142Y1055D01*
X2155Y1067D01*
X2142Y1078D01*
X2144Y1080D01*
X2161Y1067D01*
D02*
G37*
G36*
X1605Y1078D02*
X1592Y1066D01*
X1605Y1055D01*
X1603Y1053D01*
X1586Y1067D01*
X1603Y1080D01*
X1605Y1078D01*
D02*
G37*
G36*
X1467Y1069D02*
X1461D01*
X1460Y1069D01*
X1459Y1069D01*
X1457Y1068D01*
X1457Y1068D01*
X1456Y1068D01*
X1455Y1068D01*
X1455Y1068D01*
X1455Y1067D01*
X1454Y1067D01*
X1454Y1066D01*
X1453Y1065D01*
X1453Y1065D01*
X1453Y1064D01*
X1453Y1064D01*
X1453Y1063D01*
Y1063D01*
Y1063D01*
Y1063D01*
Y1063D01*
X1453Y1062D01*
X1453Y1062D01*
X1453Y1061D01*
X1453Y1061D01*
X1453Y1061D01*
X1453Y1060D01*
X1453Y1060D01*
X1454Y1059D01*
X1454Y1059D01*
X1455Y1059D01*
X1455Y1059D01*
X1455Y1058D01*
X1455Y1058D01*
X1455Y1058D01*
X1456Y1058D01*
X1457Y1057D01*
X1457Y1057D01*
X1458Y1057D01*
X1458Y1057D01*
X1458D01*
X1459Y1057D01*
X1460Y1057D01*
X1460Y1056D01*
X1461Y1056D01*
X1463D01*
X1463Y1056D01*
X1464D01*
X1465Y1057D01*
X1465D01*
X1465Y1057D01*
X1466Y1057D01*
X1467Y1057D01*
X1467Y1057D01*
X1467Y1057D01*
X1468Y1057D01*
X1468Y1057D01*
X1468D01*
Y1053D01*
X1467Y1053D01*
X1467D01*
X1467Y1053D01*
X1466D01*
X1466Y1053D01*
X1465Y1053D01*
X1465Y1053D01*
X1465D01*
X1464Y1053D01*
X1464D01*
X1464Y1053D01*
X1463D01*
X1463Y1053D01*
X1462D01*
X1461Y1053D01*
X1460Y1053D01*
X1459Y1053D01*
X1458Y1053D01*
X1457Y1053D01*
X1457Y1053D01*
X1457Y1053D01*
X1456Y1053D01*
X1456Y1054D01*
X1455Y1054D01*
X1454Y1055D01*
X1453Y1055D01*
X1453Y1055D01*
X1453Y1055D01*
X1452Y1056D01*
X1452Y1056D01*
X1452Y1056D01*
X1451Y1057D01*
X1450Y1057D01*
X1450Y1058D01*
X1450Y1058D01*
X1449Y1059D01*
X1449Y1059D01*
X1449Y1059D01*
X1449Y1060D01*
X1449Y1061D01*
X1449Y1061D01*
X1448Y1062D01*
X1448Y1063D01*
X1448Y1063D01*
Y1063D01*
Y1063D01*
X1448Y1064D01*
X1448Y1065D01*
X1449Y1066D01*
X1449Y1067D01*
X1449Y1067D01*
X1449Y1068D01*
X1449Y1068D01*
X1449Y1068D01*
X1450Y1068D01*
X1450Y1069D01*
X1451Y1069D01*
X1451Y1070D01*
X1451Y1070D01*
X1452Y1070D01*
X1452Y1071D01*
X1452Y1071D01*
X1453Y1071D01*
X1453Y1071D01*
X1454Y1072D01*
X1455Y1072D01*
X1455Y1072D01*
X1456Y1072D01*
X1456Y1072D01*
X1456D01*
X1458Y1072D01*
X1458Y1072D01*
X1459Y1072D01*
X1460Y1073D01*
X1463D01*
Y1082D01*
X1450D01*
Y1085D01*
X1467D01*
Y1069D01*
D02*
G37*
G36*
X1983Y1088D02*
X1984Y1088D01*
X1985Y1088D01*
X1985Y1088D01*
X1986Y1088D01*
X1986Y1087D01*
X1987Y1087D01*
X1987Y1087D01*
X1987Y1087D01*
X1988Y1086D01*
X1989Y1086D01*
X1989Y1086D01*
X1990Y1085D01*
X1990Y1085D01*
X1990Y1085D01*
X1990Y1085D01*
X1991Y1084D01*
X1992Y1083D01*
X1992Y1083D01*
X1993Y1082D01*
X1993Y1081D01*
X1993Y1081D01*
X1994Y1081D01*
X1994Y1081D01*
Y1080D01*
X1994Y1080D01*
X1995Y1079D01*
X1995Y1078D01*
X1995Y1077D01*
X1996Y1076D01*
X1996Y1076D01*
X1996Y1075D01*
X1996Y1075D01*
X1996Y1075D01*
Y1075D01*
X1997Y1073D01*
X1997Y1072D01*
X1997Y1071D01*
X1997Y1070D01*
X1997Y1070D01*
X1997Y1069D01*
X1997Y1069D01*
X1997Y1069D01*
Y1069D01*
Y1069D01*
X1998Y1067D01*
X1998Y1066D01*
X1998Y1065D01*
X1998Y1064D01*
X1998Y1063D01*
Y1063D01*
Y1062D01*
Y1062D01*
Y1062D01*
Y1062D01*
Y1062D01*
X1998Y1060D01*
X1998Y1058D01*
X1998Y1057D01*
X1997Y1056D01*
X1997Y1054D01*
X1997Y1053D01*
X1997Y1052D01*
X1996Y1051D01*
X1996Y1050D01*
X1996Y1050D01*
X1996Y1049D01*
X1995Y1049D01*
X1995Y1048D01*
X1995Y1048D01*
X1995Y1048D01*
X1995Y1048D01*
X1994Y1047D01*
X1994Y1046D01*
X1993Y1046D01*
X1992Y1045D01*
X1991Y1044D01*
X1991Y1044D01*
X1990Y1044D01*
X1989Y1044D01*
X1988Y1043D01*
X1988Y1043D01*
X1987Y1043D01*
X1987Y1043D01*
X1986D01*
X1986Y1043D01*
X1985D01*
X1984Y1043D01*
X1983Y1043D01*
X1983Y1043D01*
X1982Y1043D01*
X1982Y1043D01*
X1981Y1043D01*
X1981D01*
X1980Y1044D01*
X1979Y1044D01*
X1979Y1044D01*
X1978Y1045D01*
X1978Y1045D01*
X1977Y1045D01*
X1977Y1045D01*
Y1048D01*
X1978Y1048D01*
X1979Y1047D01*
X1980Y1047D01*
X1980Y1047D01*
X1981Y1047D01*
X1981Y1047D01*
X1981Y1046D01*
X1981D01*
X1983Y1046D01*
X1983Y1046D01*
X1984Y1046D01*
X1985D01*
X1985Y1046D01*
X1985D01*
X1986Y1046D01*
X1987Y1046D01*
X1988Y1046D01*
X1988Y1047D01*
X1989Y1047D01*
X1990Y1048D01*
X1991Y1049D01*
X1992Y1049D01*
X1992Y1049D01*
X1992Y1050D01*
X1992Y1050D01*
X1992Y1050D01*
X1992Y1051D01*
X1993Y1051D01*
X1993Y1052D01*
X1993Y1053D01*
X1994Y1055D01*
X1994Y1057D01*
X1994Y1058D01*
X1994Y1059D01*
X1994Y1060D01*
Y1060D01*
X1994Y1061D01*
Y1061D01*
Y1062D01*
Y1062D01*
Y1063D01*
X1994Y1064D01*
X1994Y1065D01*
X1994Y1066D01*
X1994Y1067D01*
X1994Y1067D01*
Y1068D01*
X1994Y1068D01*
Y1068D01*
Y1068D01*
X1994Y1069D01*
X1994Y1070D01*
X1993Y1071D01*
X1993Y1072D01*
X1993Y1072D01*
X1993Y1073D01*
X1993Y1073D01*
X1993Y1073D01*
Y1073D01*
X1992Y1074D01*
X1992Y1075D01*
X1992Y1076D01*
X1992Y1077D01*
X1991Y1077D01*
X1991Y1078D01*
X1991Y1078D01*
X1991Y1078D01*
X1990Y1079D01*
X1990Y1080D01*
X1990Y1080D01*
X1989Y1081D01*
X1989Y1081D01*
X1989Y1082D01*
X1989Y1082D01*
X1989Y1082D01*
X1988Y1082D01*
X1987Y1083D01*
X1987Y1083D01*
X1987Y1084D01*
X1986Y1084D01*
X1986Y1084D01*
X1986Y1084D01*
X1986Y1084D01*
X1985Y1085D01*
X1984Y1085D01*
X1984Y1085D01*
X1983Y1085D01*
X1983Y1085D01*
X1983Y1085D01*
X1982D01*
X1982Y1085D01*
X1981Y1085D01*
X1980Y1085D01*
X1980Y1085D01*
X1979Y1084D01*
X1979Y1084D01*
X1979Y1084D01*
X1979Y1084D01*
X1978Y1084D01*
X1978Y1083D01*
X1977Y1083D01*
X1977Y1082D01*
X1977Y1082D01*
X1976Y1081D01*
X1976Y1081D01*
X1976Y1081D01*
X1976Y1080D01*
X1976Y1080D01*
X1975Y1079D01*
X1975Y1078D01*
X1975Y1077D01*
X1975Y1077D01*
X1975Y1077D01*
Y1077D01*
Y1076D01*
X1975Y1075D01*
X1974Y1074D01*
X1974Y1073D01*
X1974Y1072D01*
X1974Y1071D01*
Y1071D01*
Y1071D01*
Y1070D01*
Y1070D01*
Y1070D01*
Y1070D01*
Y1069D01*
X1974Y1068D01*
X1974Y1067D01*
X1974Y1066D01*
X1974Y1066D01*
X1975Y1065D01*
X1975Y1065D01*
Y1065D01*
Y1065D01*
X1975Y1064D01*
X1975Y1063D01*
X1975Y1062D01*
X1975Y1062D01*
X1975Y1061D01*
X1975Y1061D01*
X1975Y1061D01*
Y1061D01*
X1976Y1060D01*
X1976Y1060D01*
X1976Y1059D01*
X1976Y1059D01*
X1976Y1059D01*
X1976Y1059D01*
X1976Y1059D01*
X1976Y1059D01*
X1977Y1058D01*
X1977Y1058D01*
X1977Y1058D01*
X1978Y1058D01*
X1978D01*
X1978Y1058D01*
X1978Y1058D01*
X1979Y1058D01*
X1979Y1058D01*
X1979Y1058D01*
X1979Y1059D01*
X1979Y1059D01*
X1979Y1059D01*
X1979Y1059D01*
X1979Y1060D01*
Y1060D01*
Y1060D01*
Y1060D01*
Y1061D01*
X1979Y1061D01*
X1979Y1062D01*
X1979Y1063D01*
Y1063D01*
X1979Y1063D01*
Y1063D01*
X1977Y1076D01*
X1980Y1075D01*
X1981Y1075D01*
X1981Y1075D01*
X1981Y1076D01*
X1981Y1076D01*
X1981D01*
X1982Y1076D01*
X1983Y1076D01*
X1983Y1076D01*
X1983D01*
X1984Y1076D01*
X1984Y1076D01*
X1985Y1076D01*
X1985Y1076D01*
X1985Y1075D01*
X1986Y1075D01*
X1986Y1075D01*
X1986Y1075D01*
X1987Y1075D01*
X1987Y1074D01*
X1987Y1074D01*
X1988Y1074D01*
X1988Y1074D01*
X1988Y1073D01*
X1988Y1073D01*
X1989Y1073D01*
X1989Y1072D01*
X1989Y1071D01*
X1989Y1071D01*
X1990Y1071D01*
X1990Y1071D01*
X1990Y1070D01*
X1990Y1069D01*
X1990Y1069D01*
X1990Y1068D01*
X1991Y1068D01*
X1991Y1068D01*
Y1068D01*
X1991Y1067D01*
X1991Y1066D01*
X1991Y1066D01*
X1991Y1065D01*
Y1065D01*
X1991Y1065D01*
Y1065D01*
X1991Y1064D01*
Y1063D01*
X1991Y1063D01*
Y1062D01*
Y1062D01*
Y1062D01*
Y1062D01*
X1991Y1061D01*
X1991Y1059D01*
X1991Y1059D01*
X1991Y1058D01*
X1990Y1057D01*
X1990Y1057D01*
X1990Y1056D01*
X1990Y1056D01*
X1990Y1056D01*
X1989Y1055D01*
X1989Y1055D01*
X1988Y1055D01*
X1987Y1055D01*
X1987Y1055D01*
X1987Y1055D01*
X1987D01*
X1986Y1055D01*
X1986Y1055D01*
X1985Y1055D01*
X1985Y1055D01*
X1984Y1055D01*
X1984Y1055D01*
X1984Y1055D01*
X1984Y1055D01*
X1984Y1056D01*
X1983Y1056D01*
X1983Y1057D01*
X1982Y1058D01*
X1982Y1058D01*
X1982Y1058D01*
X1982Y1058D01*
X1982Y1058D01*
X1982Y1057D01*
X1982Y1057D01*
X1982Y1056D01*
X1981Y1056D01*
X1981Y1056D01*
X1981Y1056D01*
X1981Y1056D01*
X1981Y1055D01*
X1980Y1055D01*
X1980Y1055D01*
X1979Y1055D01*
X1979Y1055D01*
X1979Y1055D01*
X1978D01*
X1978Y1055D01*
X1977Y1055D01*
X1977Y1055D01*
X1976Y1055D01*
X1976Y1055D01*
X1975Y1055D01*
X1975Y1055D01*
X1975Y1056D01*
X1975Y1056D01*
X1974Y1056D01*
X1974Y1057D01*
X1974Y1057D01*
X1973Y1058D01*
X1973Y1058D01*
X1973Y1058D01*
X1973Y1058D01*
X1973Y1059D01*
X1972Y1060D01*
X1972Y1061D01*
X1972Y1062D01*
X1972Y1062D01*
X1972Y1063D01*
X1971Y1063D01*
X1971Y1063D01*
Y1063D01*
Y1063D01*
X1971Y1065D01*
X1971Y1066D01*
X1971Y1067D01*
X1971Y1068D01*
X1971Y1069D01*
Y1069D01*
X1971Y1070D01*
Y1070D01*
Y1070D01*
Y1071D01*
Y1071D01*
X1971Y1072D01*
X1971Y1073D01*
X1971Y1075D01*
X1971Y1076D01*
X1971Y1076D01*
X1971Y1077D01*
X1971Y1077D01*
X1971Y1077D01*
X1971Y1078D01*
Y1078D01*
X1972Y1078D01*
Y1078D01*
X1972Y1079D01*
X1972Y1080D01*
X1972Y1081D01*
X1973Y1082D01*
X1973Y1083D01*
X1973Y1083D01*
X1974Y1083D01*
X1974Y1084D01*
X1974Y1084D01*
X1975Y1085D01*
X1975Y1086D01*
X1976Y1086D01*
X1976Y1087D01*
X1977Y1087D01*
X1977Y1087D01*
X1977Y1087D01*
X1978Y1087D01*
X1979Y1088D01*
X1980Y1088D01*
X1980Y1088D01*
X1981Y1088D01*
X1982Y1088D01*
X1982D01*
X1983Y1088D01*
D02*
G37*
G36*
X1736Y1078D02*
X1737Y1078D01*
X1738Y1078D01*
X1739Y1078D01*
X1739Y1078D01*
X1740Y1077D01*
X1740Y1077D01*
X1740Y1077D01*
X1741Y1077D01*
X1741Y1076D01*
X1742Y1076D01*
X1743Y1076D01*
X1743Y1075D01*
X1743Y1075D01*
X1744Y1075D01*
X1744Y1075D01*
X1744Y1074D01*
X1745Y1073D01*
X1745Y1073D01*
X1745Y1072D01*
X1746Y1071D01*
X1746Y1071D01*
X1746Y1071D01*
X1746Y1071D01*
Y1071D01*
X1746Y1070D01*
X1746Y1069D01*
X1747Y1068D01*
X1747Y1067D01*
X1747Y1066D01*
X1747Y1066D01*
Y1066D01*
Y1065D01*
Y1065D01*
Y1065D01*
X1747Y1064D01*
X1747Y1063D01*
X1747Y1062D01*
X1746Y1061D01*
X1746Y1061D01*
X1746Y1060D01*
X1746Y1060D01*
X1746Y1060D01*
Y1060D01*
X1746Y1059D01*
X1745Y1058D01*
X1745Y1058D01*
X1745Y1057D01*
X1744Y1057D01*
X1744Y1056D01*
X1744Y1056D01*
X1744Y1056D01*
X1743Y1055D01*
X1743Y1055D01*
X1742Y1054D01*
X1742Y1054D01*
X1741Y1054D01*
X1741Y1054D01*
X1740Y1054D01*
X1740Y1054D01*
X1739Y1053D01*
X1739Y1053D01*
X1738Y1053D01*
X1737Y1053D01*
X1736Y1053D01*
X1736Y1053D01*
X1735D01*
X1734Y1053D01*
X1734Y1053D01*
X1733Y1053D01*
X1732Y1053D01*
X1731Y1053D01*
X1731Y1053D01*
X1731Y1054D01*
X1731Y1054D01*
X1730Y1054D01*
X1729Y1054D01*
X1728Y1055D01*
X1728Y1055D01*
X1727Y1056D01*
X1727Y1056D01*
X1727Y1056D01*
X1727Y1056D01*
X1726Y1057D01*
X1726Y1058D01*
X1725Y1058D01*
X1725Y1059D01*
X1725Y1060D01*
X1725Y1060D01*
X1725Y1060D01*
X1724Y1060D01*
X1724Y1061D01*
X1724Y1062D01*
X1724Y1063D01*
X1724Y1064D01*
X1724Y1065D01*
X1724Y1065D01*
Y1065D01*
Y1066D01*
Y1066D01*
Y1066D01*
X1724Y1067D01*
X1724Y1068D01*
X1724Y1069D01*
X1724Y1070D01*
X1724Y1070D01*
X1724Y1071D01*
X1724Y1071D01*
X1724Y1071D01*
X1725Y1072D01*
X1725Y1073D01*
X1726Y1073D01*
X1726Y1074D01*
X1726Y1074D01*
X1726Y1075D01*
X1727Y1075D01*
X1727Y1075D01*
X1727Y1076D01*
X1728Y1076D01*
X1728Y1076D01*
X1729Y1077D01*
X1729Y1077D01*
X1730Y1077D01*
X1730Y1077D01*
X1730Y1077D01*
X1731Y1078D01*
X1732Y1078D01*
X1733Y1078D01*
X1733Y1078D01*
X1734Y1078D01*
X1735Y1078D01*
X1735D01*
X1736Y1078D01*
D02*
G37*
G36*
X1515Y1086D02*
X1516Y1086D01*
X1516Y1085D01*
X1517Y1085D01*
X1518Y1085D01*
X1518Y1085D01*
X1519Y1085D01*
X1519Y1085D01*
X1520Y1084D01*
X1520Y1084D01*
X1521Y1083D01*
X1521Y1082D01*
X1522Y1082D01*
X1522Y1082D01*
X1522Y1081D01*
X1522Y1081D01*
X1523Y1080D01*
X1523Y1079D01*
X1524Y1079D01*
X1524Y1078D01*
X1524Y1077D01*
X1525Y1076D01*
X1525Y1076D01*
X1525Y1076D01*
X1525Y1076D01*
Y1076D01*
X1525Y1075D01*
X1525Y1074D01*
X1525Y1072D01*
X1525Y1071D01*
X1525Y1071D01*
X1525Y1070D01*
Y1070D01*
Y1070D01*
Y1069D01*
Y1069D01*
Y1069D01*
X1525Y1068D01*
X1525Y1066D01*
X1525Y1065D01*
X1525Y1064D01*
X1525Y1063D01*
X1525Y1063D01*
X1525Y1063D01*
X1525Y1062D01*
X1525Y1062D01*
Y1062D01*
X1525Y1062D01*
Y1062D01*
X1524Y1061D01*
X1524Y1060D01*
X1524Y1059D01*
X1523Y1058D01*
X1523Y1057D01*
X1523Y1057D01*
X1522Y1057D01*
X1522Y1057D01*
X1522Y1056D01*
X1521Y1055D01*
X1521Y1055D01*
X1520Y1054D01*
X1519Y1054D01*
X1519Y1054D01*
X1519Y1054D01*
X1519Y1054D01*
X1518Y1053D01*
X1517Y1053D01*
X1516Y1053D01*
X1516Y1053D01*
X1515Y1053D01*
X1514Y1053D01*
X1514D01*
X1513Y1053D01*
X1512Y1053D01*
X1511Y1053D01*
X1510Y1053D01*
X1510Y1053D01*
X1509Y1054D01*
X1509Y1054D01*
X1509Y1054D01*
X1508Y1054D01*
X1507Y1055D01*
X1507Y1055D01*
X1506Y1056D01*
X1506Y1056D01*
X1505Y1057D01*
X1505Y1057D01*
X1505Y1057D01*
X1505Y1058D01*
X1504Y1059D01*
X1504Y1060D01*
X1503Y1061D01*
X1503Y1061D01*
X1503Y1062D01*
X1503Y1062D01*
Y1062D01*
X1503Y1062D01*
Y1062D01*
X1503Y1064D01*
X1502Y1065D01*
X1502Y1066D01*
X1502Y1067D01*
X1502Y1068D01*
X1502Y1068D01*
Y1069D01*
Y1069D01*
Y1069D01*
Y1069D01*
Y1069D01*
X1502Y1071D01*
X1502Y1072D01*
X1502Y1073D01*
X1502Y1074D01*
X1503Y1075D01*
X1503Y1075D01*
X1503Y1076D01*
X1503Y1076D01*
X1503Y1076D01*
Y1076D01*
X1503Y1077D01*
Y1077D01*
X1503Y1078D01*
X1504Y1079D01*
X1504Y1080D01*
X1504Y1080D01*
X1505Y1081D01*
X1505Y1081D01*
X1505Y1082D01*
X1505Y1082D01*
X1506Y1082D01*
X1506Y1083D01*
X1507Y1084D01*
X1508Y1084D01*
X1508Y1084D01*
X1508Y1085D01*
X1509Y1085D01*
X1509Y1085D01*
X1510Y1085D01*
X1510Y1085D01*
X1511Y1086D01*
X1512Y1086D01*
X1513Y1086D01*
X1513Y1086D01*
X1513D01*
X1515Y1086D01*
D02*
G37*
G36*
X1689Y1084D02*
X1681D01*
Y1057D01*
X1689D01*
Y1053D01*
X1670D01*
Y1057D01*
X1677D01*
Y1088D01*
X1689D01*
Y1084D01*
D02*
G37*
G36*
X2092Y1078D02*
X2093Y1078D01*
X2094Y1078D01*
X2094Y1078D01*
X2095Y1077D01*
X2095Y1077D01*
X2096Y1077D01*
X2096Y1077D01*
X2097Y1077D01*
X2097Y1076D01*
X2098Y1075D01*
X2099Y1075D01*
X2099Y1074D01*
X2100Y1074D01*
X2100Y1073D01*
X2100Y1073D01*
Y1073D01*
X2100Y1078D01*
X2104D01*
Y1053D01*
X2100D01*
Y1069D01*
X2099Y1070D01*
X2099Y1070D01*
X2098Y1070D01*
X2098Y1071D01*
X2098Y1071D01*
X2098Y1071D01*
X2098Y1071D01*
X2097Y1071D01*
X2097Y1072D01*
X2096Y1073D01*
X2096Y1073D01*
X2096Y1073D01*
X2096Y1073D01*
X2096Y1073D01*
X2095Y1074D01*
X2094Y1074D01*
X2094Y1074D01*
X2094Y1074D01*
X2094Y1074D01*
X2094D01*
X2093Y1074D01*
X2093Y1074D01*
X2092Y1075D01*
X2092D01*
X2091Y1074D01*
X2091Y1074D01*
X2090Y1074D01*
X2090Y1074D01*
X2089Y1074D01*
X2089Y1073D01*
X2089Y1073D01*
X2089Y1073D01*
X2089Y1072D01*
X2088Y1072D01*
X2088Y1071D01*
X2088Y1070D01*
X2088Y1070D01*
X2088Y1069D01*
Y1069D01*
Y1069D01*
Y1068D01*
Y1068D01*
X2084D01*
Y1069D01*
X2084Y1070D01*
X2084Y1071D01*
X2084Y1072D01*
X2084Y1072D01*
X2084Y1073D01*
X2084Y1073D01*
X2085Y1074D01*
X2085Y1074D01*
X2085Y1075D01*
X2085Y1075D01*
X2085Y1075D01*
X2085Y1075D01*
X2085Y1076D01*
X2086Y1076D01*
X2086Y1076D01*
X2086Y1077D01*
X2087Y1077D01*
X2088Y1078D01*
X2089Y1078D01*
X2090Y1078D01*
X2090Y1078D01*
X2091D01*
X2091Y1078D01*
X2091D01*
X2092Y1078D01*
D02*
G37*
G36*
X2076Y1074D02*
X2069D01*
Y1057D01*
X2077D01*
Y1053D01*
X2057D01*
Y1057D01*
X2065D01*
Y1078D01*
X2076D01*
Y1074D01*
D02*
G37*
G36*
X2298Y1084D02*
X2290D01*
Y1057D01*
X2298D01*
Y1053D01*
X2279D01*
Y1057D01*
X2286D01*
Y1088D01*
X2298D01*
Y1084D01*
D02*
G37*
G36*
X2270D02*
X2263D01*
Y1057D01*
X2271D01*
Y1053D01*
X2251D01*
Y1057D01*
X2258D01*
Y1088D01*
X2270D01*
Y1084D01*
D02*
G37*
G36*
X1772Y1074D02*
X1764D01*
Y1057D01*
X1773D01*
Y1053D01*
X1753D01*
Y1057D01*
X1760D01*
Y1078D01*
X1772D01*
Y1074D01*
D02*
G37*
G36*
X1706Y1078D02*
X1707Y1078D01*
X1707Y1078D01*
X1707D01*
X1707Y1078D01*
X1707D01*
X1708Y1078D01*
X1709Y1078D01*
X1709Y1077D01*
X1709Y1077D01*
X1709Y1077D01*
X1709D01*
X1710Y1077D01*
X1711Y1076D01*
X1711Y1076D01*
X1711Y1076D01*
X1711Y1076D01*
X1711Y1076D01*
X1712Y1075D01*
X1713Y1075D01*
X1713Y1074D01*
X1713Y1074D01*
X1713Y1074D01*
X1713Y1074D01*
X1714Y1078D01*
X1717D01*
Y1053D01*
X1713D01*
Y1069D01*
X1713Y1070D01*
X1712Y1070D01*
X1712Y1071D01*
X1712Y1071D01*
X1711Y1072D01*
X1711Y1072D01*
X1711Y1072D01*
X1711Y1072D01*
X1710Y1073D01*
X1710Y1073D01*
X1710Y1073D01*
X1709Y1073D01*
X1709Y1073D01*
X1709D01*
X1709Y1074D01*
X1708Y1074D01*
X1708Y1074D01*
X1708Y1074D01*
X1708D01*
X1707Y1074D01*
X1707Y1074D01*
X1706Y1075D01*
X1706D01*
X1705Y1074D01*
X1705Y1074D01*
X1704Y1074D01*
X1704Y1074D01*
X1703Y1074D01*
X1703Y1073D01*
X1703Y1073D01*
X1703Y1073D01*
X1703Y1073D01*
X1702Y1072D01*
X1702Y1071D01*
X1702Y1071D01*
X1702Y1070D01*
X1702Y1069D01*
Y1069D01*
Y1069D01*
Y1069D01*
Y1069D01*
Y1053D01*
X1698D01*
Y1069D01*
X1698Y1071D01*
X1698Y1072D01*
X1698Y1073D01*
X1699Y1074D01*
X1699Y1075D01*
X1699Y1076D01*
X1699Y1076D01*
X1700Y1076D01*
X1700Y1077D01*
X1701Y1077D01*
X1702Y1078D01*
X1703Y1078D01*
X1704Y1078D01*
X1704Y1078D01*
X1705D01*
X1705Y1078D01*
X1705D01*
X1706Y1078D01*
D02*
G37*
G36*
X2049Y1074D02*
X2041D01*
Y1057D01*
X2049D01*
Y1053D01*
X2030D01*
Y1057D01*
X2037D01*
Y1078D01*
X2049D01*
Y1074D01*
D02*
G37*
G36*
X1845Y1078D02*
X1845Y1078D01*
X1846Y1078D01*
X1846D01*
X1846Y1078D01*
X1846D01*
X1847Y1078D01*
X1847Y1078D01*
X1847Y1077D01*
X1848Y1077D01*
X1848Y1077D01*
X1848D01*
X1849Y1077D01*
X1849Y1076D01*
X1849Y1076D01*
X1850Y1076D01*
X1850Y1076D01*
X1850Y1076D01*
X1851Y1075D01*
X1851Y1075D01*
X1852Y1074D01*
X1852Y1074D01*
X1852Y1074D01*
X1852Y1074D01*
X1852Y1078D01*
X1856D01*
Y1053D01*
X1852D01*
Y1069D01*
X1851Y1070D01*
X1851Y1070D01*
X1850Y1071D01*
X1850Y1071D01*
X1850Y1072D01*
X1850Y1072D01*
X1850Y1072D01*
X1849Y1072D01*
X1849Y1073D01*
X1848Y1073D01*
X1848Y1073D01*
X1848Y1073D01*
X1848Y1073D01*
X1848D01*
X1847Y1074D01*
X1847Y1074D01*
X1846Y1074D01*
X1846Y1074D01*
X1846D01*
X1846Y1074D01*
X1845Y1074D01*
X1845Y1075D01*
X1845D01*
X1844Y1074D01*
X1843Y1074D01*
X1843Y1074D01*
X1842Y1074D01*
X1842Y1074D01*
X1842Y1073D01*
X1841Y1073D01*
X1841Y1073D01*
X1841Y1073D01*
X1841Y1072D01*
X1841Y1071D01*
X1840Y1071D01*
X1840Y1070D01*
X1840Y1069D01*
Y1069D01*
Y1069D01*
Y1069D01*
Y1069D01*
Y1053D01*
X1836D01*
Y1069D01*
X1836Y1071D01*
X1836Y1072D01*
X1837Y1073D01*
X1837Y1074D01*
X1837Y1075D01*
X1838Y1076D01*
X1838Y1076D01*
X1838Y1076D01*
X1839Y1077D01*
X1840Y1077D01*
X1841Y1078D01*
X1842Y1078D01*
X1842Y1078D01*
X1843Y1078D01*
X1843D01*
X1843Y1078D01*
X1844D01*
X1845Y1078D01*
D02*
G37*
G36*
X2121D02*
X2122Y1078D01*
X2123Y1078D01*
X2123Y1078D01*
X2124Y1078D01*
X2124Y1077D01*
X2125Y1077D01*
X2125Y1077D01*
X2125Y1077D01*
X2126Y1076D01*
X2127Y1076D01*
X2127Y1075D01*
X2128Y1075D01*
X2128Y1074D01*
X2129Y1074D01*
X2129Y1074D01*
Y1074D01*
X2129Y1078D01*
X2133D01*
Y1043D01*
X2128D01*
Y1053D01*
X2128Y1053D01*
X2127Y1053D01*
X2127D01*
X2126Y1053D01*
X2126Y1053D01*
X2126D01*
X2125Y1053D01*
X2124Y1053D01*
X2124D01*
X2123Y1053D01*
X2122Y1053D01*
X2121Y1053D01*
X2120Y1053D01*
X2120Y1053D01*
X2119Y1054D01*
X2119Y1054D01*
X2119Y1054D01*
X2118Y1054D01*
X2117Y1054D01*
X2117Y1055D01*
X2116Y1055D01*
X2116Y1056D01*
X2115Y1056D01*
X2115Y1056D01*
X2115Y1056D01*
X2114Y1057D01*
X2114Y1057D01*
X2114Y1058D01*
X2113Y1059D01*
X2113Y1059D01*
X2113Y1060D01*
X2113Y1060D01*
X2113Y1060D01*
X2112Y1061D01*
X2112Y1062D01*
X2112Y1063D01*
X2112Y1064D01*
X2112Y1065D01*
X2112Y1065D01*
Y1066D01*
Y1066D01*
Y1066D01*
Y1066D01*
Y1067D01*
X2112Y1068D01*
X2112Y1069D01*
X2112Y1069D01*
X2112Y1070D01*
X2112Y1071D01*
X2112Y1071D01*
Y1071D01*
X2112Y1072D01*
X2113Y1073D01*
X2113Y1073D01*
X2113Y1074D01*
X2113Y1074D01*
X2114Y1075D01*
X2114Y1075D01*
X2114Y1075D01*
X2114Y1075D01*
X2115Y1076D01*
X2115Y1076D01*
X2116Y1077D01*
X2116Y1077D01*
X2116Y1077D01*
X2116Y1077D01*
X2116Y1077D01*
X2117Y1078D01*
X2118Y1078D01*
X2118Y1078D01*
X2119Y1078D01*
X2119Y1078D01*
X2120Y1078D01*
X2120D01*
X2121Y1078D01*
D02*
G37*
G36*
X2309Y1935D02*
X2310Y1935D01*
X2312Y1935D01*
X2314Y1935D01*
X2315Y1935D01*
X2316Y1934D01*
X2318Y1934D01*
X2318Y1934D01*
X2319Y1933D01*
X2320Y1933D01*
X2321Y1933D01*
X2321Y1932D01*
X2322Y1932D01*
X2322Y1932D01*
X2322Y1932D01*
X2322Y1932D01*
X2323Y1931D01*
X2324Y1930D01*
X2324Y1930D01*
X2325Y1929D01*
X2325Y1928D01*
X2325Y1928D01*
X2325Y1927D01*
X2326Y1926D01*
X2326Y1926D01*
X2326Y1925D01*
X2326Y1924D01*
X2326Y1924D01*
X2326Y1924D01*
Y1923D01*
Y1923D01*
Y1923D01*
X2326Y1921D01*
X2326Y1920D01*
X2325Y1919D01*
X2325Y1918D01*
X2325Y1917D01*
X2324Y1917D01*
X2324Y1917D01*
X2324Y1916D01*
X2324Y1916D01*
X2324Y1916D01*
Y1916D01*
X2323Y1915D01*
X2322Y1914D01*
X2321Y1913D01*
X2320Y1913D01*
X2319Y1912D01*
X2319Y1912D01*
X2318Y1912D01*
X2318Y1912D01*
X2318Y1912D01*
X2318Y1912D01*
X2318D01*
X2317Y1912D01*
X2316Y1911D01*
X2314Y1911D01*
X2312Y1911D01*
X2311Y1911D01*
X2310Y1911D01*
X2309Y1910D01*
X2308D01*
X2308Y1910D01*
X2306D01*
X2305Y1910D01*
X2304D01*
X2303Y1911D01*
X2302Y1911D01*
X2301Y1911D01*
X2301Y1911D01*
X2300Y1911D01*
X2299Y1911D01*
X2299Y1911D01*
X2299Y1911D01*
X2298Y1911D01*
X2298Y1911D01*
X2298Y1911D01*
X2298Y1911D01*
X2298D01*
X2296Y1912D01*
X2295Y1912D01*
X2294Y1912D01*
X2293Y1913D01*
X2293Y1913D01*
X2292Y1913D01*
X2292Y1914D01*
X2292Y1914D01*
X2291Y1914D01*
X2290Y1915D01*
X2290Y1916D01*
X2289Y1916D01*
X2289Y1917D01*
X2288Y1917D01*
X2288Y1917D01*
X2288Y1918D01*
Y1918D01*
X2288Y1918D01*
X2288Y1919D01*
X2287Y1920D01*
X2287Y1921D01*
X2287Y1922D01*
X2287Y1922D01*
Y1923D01*
Y1923D01*
Y1923D01*
Y1923D01*
X2287Y1924D01*
X2287Y1926D01*
X2288Y1927D01*
X2288Y1928D01*
X2289Y1929D01*
X2289Y1929D01*
X2289Y1929D01*
X2289Y1930D01*
X2289Y1930D01*
X2289Y1930D01*
Y1930D01*
X2290Y1931D01*
X2291Y1932D01*
X2292Y1932D01*
X2293Y1933D01*
X2294Y1933D01*
X2295Y1934D01*
X2295Y1934D01*
X2295Y1934D01*
X2295Y1934D01*
X2296Y1934D01*
X2296D01*
X2296Y1934D01*
X2297Y1935D01*
X2299Y1935D01*
X2301Y1935D01*
X2303Y1935D01*
X2304Y1935D01*
X2304Y1935D01*
X2305D01*
X2306Y1935D01*
X2307D01*
X2309Y1935D01*
D02*
G37*
G36*
X2326Y1875D02*
X2321D01*
Y1899D01*
X2308D01*
Y1877D01*
X2303D01*
Y1899D01*
X2292D01*
Y1876D01*
X2287D01*
Y1904D01*
X2326D01*
Y1875D01*
D02*
G37*
G36*
Y1970D02*
X2321D01*
Y1989D01*
X2320Y1989D01*
X2320Y1988D01*
X2319Y1988D01*
X2319Y1988D01*
X2319Y1988D01*
X2319Y1987D01*
X2318Y1987D01*
X2318Y1987D01*
X2318Y1987D01*
X2317Y1986D01*
X2316Y1985D01*
X2316Y1984D01*
X2315Y1983D01*
X2315Y1983D01*
X2314Y1983D01*
X2314Y1982D01*
X2314Y1982D01*
X2314Y1982D01*
X2314Y1982D01*
X2313Y1981D01*
X2312Y1980D01*
X2311Y1979D01*
X2311Y1979D01*
X2310Y1978D01*
X2310Y1977D01*
X2309Y1977D01*
X2309Y1976D01*
X2308Y1976D01*
X2308Y1976D01*
X2308Y1975D01*
X2307Y1975D01*
X2307Y1975D01*
X2307Y1975D01*
X2306Y1974D01*
X2305Y1973D01*
X2304Y1973D01*
X2304Y1972D01*
X2303Y1972D01*
X2303Y1972D01*
X2302Y1972D01*
X2302Y1971D01*
X2301Y1971D01*
X2301Y1971D01*
X2300Y1971D01*
X2299Y1971D01*
X2298Y1971D01*
X2298Y1970D01*
X2298D01*
X2297Y1971D01*
X2296Y1971D01*
X2295Y1971D01*
X2295Y1971D01*
X2293Y1972D01*
X2292Y1972D01*
X2292Y1972D01*
X2291Y1973D01*
X2291Y1973D01*
X2291Y1973D01*
X2290Y1973D01*
X2290Y1974D01*
X2290Y1974D01*
X2290Y1974D01*
X2290Y1974D01*
X2289Y1975D01*
X2289Y1976D01*
X2288Y1976D01*
X2288Y1978D01*
X2287Y1979D01*
X2287Y1980D01*
X2287Y1981D01*
X2287Y1981D01*
X2287Y1982D01*
X2287Y1982D01*
Y1982D01*
Y1982D01*
Y1983D01*
X2287Y1984D01*
X2287Y1984D01*
X2287Y1985D01*
X2287Y1986D01*
X2288Y1987D01*
X2288Y1988D01*
X2288Y1988D01*
X2288Y1989D01*
X2289Y1989D01*
X2289Y1990D01*
X2289Y1990D01*
X2289Y1991D01*
X2290Y1991D01*
X2290Y1991D01*
X2290Y1991D01*
X2290Y1991D01*
X2290Y1992D01*
X2291Y1992D01*
X2292Y1993D01*
X2292Y1993D01*
X2294Y1994D01*
X2295Y1994D01*
X2296Y1994D01*
X2296Y1995D01*
X2297Y1995D01*
X2297Y1995D01*
X2298Y1995D01*
X2298D01*
X2298Y1995D01*
X2298D01*
X2299Y1990D01*
X2297Y1990D01*
X2296Y1990D01*
X2295Y1989D01*
X2294Y1989D01*
X2294Y1989D01*
X2293Y1988D01*
X2293Y1988D01*
X2293Y1988D01*
X2292Y1987D01*
X2292Y1986D01*
X2291Y1985D01*
X2291Y1985D01*
X2291Y1984D01*
X2291Y1983D01*
X2291Y1983D01*
Y1983D01*
Y1983D01*
Y1983D01*
X2291Y1981D01*
X2291Y1980D01*
X2291Y1980D01*
X2292Y1979D01*
X2292Y1978D01*
X2292Y1978D01*
X2293Y1977D01*
X2293Y1977D01*
X2294Y1977D01*
X2294Y1976D01*
X2295Y1976D01*
X2296Y1976D01*
X2297Y1975D01*
X2297Y1975D01*
X2297Y1975D01*
X2298D01*
X2299Y1975D01*
X2300Y1976D01*
X2301Y1976D01*
X2301Y1976D01*
X2302Y1977D01*
X2303Y1977D01*
X2303Y1977D01*
X2303Y1977D01*
X2303Y1978D01*
X2303D01*
X2304Y1978D01*
X2304Y1979D01*
X2305Y1979D01*
X2306Y1980D01*
X2307Y1981D01*
X2308Y1983D01*
X2309Y1983D01*
X2310Y1984D01*
X2310Y1985D01*
X2311Y1985D01*
X2311Y1985D01*
X2311Y1986D01*
X2311Y1986D01*
X2311Y1986D01*
X2313Y1987D01*
X2314Y1989D01*
X2315Y1990D01*
X2316Y1991D01*
X2316Y1991D01*
X2317Y1992D01*
X2317Y1992D01*
X2317Y1992D01*
X2317D01*
X2318Y1993D01*
X2319Y1994D01*
X2320Y1994D01*
X2321Y1995D01*
X2321Y1995D01*
X2322Y1995D01*
X2322Y1995D01*
X2322Y1995D01*
X2322D01*
X2323Y1996D01*
X2323Y1996D01*
X2324Y1996D01*
X2324Y1996D01*
X2325Y1996D01*
X2326D01*
Y1970D01*
D02*
G37*
G36*
X2301Y1961D02*
X2300Y1960D01*
X2300Y1959D01*
X2300Y1958D01*
X2299Y1958D01*
X2299Y1957D01*
X2299Y1957D01*
X2299Y1957D01*
Y1957D01*
X2298Y1956D01*
X2298Y1955D01*
X2297Y1954D01*
X2297Y1954D01*
X2296Y1953D01*
X2296Y1953D01*
X2296Y1952D01*
X2296Y1952D01*
X2326D01*
Y1948D01*
X2287D01*
Y1951D01*
X2288Y1951D01*
X2289Y1952D01*
X2290Y1953D01*
X2290Y1953D01*
X2291Y1954D01*
X2292Y1954D01*
X2292Y1955D01*
X2292Y1955D01*
X2292Y1955D01*
X2292Y1955D01*
X2293Y1956D01*
X2294Y1957D01*
X2295Y1958D01*
X2295Y1959D01*
X2296Y1960D01*
X2296Y1961D01*
X2296Y1961D01*
X2296Y1961D01*
X2297Y1962D01*
X2297Y1962D01*
Y1962D01*
X2301D01*
X2301Y1961D01*
D02*
G37*
G36*
X2326Y1778D02*
X2321D01*
Y1797D01*
X2287D01*
Y1802D01*
X2326D01*
Y1778D01*
D02*
G37*
G36*
Y1767D02*
X2308D01*
Y1749D01*
X2304D01*
Y1767D01*
X2292D01*
Y1746D01*
X2287D01*
Y1772D01*
X2326D01*
Y1767D01*
D02*
G37*
G36*
X2301Y1870D02*
X2302Y1870D01*
X2303Y1870D01*
X2304Y1869D01*
X2305Y1869D01*
X2305Y1869D01*
X2306Y1869D01*
X2307Y1868D01*
X2307Y1868D01*
X2308Y1868D01*
X2308Y1867D01*
X2308Y1867D01*
X2309Y1867D01*
X2309Y1867D01*
X2309Y1867D01*
X2309Y1867D01*
X2310Y1866D01*
X2310Y1865D01*
X2311Y1865D01*
X2311Y1864D01*
X2311Y1863D01*
X2312Y1863D01*
X2312Y1861D01*
X2312Y1861D01*
X2312Y1860D01*
X2312Y1860D01*
X2312Y1859D01*
X2313Y1859D01*
Y1859D01*
Y1859D01*
Y1859D01*
X2312Y1857D01*
X2312Y1856D01*
X2312Y1856D01*
X2312Y1855D01*
X2312Y1854D01*
X2311Y1854D01*
X2311Y1853D01*
X2311Y1853D01*
X2311Y1852D01*
X2310Y1852D01*
X2309Y1851D01*
X2309Y1850D01*
X2308Y1850D01*
X2308Y1850D01*
X2308Y1849D01*
X2307Y1849D01*
X2308D01*
X2310Y1849D01*
X2311Y1849D01*
X2312Y1850D01*
X2312Y1850D01*
X2313Y1850D01*
X2314Y1850D01*
X2314Y1850D01*
X2314D01*
X2314Y1850D01*
X2314D01*
X2315Y1850D01*
X2316Y1851D01*
X2317Y1851D01*
X2318Y1851D01*
X2318Y1851D01*
X2318Y1852D01*
X2319Y1852D01*
X2319Y1852D01*
X2319Y1852D01*
X2320Y1853D01*
X2320Y1853D01*
X2321Y1854D01*
X2321Y1854D01*
X2321Y1854D01*
X2321Y1854D01*
X2321Y1854D01*
X2322Y1855D01*
X2322Y1856D01*
X2322Y1856D01*
X2322Y1857D01*
X2322Y1857D01*
X2322Y1858D01*
Y1858D01*
Y1858D01*
X2322Y1859D01*
X2322Y1860D01*
X2322Y1861D01*
X2322Y1861D01*
X2321Y1862D01*
X2321Y1862D01*
X2321Y1862D01*
X2321Y1862D01*
X2320Y1863D01*
X2320Y1863D01*
X2319Y1864D01*
X2318Y1864D01*
X2317Y1864D01*
X2317Y1864D01*
X2317Y1865D01*
X2316D01*
X2316Y1865D01*
X2316D01*
X2317Y1869D01*
X2318Y1869D01*
X2320Y1868D01*
X2321Y1868D01*
X2322Y1867D01*
X2323Y1867D01*
X2323Y1866D01*
X2323Y1866D01*
X2323Y1866D01*
X2324Y1866D01*
X2324Y1866D01*
X2324Y1866D01*
X2324Y1865D01*
X2325Y1865D01*
X2325Y1863D01*
X2326Y1862D01*
X2326Y1861D01*
X2326Y1860D01*
X2326Y1859D01*
Y1859D01*
X2326Y1859D01*
Y1859D01*
Y1858D01*
Y1858D01*
X2326Y1857D01*
X2326Y1855D01*
X2325Y1854D01*
X2325Y1853D01*
X2325Y1853D01*
X2325Y1852D01*
X2324Y1852D01*
X2324Y1852D01*
X2324Y1851D01*
X2324Y1851D01*
X2324Y1851D01*
Y1851D01*
X2323Y1850D01*
X2322Y1849D01*
X2321Y1848D01*
X2320Y1847D01*
X2319Y1847D01*
X2318Y1847D01*
X2318Y1846D01*
X2318Y1846D01*
X2318Y1846D01*
X2317Y1846D01*
X2317D01*
X2317Y1846D01*
X2316Y1846D01*
X2314Y1845D01*
X2312Y1845D01*
X2310Y1845D01*
X2309Y1845D01*
X2308Y1845D01*
X2307D01*
X2307Y1845D01*
X2304D01*
X2303Y1845D01*
X2302Y1845D01*
X2301Y1845D01*
X2300Y1845D01*
X2299Y1845D01*
X2298Y1845D01*
X2298Y1845D01*
X2297Y1846D01*
X2296Y1846D01*
X2296Y1846D01*
X2295Y1846D01*
X2295Y1846D01*
X2295Y1846D01*
X2295Y1846D01*
X2295D01*
X2293Y1847D01*
X2292Y1848D01*
X2291Y1848D01*
X2290Y1849D01*
X2290Y1850D01*
X2289Y1850D01*
X2289Y1851D01*
X2289Y1851D01*
X2289Y1851D01*
Y1851D01*
X2288Y1852D01*
X2288Y1853D01*
X2287Y1854D01*
X2287Y1856D01*
X2287Y1856D01*
X2287Y1857D01*
Y1857D01*
X2287Y1857D01*
Y1858D01*
Y1858D01*
Y1858D01*
X2287Y1859D01*
X2287Y1860D01*
X2287Y1861D01*
X2288Y1861D01*
X2288Y1863D01*
X2288Y1863D01*
X2289Y1864D01*
X2289Y1865D01*
X2289Y1865D01*
X2290Y1865D01*
X2290Y1866D01*
X2290Y1866D01*
X2290Y1866D01*
X2291Y1866D01*
X2291Y1866D01*
X2291Y1867D01*
X2292Y1868D01*
X2293Y1868D01*
X2294Y1868D01*
X2294Y1869D01*
X2295Y1869D01*
X2297Y1869D01*
X2297Y1870D01*
X2298Y1870D01*
X2299Y1870D01*
X2299Y1870D01*
X2299Y1870D01*
X2300D01*
X2301Y1870D01*
D02*
G37*
G36*
X2326Y1837D02*
X2314Y1833D01*
Y1817D01*
X2326Y1812D01*
Y1806D01*
X2287Y1822D01*
Y1828D01*
X2326Y1842D01*
Y1837D01*
D02*
G37*
G36*
X2309Y2025D02*
X2310Y2025D01*
X2312Y2025D01*
X2314Y2024D01*
X2315Y2024D01*
X2316Y2024D01*
X2318Y2024D01*
X2318Y2023D01*
X2319Y2023D01*
X2320Y2022D01*
X2321Y2022D01*
X2321Y2022D01*
X2322Y2022D01*
X2322Y2021D01*
X2322Y2021D01*
X2322Y2021D01*
X2323Y2021D01*
X2324Y2020D01*
X2324Y2019D01*
X2325Y2019D01*
X2325Y2018D01*
X2325Y2017D01*
X2325Y2016D01*
X2326Y2016D01*
X2326Y2015D01*
X2326Y2014D01*
X2326Y2014D01*
X2326Y2013D01*
X2326Y2013D01*
Y2013D01*
Y2013D01*
Y2013D01*
X2326Y2011D01*
X2326Y2010D01*
X2325Y2008D01*
X2325Y2007D01*
X2325Y2007D01*
X2324Y2006D01*
X2324Y2006D01*
X2324Y2006D01*
X2324Y2006D01*
X2324Y2006D01*
Y2006D01*
X2323Y2005D01*
X2322Y2004D01*
X2321Y2003D01*
X2320Y2002D01*
X2319Y2002D01*
X2319Y2002D01*
X2318Y2002D01*
X2318Y2002D01*
X2318Y2001D01*
X2318Y2001D01*
X2318D01*
X2317Y2001D01*
X2316Y2001D01*
X2314Y2001D01*
X2312Y2000D01*
X2311Y2000D01*
X2310Y2000D01*
X2309Y2000D01*
X2308D01*
X2308Y2000D01*
X2306D01*
X2305Y2000D01*
X2304D01*
X2303Y2000D01*
X2302Y2000D01*
X2301Y2000D01*
X2301Y2000D01*
X2300Y2000D01*
X2299Y2000D01*
X2299Y2001D01*
X2299Y2001D01*
X2298Y2001D01*
X2298Y2001D01*
X2298Y2001D01*
X2298Y2001D01*
X2298D01*
X2296Y2001D01*
X2295Y2002D01*
X2294Y2002D01*
X2293Y2002D01*
X2293Y2003D01*
X2292Y2003D01*
X2292Y2003D01*
X2292Y2003D01*
X2291Y2004D01*
X2290Y2004D01*
X2290Y2005D01*
X2289Y2006D01*
X2289Y2006D01*
X2288Y2007D01*
X2288Y2007D01*
X2288Y2007D01*
Y2007D01*
X2288Y2008D01*
X2288Y2009D01*
X2287Y2010D01*
X2287Y2011D01*
X2287Y2011D01*
X2287Y2012D01*
Y2012D01*
Y2012D01*
Y2012D01*
Y2013D01*
X2287Y2014D01*
X2287Y2015D01*
X2288Y2017D01*
X2288Y2018D01*
X2289Y2018D01*
X2289Y2019D01*
X2289Y2019D01*
X2289Y2019D01*
X2289Y2019D01*
X2289Y2019D01*
Y2020D01*
X2290Y2021D01*
X2291Y2021D01*
X2292Y2022D01*
X2293Y2023D01*
X2294Y2023D01*
X2295Y2023D01*
X2295Y2023D01*
X2295Y2024D01*
X2295Y2024D01*
X2296Y2024D01*
X2296D01*
X2296Y2024D01*
X2297Y2024D01*
X2299Y2024D01*
X2301Y2025D01*
X2303Y2025D01*
X2304Y2025D01*
X2304Y2025D01*
X2305D01*
X2306Y2025D01*
X2307D01*
X2309Y2025D01*
D02*
G37*
G36*
X2326Y2167D02*
X2321D01*
Y2186D01*
X2320Y2186D01*
X2320Y2185D01*
X2319Y2185D01*
X2319Y2185D01*
X2319Y2185D01*
X2319Y2184D01*
X2318Y2184D01*
X2318Y2184D01*
X2318Y2184D01*
X2317Y2183D01*
X2316Y2182D01*
X2316Y2181D01*
X2315Y2180D01*
X2315Y2180D01*
X2314Y2180D01*
X2314Y2179D01*
X2314Y2179D01*
X2314Y2179D01*
X2314Y2179D01*
X2313Y2178D01*
X2312Y2177D01*
X2311Y2176D01*
X2311Y2176D01*
X2310Y2175D01*
X2310Y2174D01*
X2309Y2174D01*
X2309Y2173D01*
X2308Y2173D01*
X2308Y2173D01*
X2308Y2172D01*
X2307Y2172D01*
X2307Y2172D01*
X2307Y2172D01*
X2306Y2171D01*
X2305Y2170D01*
X2304Y2170D01*
X2304Y2169D01*
X2303Y2169D01*
X2303Y2169D01*
X2302Y2169D01*
X2302Y2168D01*
X2301Y2168D01*
X2301Y2168D01*
X2300Y2168D01*
X2299Y2168D01*
X2298Y2168D01*
X2298Y2167D01*
X2298D01*
X2297Y2168D01*
X2296Y2168D01*
X2295Y2168D01*
X2295Y2168D01*
X2293Y2169D01*
X2292Y2169D01*
X2292Y2169D01*
X2291Y2170D01*
X2291Y2170D01*
X2291Y2170D01*
X2290Y2170D01*
X2290Y2171D01*
X2290Y2171D01*
X2290Y2171D01*
X2290Y2171D01*
X2289Y2172D01*
X2289Y2173D01*
X2288Y2173D01*
X2288Y2175D01*
X2287Y2176D01*
X2287Y2177D01*
X2287Y2178D01*
X2287Y2178D01*
X2287Y2179D01*
X2287Y2179D01*
Y2179D01*
Y2179D01*
Y2180D01*
X2287Y2181D01*
X2287Y2181D01*
X2287Y2182D01*
X2287Y2183D01*
X2288Y2184D01*
X2288Y2185D01*
X2288Y2185D01*
X2288Y2186D01*
X2289Y2187D01*
X2289Y2187D01*
X2289Y2187D01*
X2289Y2188D01*
X2290Y2188D01*
X2290Y2188D01*
X2290Y2188D01*
X2290Y2188D01*
X2290Y2189D01*
X2291Y2189D01*
X2292Y2190D01*
X2292Y2190D01*
X2294Y2191D01*
X2295Y2191D01*
X2296Y2192D01*
X2296Y2192D01*
X2297Y2192D01*
X2297Y2192D01*
X2298Y2192D01*
X2298D01*
X2298Y2192D01*
X2298D01*
X2299Y2187D01*
X2297Y2187D01*
X2296Y2187D01*
X2295Y2187D01*
X2294Y2186D01*
X2294Y2186D01*
X2293Y2185D01*
X2293Y2185D01*
X2293Y2185D01*
X2292Y2184D01*
X2292Y2183D01*
X2291Y2182D01*
X2291Y2182D01*
X2291Y2181D01*
X2291Y2180D01*
X2291Y2180D01*
Y2180D01*
Y2180D01*
Y2180D01*
X2291Y2178D01*
X2291Y2177D01*
X2291Y2177D01*
X2292Y2176D01*
X2292Y2175D01*
X2292Y2175D01*
X2293Y2174D01*
X2293Y2174D01*
X2294Y2174D01*
X2294Y2173D01*
X2295Y2173D01*
X2296Y2173D01*
X2297Y2172D01*
X2297Y2172D01*
X2297Y2172D01*
X2298D01*
X2299Y2172D01*
X2300Y2173D01*
X2301Y2173D01*
X2301Y2173D01*
X2302Y2174D01*
X2303Y2174D01*
X2303Y2174D01*
X2303Y2174D01*
X2303Y2175D01*
X2303D01*
X2304Y2175D01*
X2304Y2176D01*
X2305Y2176D01*
X2306Y2177D01*
X2307Y2178D01*
X2308Y2180D01*
X2309Y2180D01*
X2310Y2181D01*
X2310Y2182D01*
X2311Y2182D01*
X2311Y2182D01*
X2311Y2183D01*
X2311Y2183D01*
X2311Y2183D01*
X2313Y2184D01*
X2314Y2186D01*
X2315Y2187D01*
X2316Y2188D01*
X2316Y2188D01*
X2317Y2189D01*
X2317Y2189D01*
X2317Y2189D01*
X2317D01*
X2318Y2190D01*
X2319Y2191D01*
X2320Y2191D01*
X2321Y2192D01*
X2321Y2192D01*
X2322Y2192D01*
X2322Y2192D01*
X2322Y2192D01*
X2322D01*
X2323Y2193D01*
X2323Y2193D01*
X2324Y2193D01*
X2324Y2193D01*
X2325Y2193D01*
X2326D01*
Y2167D01*
D02*
G37*
G36*
X2309Y2163D02*
X2311Y2162D01*
X2313Y2162D01*
X2314Y2162D01*
X2315Y2162D01*
X2317Y2161D01*
X2318Y2161D01*
X2318Y2161D01*
X2319Y2160D01*
X2320Y2160D01*
X2321Y2160D01*
X2321Y2159D01*
X2321Y2159D01*
X2322Y2159D01*
X2322Y2159D01*
X2322Y2159D01*
X2323Y2158D01*
X2323Y2157D01*
X2324Y2157D01*
X2324Y2156D01*
X2325Y2155D01*
X2325Y2154D01*
X2325Y2153D01*
X2326Y2153D01*
X2326Y2152D01*
X2326Y2151D01*
X2326Y2151D01*
X2326Y2150D01*
Y2150D01*
X2326Y2150D01*
Y2149D01*
Y2149D01*
X2326Y2148D01*
X2326Y2147D01*
X2326Y2146D01*
X2325Y2145D01*
X2325Y2144D01*
X2325Y2144D01*
X2325Y2143D01*
X2325Y2143D01*
X2325Y2143D01*
Y2143D01*
X2324Y2142D01*
X2323Y2141D01*
X2322Y2141D01*
X2322Y2140D01*
X2321Y2139D01*
X2320Y2139D01*
X2320Y2139D01*
X2320Y2139D01*
X2320Y2139D01*
X2320D01*
X2319Y2138D01*
X2317Y2138D01*
X2316Y2138D01*
X2315Y2137D01*
X2314Y2137D01*
X2314D01*
X2314Y2137D01*
X2313D01*
X2312Y2137D01*
X2311Y2137D01*
X2310Y2138D01*
X2309Y2138D01*
X2309Y2138D01*
X2308Y2138D01*
X2307Y2139D01*
X2307Y2139D01*
X2306Y2139D01*
X2306Y2139D01*
X2305Y2140D01*
X2305Y2140D01*
X2304Y2140D01*
X2304Y2140D01*
X2304Y2140D01*
X2304Y2141D01*
X2304Y2141D01*
X2303Y2142D01*
X2303Y2143D01*
X2302Y2143D01*
X2302Y2144D01*
X2301Y2145D01*
X2301Y2146D01*
X2301Y2146D01*
X2301Y2147D01*
X2301Y2147D01*
X2301Y2148D01*
X2301Y2148D01*
Y2148D01*
Y2149D01*
Y2149D01*
X2301Y2150D01*
X2301Y2151D01*
X2301Y2151D01*
X2301Y2152D01*
X2302Y2153D01*
X2302Y2153D01*
X2302Y2154D01*
X2302Y2154D01*
Y2154D01*
X2302Y2155D01*
X2303Y2155D01*
X2304Y2156D01*
X2304Y2157D01*
X2305Y2157D01*
X2305Y2158D01*
X2306Y2158D01*
X2306Y2158D01*
X2305D01*
X2304Y2158D01*
X2303Y2158D01*
X2302Y2158D01*
X2301Y2158D01*
X2300Y2157D01*
X2300Y2157D01*
X2299Y2157D01*
X2299Y2157D01*
X2298Y2157D01*
X2298Y2157D01*
X2297Y2157D01*
X2297Y2157D01*
X2297Y2157D01*
X2297Y2157D01*
X2297D01*
X2296Y2156D01*
X2295Y2155D01*
X2294Y2155D01*
X2293Y2154D01*
X2293Y2154D01*
X2292Y2153D01*
X2292Y2153D01*
X2292Y2153D01*
X2292Y2152D01*
X2291Y2152D01*
X2291Y2151D01*
X2291Y2150D01*
X2291Y2150D01*
X2291Y2149D01*
Y2149D01*
Y2149D01*
X2291Y2148D01*
X2291Y2147D01*
X2292Y2146D01*
X2292Y2146D01*
X2292Y2145D01*
X2293Y2145D01*
X2293Y2144D01*
X2293Y2144D01*
X2293Y2144D01*
X2294Y2144D01*
X2295Y2143D01*
X2295Y2143D01*
X2296Y2143D01*
X2296Y2143D01*
X2297Y2143D01*
X2297Y2143D01*
X2297D01*
X2297Y2138D01*
X2295Y2138D01*
X2294Y2139D01*
X2292Y2139D01*
X2291Y2140D01*
X2291Y2140D01*
X2290Y2141D01*
X2290Y2141D01*
X2290Y2141D01*
X2290Y2141D01*
X2290Y2141D01*
X2290Y2141D01*
X2289Y2142D01*
X2289Y2143D01*
X2288Y2144D01*
X2288Y2145D01*
X2287Y2146D01*
X2287Y2147D01*
X2287Y2148D01*
Y2148D01*
X2287Y2148D01*
Y2149D01*
Y2149D01*
Y2149D01*
X2287Y2150D01*
X2287Y2151D01*
X2287Y2152D01*
X2288Y2153D01*
X2288Y2154D01*
X2288Y2155D01*
X2289Y2155D01*
X2289Y2156D01*
X2290Y2156D01*
X2290Y2157D01*
X2290Y2157D01*
X2291Y2158D01*
X2291Y2158D01*
X2291Y2158D01*
X2291Y2158D01*
X2291Y2158D01*
X2292Y2159D01*
X2294Y2160D01*
X2295Y2160D01*
X2296Y2161D01*
X2297Y2161D01*
X2299Y2162D01*
X2300Y2162D01*
X2301Y2162D01*
X2303Y2162D01*
X2304Y2162D01*
X2305Y2162D01*
X2306Y2163D01*
X2307D01*
X2307Y2163D01*
X2308D01*
X2309Y2163D01*
D02*
G37*
G36*
X1876Y1078D02*
X1876Y1078D01*
X1877Y1078D01*
X1877Y1078D01*
X1878Y1078D01*
X1878Y1078D01*
X1878Y1078D01*
X1879Y1077D01*
X1879Y1077D01*
X1880Y1077D01*
X1880Y1077D01*
X1881Y1076D01*
X1881Y1076D01*
X1881Y1076D01*
X1881Y1076D01*
X1881Y1075D01*
X1882Y1075D01*
X1882Y1074D01*
X1882Y1074D01*
X1883Y1074D01*
X1883Y1073D01*
X1883Y1073D01*
X1883Y1073D01*
X1883Y1073D01*
X1883Y1072D01*
X1883Y1071D01*
X1884Y1071D01*
X1884Y1070D01*
X1884Y1070D01*
Y1070D01*
Y1070D01*
Y1069D01*
X1884Y1068D01*
Y1068D01*
X1884Y1068D01*
Y1068D01*
Y1068D01*
X1883Y1068D01*
X1883Y1067D01*
X1883Y1067D01*
X1883Y1067D01*
Y1067D01*
X1883Y1066D01*
X1883Y1066D01*
X1883Y1066D01*
X1883Y1065D01*
X1882Y1065D01*
X1882Y1065D01*
X1882Y1065D01*
X1882Y1064D01*
X1882Y1063D01*
X1883Y1063D01*
X1883Y1063D01*
X1883Y1062D01*
X1883Y1062D01*
X1883Y1062D01*
X1883Y1062D01*
X1884Y1061D01*
X1884Y1061D01*
X1884Y1060D01*
X1884Y1060D01*
X1884Y1059D01*
X1884Y1059D01*
Y1059D01*
Y1059D01*
Y1059D01*
X1884Y1058D01*
X1884Y1058D01*
Y1058D01*
Y1058D01*
X1884Y1057D01*
X1884Y1057D01*
X1884Y1057D01*
X1884Y1057D01*
X1883Y1056D01*
X1883Y1056D01*
X1883Y1056D01*
X1883Y1056D01*
X1882Y1055D01*
X1882Y1055D01*
X1882Y1055D01*
X1882Y1055D01*
X1882Y1054D01*
X1883Y1054D01*
X1883Y1054D01*
X1884Y1053D01*
X1884Y1053D01*
X1884Y1053D01*
X1884Y1052D01*
X1884Y1052D01*
X1885Y1052D01*
X1885Y1051D01*
X1885Y1051D01*
X1885Y1050D01*
X1885Y1050D01*
X1885Y1050D01*
Y1049D01*
Y1049D01*
X1885Y1049D01*
X1885Y1048D01*
X1885Y1048D01*
X1885Y1047D01*
X1885Y1047D01*
X1885Y1047D01*
X1885Y1047D01*
Y1047D01*
X1884Y1046D01*
X1884Y1046D01*
X1884Y1046D01*
X1883Y1045D01*
X1883Y1045D01*
X1883Y1045D01*
X1883Y1045D01*
X1883Y1045D01*
X1882Y1044D01*
X1881Y1044D01*
X1881Y1044D01*
X1880Y1044D01*
X1880Y1044D01*
X1879Y1043D01*
X1879Y1043D01*
X1879D01*
X1878Y1043D01*
X1877Y1043D01*
X1877Y1043D01*
X1876Y1043D01*
X1875D01*
X1875Y1043D01*
X1874D01*
X1873Y1043D01*
X1872Y1043D01*
X1871Y1043D01*
X1870Y1043D01*
X1869Y1043D01*
X1869Y1043D01*
X1869Y1043D01*
X1869Y1044D01*
X1868Y1044D01*
X1867Y1044D01*
X1866Y1044D01*
X1866Y1045D01*
X1865Y1045D01*
X1865Y1045D01*
X1865Y1045D01*
X1865Y1045D01*
X1864Y1046D01*
X1864Y1046D01*
X1863Y1047D01*
X1863Y1047D01*
X1863Y1047D01*
X1863Y1048D01*
X1863Y1048D01*
X1863Y1048D01*
X1862Y1048D01*
X1862Y1049D01*
X1862Y1050D01*
X1862Y1050D01*
X1862Y1050D01*
X1862Y1051D01*
Y1051D01*
Y1051D01*
Y1052D01*
X1862Y1052D01*
X1862Y1053D01*
X1862Y1053D01*
X1862Y1053D01*
X1862Y1053D01*
X1862Y1054D01*
X1863Y1054D01*
X1863Y1054D01*
X1864Y1055D01*
X1864Y1055D01*
X1864Y1055D01*
X1864Y1055D01*
X1864Y1056D01*
X1865Y1056D01*
X1866Y1056D01*
X1866Y1057D01*
X1867Y1057D01*
X1867Y1057D01*
X1867D01*
X1868Y1057D01*
X1869Y1057D01*
X1869Y1057D01*
X1870Y1057D01*
X1870D01*
X1877Y1058D01*
X1877Y1058D01*
X1878Y1058D01*
X1878Y1058D01*
X1879Y1058D01*
X1879Y1058D01*
X1879Y1058D01*
X1879Y1058D01*
X1879D01*
X1879Y1058D01*
X1880Y1059D01*
X1880Y1059D01*
X1880Y1059D01*
X1880Y1059D01*
X1880Y1060D01*
Y1060D01*
Y1060D01*
X1880Y1060D01*
X1880Y1061D01*
X1880Y1061D01*
X1880Y1061D01*
X1880Y1062D01*
X1879Y1062D01*
X1879Y1062D01*
X1879Y1062D01*
Y1062D01*
X1879Y1062D01*
X1878Y1062D01*
X1878Y1062D01*
X1877Y1062D01*
X1877Y1062D01*
X1877Y1062D01*
X1877D01*
X1876Y1061D01*
X1875Y1061D01*
X1875D01*
X1875Y1061D01*
X1874D01*
X1873Y1061D01*
X1872Y1061D01*
X1872Y1062D01*
X1871Y1062D01*
X1871Y1062D01*
X1870Y1062D01*
X1870Y1062D01*
X1870D01*
X1869Y1062D01*
X1869Y1062D01*
X1868Y1063D01*
X1868Y1063D01*
X1868Y1063D01*
X1867Y1063D01*
X1867Y1064D01*
X1867Y1064D01*
X1867Y1064D01*
X1866Y1065D01*
X1866Y1065D01*
X1866Y1065D01*
X1865Y1066D01*
X1865Y1066D01*
X1865Y1066D01*
X1865Y1066D01*
X1865Y1067D01*
X1865Y1068D01*
X1865Y1068D01*
X1864Y1069D01*
X1864Y1069D01*
X1864Y1070D01*
Y1070D01*
Y1070D01*
X1864Y1071D01*
X1864Y1071D01*
X1865Y1072D01*
X1865Y1072D01*
X1865Y1072D01*
X1865Y1072D01*
Y1072D01*
X1865Y1073D01*
X1865Y1074D01*
X1866Y1074D01*
X1866Y1074D01*
X1866Y1074D01*
X1866Y1074D01*
X1862D01*
Y1078D01*
X1871D01*
X1871Y1078D01*
X1872Y1078D01*
X1872Y1078D01*
X1872D01*
X1873Y1078D01*
X1873Y1078D01*
X1875D01*
X1876Y1078D01*
D02*
G37*
G36*
X2309Y2222D02*
X2311Y2222D01*
X2313Y2222D01*
X2314Y2222D01*
X2315Y2221D01*
X2317Y2221D01*
X2318Y2221D01*
X2318Y2220D01*
X2319Y2220D01*
X2320Y2220D01*
X2321Y2219D01*
X2321Y2219D01*
X2321Y2219D01*
X2322Y2219D01*
X2322Y2219D01*
X2322Y2219D01*
X2323Y2218D01*
X2323Y2217D01*
X2324Y2216D01*
X2324Y2216D01*
X2325Y2215D01*
X2325Y2214D01*
X2325Y2213D01*
X2326Y2212D01*
X2326Y2212D01*
X2326Y2211D01*
X2326Y2210D01*
X2326Y2210D01*
Y2210D01*
X2326Y2209D01*
Y2209D01*
Y2209D01*
X2326Y2208D01*
X2326Y2207D01*
X2326Y2206D01*
X2325Y2205D01*
X2325Y2204D01*
X2325Y2203D01*
X2325Y2203D01*
X2325Y2203D01*
X2325Y2203D01*
Y2203D01*
X2324Y2202D01*
X2323Y2201D01*
X2322Y2200D01*
X2322Y2200D01*
X2321Y2199D01*
X2320Y2199D01*
X2320Y2199D01*
X2320Y2199D01*
X2320Y2199D01*
X2320D01*
X2319Y2198D01*
X2317Y2198D01*
X2316Y2197D01*
X2315Y2197D01*
X2314Y2197D01*
X2314D01*
X2314Y2197D01*
X2313D01*
X2312Y2197D01*
X2311Y2197D01*
X2310Y2197D01*
X2309Y2197D01*
X2309Y2198D01*
X2308Y2198D01*
X2307Y2198D01*
X2307Y2199D01*
X2306Y2199D01*
X2306Y2199D01*
X2305Y2199D01*
X2305Y2200D01*
X2304Y2200D01*
X2304Y2200D01*
X2304Y2200D01*
X2304Y2200D01*
X2304Y2201D01*
X2303Y2202D01*
X2303Y2202D01*
X2302Y2203D01*
X2302Y2204D01*
X2301Y2204D01*
X2301Y2206D01*
X2301Y2206D01*
X2301Y2207D01*
X2301Y2207D01*
X2301Y2208D01*
X2301Y2208D01*
Y2208D01*
Y2208D01*
Y2208D01*
X2301Y2209D01*
X2301Y2210D01*
X2301Y2211D01*
X2301Y2212D01*
X2302Y2213D01*
X2302Y2213D01*
X2302Y2213D01*
X2302Y2213D01*
Y2213D01*
X2302Y2214D01*
X2303Y2215D01*
X2304Y2216D01*
X2304Y2216D01*
X2305Y2217D01*
X2305Y2217D01*
X2306Y2218D01*
X2306Y2218D01*
X2305D01*
X2304Y2218D01*
X2303Y2217D01*
X2302Y2217D01*
X2301Y2217D01*
X2300Y2217D01*
X2300Y2217D01*
X2299Y2217D01*
X2299Y2217D01*
X2298Y2217D01*
X2298Y2217D01*
X2297Y2217D01*
X2297Y2216D01*
X2297Y2216D01*
X2297Y2216D01*
X2297D01*
X2296Y2216D01*
X2295Y2215D01*
X2294Y2215D01*
X2293Y2214D01*
X2293Y2214D01*
X2292Y2213D01*
X2292Y2213D01*
X2292Y2213D01*
X2292Y2212D01*
X2291Y2211D01*
X2291Y2211D01*
X2291Y2210D01*
X2291Y2210D01*
X2291Y2209D01*
Y2209D01*
Y2209D01*
X2291Y2208D01*
X2291Y2207D01*
X2292Y2206D01*
X2292Y2205D01*
X2292Y2205D01*
X2293Y2204D01*
X2293Y2204D01*
X2293Y2204D01*
X2293Y2204D01*
X2294Y2203D01*
X2295Y2203D01*
X2295Y2203D01*
X2296Y2203D01*
X2296Y2202D01*
X2297Y2202D01*
X2297Y2202D01*
X2297D01*
X2297Y2198D01*
X2295Y2198D01*
X2294Y2198D01*
X2292Y2199D01*
X2291Y2200D01*
X2291Y2200D01*
X2290Y2200D01*
X2290Y2201D01*
X2290Y2201D01*
X2290Y2201D01*
X2290Y2201D01*
X2290Y2201D01*
X2289Y2202D01*
X2289Y2202D01*
X2288Y2203D01*
X2288Y2205D01*
X2287Y2206D01*
X2287Y2207D01*
X2287Y2207D01*
Y2208D01*
X2287Y2208D01*
Y2208D01*
Y2208D01*
Y2208D01*
X2287Y2210D01*
X2287Y2211D01*
X2287Y2212D01*
X2288Y2213D01*
X2288Y2213D01*
X2288Y2214D01*
X2289Y2215D01*
X2289Y2216D01*
X2290Y2216D01*
X2290Y2217D01*
X2290Y2217D01*
X2291Y2218D01*
X2291Y2218D01*
X2291Y2218D01*
X2291Y2218D01*
X2291Y2218D01*
X2292Y2219D01*
X2294Y2220D01*
X2295Y2220D01*
X2296Y2221D01*
X2297Y2221D01*
X2299Y2221D01*
X2300Y2222D01*
X2301Y2222D01*
X2303Y2222D01*
X2304Y2222D01*
X2305Y2222D01*
X2306Y2222D01*
X2307D01*
X2307Y2222D01*
X2308D01*
X2309Y2222D01*
D02*
G37*
G36*
X2314Y2059D02*
X2309D01*
Y2073D01*
X2314D01*
Y2059D01*
D02*
G37*
G36*
X2316Y2055D02*
X2317Y2055D01*
X2319Y2054D01*
X2320Y2054D01*
X2321Y2053D01*
X2321Y2053D01*
X2322Y2053D01*
X2322Y2052D01*
X2322Y2052D01*
X2323Y2052D01*
X2323Y2051D01*
X2323Y2051D01*
X2323Y2051D01*
X2323Y2051D01*
X2324Y2051D01*
X2324Y2050D01*
X2325Y2049D01*
X2325Y2048D01*
X2325Y2047D01*
X2326Y2046D01*
X2326Y2045D01*
X2326Y2044D01*
X2326Y2044D01*
X2326Y2043D01*
X2326Y2043D01*
Y2043D01*
Y2043D01*
Y2043D01*
X2326Y2041D01*
X2326Y2040D01*
X2326Y2039D01*
X2325Y2038D01*
X2325Y2037D01*
X2325Y2037D01*
X2324Y2036D01*
X2324Y2035D01*
X2323Y2035D01*
X2323Y2034D01*
X2323Y2034D01*
X2322Y2033D01*
X2322Y2033D01*
X2322Y2033D01*
X2322Y2033D01*
X2322Y2033D01*
X2321Y2032D01*
X2320Y2032D01*
X2319Y2031D01*
X2319Y2031D01*
X2317Y2030D01*
X2316Y2030D01*
X2315Y2030D01*
X2314Y2030D01*
X2314Y2030D01*
X2313Y2030D01*
X2313Y2029D01*
X2313D01*
X2312Y2030D01*
X2311Y2030D01*
X2310Y2030D01*
X2309Y2030D01*
X2308Y2030D01*
X2307Y2031D01*
X2307Y2031D01*
X2306Y2031D01*
X2305Y2032D01*
X2305Y2032D01*
X2305Y2032D01*
X2304Y2032D01*
X2304Y2033D01*
X2304Y2033D01*
X2304Y2033D01*
X2304Y2033D01*
X2303Y2034D01*
X2302Y2034D01*
X2302Y2035D01*
X2302Y2036D01*
X2301Y2036D01*
X2301Y2037D01*
X2301Y2039D01*
X2300Y2039D01*
X2300Y2040D01*
X2300Y2040D01*
X2300Y2041D01*
X2300Y2041D01*
Y2041D01*
Y2041D01*
Y2041D01*
Y2042D01*
X2300Y2043D01*
X2300Y2044D01*
X2301Y2045D01*
X2301Y2046D01*
X2302Y2047D01*
X2302Y2048D01*
X2302Y2048D01*
X2302Y2048D01*
X2302Y2049D01*
X2302Y2049D01*
X2303Y2049D01*
X2292Y2047D01*
Y2031D01*
X2288D01*
Y2050D01*
X2307Y2054D01*
X2308Y2050D01*
X2307Y2049D01*
X2307Y2049D01*
X2306Y2048D01*
X2306Y2048D01*
X2306Y2047D01*
X2305Y2047D01*
X2305Y2047D01*
X2305Y2047D01*
X2305Y2046D01*
X2305Y2045D01*
X2305Y2045D01*
X2304Y2044D01*
X2304Y2043D01*
X2304Y2043D01*
Y2043D01*
Y2043D01*
Y2042D01*
X2304Y2041D01*
X2305Y2040D01*
X2305Y2039D01*
X2305Y2038D01*
X2306Y2038D01*
X2306Y2037D01*
X2307Y2037D01*
X2307Y2037D01*
X2307D01*
X2308Y2036D01*
X2309Y2035D01*
X2310Y2035D01*
X2311Y2035D01*
X2312Y2035D01*
X2312Y2035D01*
X2312D01*
X2313Y2034D01*
X2314D01*
X2314Y2035D01*
X2316Y2035D01*
X2317Y2035D01*
X2318Y2036D01*
X2319Y2036D01*
X2319Y2036D01*
X2319Y2037D01*
X2320Y2037D01*
X2320Y2037D01*
X2320Y2037D01*
X2320Y2037D01*
X2321Y2038D01*
X2321Y2039D01*
X2322Y2040D01*
X2322Y2041D01*
X2322Y2041D01*
X2322Y2042D01*
X2322Y2042D01*
Y2042D01*
Y2043D01*
Y2043D01*
X2322Y2044D01*
X2322Y2045D01*
X2322Y2045D01*
X2321Y2046D01*
X2321Y2047D01*
X2321Y2047D01*
X2321Y2047D01*
X2321Y2047D01*
X2320Y2048D01*
X2319Y2049D01*
X2318Y2049D01*
X2317Y2049D01*
X2316Y2050D01*
X2316Y2050D01*
X2315Y2050D01*
X2315Y2050D01*
X2315D01*
X2316Y2055D01*
X2316Y2055D01*
D02*
G37*
G36*
X2315Y2133D02*
X2316Y2132D01*
X2317Y2132D01*
X2318Y2132D01*
X2319Y2131D01*
X2320Y2131D01*
X2321Y2131D01*
X2321Y2131D01*
X2322Y2130D01*
X2322Y2130D01*
X2322Y2130D01*
X2323Y2129D01*
X2323Y2129D01*
X2323Y2129D01*
X2323Y2129D01*
X2323Y2128D01*
X2324Y2128D01*
X2324Y2127D01*
X2325Y2126D01*
X2325Y2125D01*
X2325Y2125D01*
X2326Y2123D01*
X2326Y2123D01*
X2326Y2122D01*
X2326Y2121D01*
X2326Y2121D01*
X2326Y2120D01*
Y2120D01*
Y2120D01*
Y2120D01*
X2326Y2119D01*
X2326Y2118D01*
X2326Y2117D01*
X2326Y2116D01*
X2325Y2115D01*
X2325Y2115D01*
X2325Y2114D01*
X2325Y2113D01*
X2324Y2113D01*
X2324Y2112D01*
X2324Y2112D01*
X2323Y2111D01*
X2323Y2111D01*
X2323Y2111D01*
X2323Y2111D01*
X2323Y2111D01*
X2322Y2110D01*
X2322Y2110D01*
X2321Y2109D01*
X2320Y2109D01*
X2319Y2108D01*
X2319Y2108D01*
X2318Y2108D01*
X2317Y2108D01*
X2316Y2107D01*
X2316Y2107D01*
X2315Y2107D01*
X2315Y2107D01*
X2315D01*
X2313Y2107D01*
X2312Y2108D01*
X2311Y2108D01*
X2310Y2108D01*
X2310Y2109D01*
X2309Y2109D01*
X2309Y2109D01*
X2309Y2109D01*
X2309D01*
X2308Y2110D01*
X2307Y2111D01*
X2306Y2112D01*
X2306Y2112D01*
X2305Y2113D01*
X2305Y2114D01*
X2305Y2114D01*
X2305Y2114D01*
X2305Y2114D01*
Y2114D01*
X2304Y2113D01*
X2304Y2113D01*
X2303Y2112D01*
X2303Y2111D01*
X2302Y2111D01*
X2302Y2111D01*
X2302Y2110D01*
X2302Y2110D01*
X2301Y2110D01*
X2300Y2109D01*
X2299Y2109D01*
X2299Y2109D01*
X2298Y2109D01*
X2298Y2109D01*
X2297D01*
X2296Y2109D01*
X2296Y2109D01*
X2294Y2109D01*
X2293Y2110D01*
X2292Y2110D01*
X2291Y2111D01*
X2291Y2111D01*
X2290Y2111D01*
X2290Y2112D01*
X2290Y2112D01*
X2290Y2112D01*
X2290Y2112D01*
X2289Y2113D01*
X2289Y2113D01*
X2289Y2114D01*
X2288Y2114D01*
X2288Y2116D01*
X2287Y2117D01*
X2287Y2118D01*
X2287Y2118D01*
X2287Y2119D01*
X2287Y2119D01*
X2287Y2120D01*
Y2120D01*
Y2120D01*
Y2120D01*
X2287Y2121D01*
X2287Y2122D01*
X2287Y2123D01*
X2288Y2124D01*
X2288Y2125D01*
X2288Y2125D01*
X2288Y2126D01*
X2289Y2126D01*
X2289Y2127D01*
X2289Y2127D01*
X2289Y2127D01*
X2290Y2128D01*
X2290Y2128D01*
X2290Y2128D01*
X2290Y2128D01*
X2290Y2129D01*
X2291Y2129D01*
X2292Y2129D01*
X2292Y2130D01*
X2293Y2130D01*
X2294Y2131D01*
X2295Y2131D01*
X2296Y2131D01*
X2296Y2131D01*
X2297Y2131D01*
X2297D01*
X2298Y2131D01*
X2299Y2131D01*
X2300Y2131D01*
X2300Y2130D01*
X2301Y2130D01*
X2301Y2130D01*
X2302Y2130D01*
X2302Y2130D01*
X2302Y2129D01*
X2303Y2128D01*
X2304Y2128D01*
X2304Y2127D01*
X2304Y2126D01*
X2305Y2126D01*
X2305Y2126D01*
X2305Y2125D01*
X2305Y2125D01*
Y2125D01*
X2305Y2127D01*
X2306Y2128D01*
X2306Y2129D01*
X2307Y2129D01*
X2307Y2130D01*
X2308Y2130D01*
X2308Y2131D01*
X2308Y2131D01*
X2308D01*
X2309Y2131D01*
X2310Y2132D01*
X2311Y2132D01*
X2312Y2132D01*
X2313Y2132D01*
X2314Y2133D01*
X2314D01*
X2314Y2133D01*
X2315D01*
X2315Y2133D01*
D02*
G37*
G36*
X2316Y2088D02*
X2326D01*
Y2083D01*
X2316D01*
Y2078D01*
X2312D01*
Y2083D01*
X2287D01*
Y2087D01*
X2312Y2104D01*
X2316D01*
Y2088D01*
D02*
G37*
G36*
X2436Y1074D02*
X2429D01*
Y1057D01*
X2437D01*
Y1053D01*
X2417D01*
Y1057D01*
X2424D01*
Y1078D01*
X2436D01*
Y1074D01*
D02*
G37*
G36*
X1902Y1078D02*
X1903D01*
X1903Y1078D01*
X1903D01*
X1904Y1078D01*
X1904D01*
X1904Y1078D01*
X1905Y1078D01*
X1905Y1078D01*
X1905Y1078D01*
X1906Y1078D01*
X1906Y1078D01*
X1906D01*
X1907Y1078D01*
X1907Y1077D01*
X1908Y1077D01*
X1908Y1077D01*
X1908Y1077D01*
X1908D01*
X1909Y1077D01*
X1909Y1077D01*
X1910Y1077D01*
X1910Y1077D01*
X1910Y1077D01*
X1910D01*
Y1073D01*
X1909Y1073D01*
X1908Y1073D01*
X1908Y1074D01*
X1907Y1074D01*
X1906Y1074D01*
X1906Y1074D01*
X1906Y1074D01*
X1906D01*
X1904Y1074D01*
X1903Y1074D01*
X1903Y1075D01*
X1902Y1075D01*
X1901D01*
X1900Y1075D01*
X1900Y1074D01*
X1899Y1074D01*
X1898Y1074D01*
X1898Y1074D01*
X1897Y1074D01*
X1897Y1073D01*
X1897Y1073D01*
X1897Y1073D01*
X1896Y1072D01*
X1896Y1072D01*
X1896Y1071D01*
X1896Y1071D01*
X1896Y1070D01*
Y1070D01*
Y1070D01*
Y1068D01*
X1902D01*
X1903Y1068D01*
X1904Y1067D01*
X1904Y1067D01*
X1905Y1067D01*
X1906Y1067D01*
X1907Y1067D01*
X1907Y1067D01*
X1908Y1066D01*
X1908Y1066D01*
X1908Y1066D01*
X1909Y1066D01*
X1909Y1066D01*
X1909Y1066D01*
X1909Y1066D01*
X1909D01*
X1910Y1065D01*
X1910Y1065D01*
X1910Y1064D01*
X1911Y1064D01*
X1911Y1063D01*
X1912Y1062D01*
X1912Y1061D01*
X1912Y1061D01*
X1912Y1060D01*
X1912Y1060D01*
Y1060D01*
Y1060D01*
Y1060D01*
X1912Y1059D01*
X1912Y1058D01*
X1912Y1058D01*
X1912Y1057D01*
X1911Y1057D01*
X1911Y1057D01*
Y1057D01*
X1911Y1056D01*
X1911Y1056D01*
X1911Y1055D01*
X1910Y1055D01*
X1910Y1055D01*
X1910Y1055D01*
X1910Y1055D01*
X1909Y1054D01*
X1908Y1054D01*
X1908Y1053D01*
X1908Y1053D01*
X1908Y1053D01*
X1908D01*
X1906Y1053D01*
X1906Y1053D01*
X1905Y1053D01*
X1905D01*
X1904Y1053D01*
X1904D01*
X1903Y1053D01*
X1902Y1053D01*
X1902Y1053D01*
X1901Y1053D01*
X1900Y1053D01*
X1900Y1053D01*
X1900Y1054D01*
X1900Y1054D01*
X1899Y1054D01*
X1898Y1054D01*
X1897Y1055D01*
X1897Y1055D01*
X1896Y1056D01*
X1896Y1056D01*
X1896Y1056D01*
X1895Y1056D01*
X1895Y1053D01*
X1891D01*
Y1070D01*
X1892Y1071D01*
X1892Y1072D01*
X1892Y1072D01*
X1892Y1073D01*
X1892Y1073D01*
X1892Y1073D01*
X1892Y1074D01*
X1892Y1074D01*
X1892Y1074D01*
X1893Y1075D01*
X1893Y1075D01*
X1893Y1076D01*
X1894Y1076D01*
X1894Y1076D01*
X1894Y1076D01*
X1894Y1076D01*
X1895Y1077D01*
X1895Y1077D01*
X1896Y1077D01*
X1896Y1077D01*
X1896Y1078D01*
X1897Y1078D01*
X1897Y1078D01*
X1897D01*
X1898Y1078D01*
X1899Y1078D01*
X1900Y1078D01*
X1900Y1078D01*
X1902D01*
X1902Y1078D01*
D02*
G37*
G36*
X2235D02*
X2235D01*
X2235Y1078D01*
X2236D01*
X2236Y1078D01*
X2236D01*
X2237Y1078D01*
X2237Y1078D01*
X2237Y1078D01*
X2238Y1078D01*
X2238Y1078D01*
X2238Y1078D01*
X2238D01*
X2239Y1078D01*
X2240Y1077D01*
X2240Y1077D01*
X2240Y1077D01*
X2240Y1077D01*
X2240D01*
X2241Y1077D01*
X2241Y1077D01*
X2242Y1077D01*
X2242Y1077D01*
X2242Y1077D01*
X2242D01*
Y1073D01*
X2241Y1073D01*
X2240Y1073D01*
X2240Y1074D01*
X2239Y1074D01*
X2239Y1074D01*
X2238Y1074D01*
X2238Y1074D01*
X2238D01*
X2236Y1074D01*
X2236Y1074D01*
X2235Y1075D01*
X2234Y1075D01*
X2234D01*
X2233Y1075D01*
X2232Y1074D01*
X2231Y1074D01*
X2230Y1074D01*
X2230Y1074D01*
X2230Y1074D01*
X2229Y1073D01*
X2229Y1073D01*
X2229Y1073D01*
X2229Y1072D01*
X2228Y1072D01*
X2228Y1071D01*
X2228Y1071D01*
X2228Y1070D01*
Y1070D01*
Y1070D01*
Y1068D01*
X2234D01*
X2235Y1068D01*
X2236Y1067D01*
X2237Y1067D01*
X2237Y1067D01*
X2238Y1067D01*
X2239Y1067D01*
X2239Y1067D01*
X2240Y1066D01*
X2240Y1066D01*
X2240Y1066D01*
X2241Y1066D01*
X2241Y1066D01*
X2241Y1066D01*
X2241Y1066D01*
X2241D01*
X2242Y1065D01*
X2242Y1065D01*
X2243Y1064D01*
X2243Y1064D01*
X2243Y1063D01*
X2244Y1062D01*
X2244Y1061D01*
X2244Y1061D01*
X2244Y1060D01*
X2244Y1060D01*
Y1060D01*
Y1060D01*
Y1060D01*
X2244Y1059D01*
X2244Y1058D01*
X2244Y1058D01*
X2244Y1057D01*
X2244Y1057D01*
X2244Y1057D01*
Y1057D01*
X2243Y1056D01*
X2243Y1056D01*
X2243Y1055D01*
X2243Y1055D01*
X2242Y1055D01*
X2242Y1055D01*
X2242Y1055D01*
X2241Y1054D01*
X2241Y1054D01*
X2240Y1053D01*
X2240Y1053D01*
X2240Y1053D01*
X2240D01*
X2239Y1053D01*
X2238Y1053D01*
X2237Y1053D01*
X2237D01*
X2236Y1053D01*
X2236D01*
X2235Y1053D01*
X2234Y1053D01*
X2234Y1053D01*
X2233Y1053D01*
X2233Y1053D01*
X2232Y1053D01*
X2232Y1054D01*
X2232Y1054D01*
X2231Y1054D01*
X2230Y1054D01*
X2230Y1055D01*
X2229Y1055D01*
X2228Y1056D01*
X2228Y1056D01*
X2228Y1056D01*
X2228Y1056D01*
X2228Y1053D01*
X2224D01*
Y1070D01*
X2224Y1071D01*
X2224Y1072D01*
X2224Y1072D01*
X2224Y1073D01*
X2224Y1073D01*
X2224Y1073D01*
X2224Y1074D01*
X2224Y1074D01*
X2225Y1074D01*
X2225Y1075D01*
X2225Y1075D01*
X2226Y1076D01*
X2226Y1076D01*
X2226Y1076D01*
X2226Y1076D01*
X2226Y1076D01*
X2227Y1077D01*
X2227Y1077D01*
X2228Y1077D01*
X2228Y1077D01*
X2229Y1078D01*
X2229Y1078D01*
X2229Y1078D01*
X2229D01*
X2231Y1078D01*
X2231Y1078D01*
X2232Y1078D01*
X2233Y1078D01*
X2234D01*
X2235Y1078D01*
D02*
G37*
G36*
X2318D02*
X2318D01*
X2318Y1078D01*
X2319D01*
X2319Y1078D01*
X2319D01*
X2320Y1078D01*
X2320Y1078D01*
X2320Y1078D01*
X2321Y1078D01*
X2321Y1078D01*
X2321Y1078D01*
X2321D01*
X2322Y1078D01*
X2323Y1077D01*
X2323Y1077D01*
X2323Y1077D01*
X2323Y1077D01*
X2323D01*
X2324Y1077D01*
X2325Y1077D01*
X2325Y1077D01*
X2325Y1077D01*
X2325Y1077D01*
X2325D01*
Y1073D01*
X2324Y1073D01*
X2323Y1073D01*
X2323Y1074D01*
X2322Y1074D01*
X2322Y1074D01*
X2321Y1074D01*
X2321Y1074D01*
X2321D01*
X2319Y1074D01*
X2319Y1074D01*
X2318Y1075D01*
X2317Y1075D01*
X2317D01*
X2316Y1075D01*
X2315Y1074D01*
X2314Y1074D01*
X2313Y1074D01*
X2313Y1074D01*
X2313Y1074D01*
X2313Y1073D01*
X2312Y1073D01*
X2312Y1073D01*
X2312Y1072D01*
X2311Y1072D01*
X2311Y1071D01*
X2311Y1071D01*
X2311Y1070D01*
Y1070D01*
Y1070D01*
Y1068D01*
X2317D01*
X2318Y1068D01*
X2319Y1067D01*
X2320Y1067D01*
X2320Y1067D01*
X2321Y1067D01*
X2322Y1067D01*
X2322Y1067D01*
X2323Y1066D01*
X2323Y1066D01*
X2324Y1066D01*
X2324Y1066D01*
X2324Y1066D01*
X2324Y1066D01*
X2324Y1066D01*
X2324D01*
X2325Y1065D01*
X2325Y1065D01*
X2326Y1064D01*
X2326Y1064D01*
X2326Y1063D01*
X2327Y1062D01*
X2327Y1061D01*
X2327Y1061D01*
X2327Y1060D01*
X2327Y1060D01*
Y1060D01*
Y1060D01*
Y1060D01*
X2327Y1059D01*
X2327Y1058D01*
X2327Y1058D01*
X2327Y1057D01*
X2327Y1057D01*
X2327Y1057D01*
Y1057D01*
X2326Y1056D01*
X2326Y1056D01*
X2326Y1055D01*
X2326Y1055D01*
X2325Y1055D01*
X2325Y1055D01*
X2325Y1055D01*
X2324Y1054D01*
X2324Y1054D01*
X2323Y1053D01*
X2323Y1053D01*
X2323Y1053D01*
X2323D01*
X2322Y1053D01*
X2321Y1053D01*
X2320Y1053D01*
X2320D01*
X2319Y1053D01*
X2319D01*
X2318Y1053D01*
X2318Y1053D01*
X2317Y1053D01*
X2316Y1053D01*
X2316Y1053D01*
X2315Y1053D01*
X2315Y1054D01*
X2315Y1054D01*
X2314Y1054D01*
X2313Y1054D01*
X2313Y1055D01*
X2312Y1055D01*
X2311Y1056D01*
X2311Y1056D01*
X2311Y1056D01*
X2311Y1056D01*
X2311Y1053D01*
X2307D01*
Y1070D01*
X2307Y1071D01*
X2307Y1072D01*
X2307Y1072D01*
X2307Y1073D01*
X2307Y1073D01*
X2307Y1073D01*
X2307Y1074D01*
X2307Y1074D01*
X2308Y1074D01*
X2308Y1075D01*
X2308Y1075D01*
X2309Y1076D01*
X2309Y1076D01*
X2309Y1076D01*
X2309Y1076D01*
X2309Y1076D01*
X2310Y1077D01*
X2310Y1077D01*
X2311Y1077D01*
X2311Y1077D01*
X2312Y1078D01*
X2312Y1078D01*
X2312Y1078D01*
X2312D01*
X2314Y1078D01*
X2314Y1078D01*
X2315Y1078D01*
X2316Y1078D01*
X2317D01*
X2318Y1078D01*
D02*
G37*
G36*
X1819D02*
X1820D01*
X1820Y1078D01*
X1820D01*
X1821Y1078D01*
X1821D01*
X1821Y1078D01*
X1822Y1078D01*
X1822Y1078D01*
X1822Y1078D01*
X1823Y1078D01*
X1823Y1078D01*
X1823D01*
X1824Y1078D01*
X1824Y1077D01*
X1825Y1077D01*
X1825Y1077D01*
X1825Y1077D01*
X1825D01*
X1826Y1077D01*
X1826Y1077D01*
X1826Y1077D01*
X1827Y1077D01*
X1827Y1077D01*
X1827D01*
Y1073D01*
X1826Y1073D01*
X1825Y1073D01*
X1824Y1074D01*
X1824Y1074D01*
X1823Y1074D01*
X1823Y1074D01*
X1823Y1074D01*
X1823D01*
X1821Y1074D01*
X1820Y1074D01*
X1820Y1075D01*
X1819Y1075D01*
X1818D01*
X1817Y1075D01*
X1817Y1074D01*
X1816Y1074D01*
X1815Y1074D01*
X1815Y1074D01*
X1814Y1074D01*
X1814Y1073D01*
X1814Y1073D01*
X1814Y1073D01*
X1813Y1072D01*
X1813Y1072D01*
X1813Y1071D01*
X1813Y1071D01*
X1813Y1070D01*
Y1070D01*
Y1070D01*
Y1068D01*
X1819D01*
X1820Y1068D01*
X1821Y1067D01*
X1821Y1067D01*
X1822Y1067D01*
X1823Y1067D01*
X1823Y1067D01*
X1824Y1067D01*
X1824Y1066D01*
X1825Y1066D01*
X1825Y1066D01*
X1826Y1066D01*
X1826Y1066D01*
X1826Y1066D01*
X1826Y1066D01*
X1826D01*
X1827Y1065D01*
X1827Y1065D01*
X1827Y1064D01*
X1828Y1064D01*
X1828Y1063D01*
X1828Y1062D01*
X1829Y1061D01*
X1829Y1061D01*
X1829Y1060D01*
X1829Y1060D01*
Y1060D01*
Y1060D01*
Y1060D01*
X1829Y1059D01*
X1829Y1058D01*
X1829Y1058D01*
X1828Y1057D01*
X1828Y1057D01*
X1828Y1057D01*
Y1057D01*
X1828Y1056D01*
X1828Y1056D01*
X1827Y1055D01*
X1827Y1055D01*
X1827Y1055D01*
X1827Y1055D01*
X1827Y1055D01*
X1826Y1054D01*
X1825Y1054D01*
X1825Y1053D01*
X1825Y1053D01*
X1825Y1053D01*
X1824D01*
X1823Y1053D01*
X1823Y1053D01*
X1822Y1053D01*
X1822D01*
X1821Y1053D01*
X1821D01*
X1820Y1053D01*
X1819Y1053D01*
X1818Y1053D01*
X1818Y1053D01*
X1817Y1053D01*
X1817Y1053D01*
X1817Y1054D01*
X1817Y1054D01*
X1816Y1054D01*
X1815Y1054D01*
X1814Y1055D01*
X1814Y1055D01*
X1813Y1056D01*
X1813Y1056D01*
X1813Y1056D01*
X1812Y1056D01*
X1812Y1053D01*
X1808D01*
Y1070D01*
X1808Y1071D01*
X1809Y1072D01*
X1809Y1072D01*
X1809Y1073D01*
X1809Y1073D01*
X1809Y1073D01*
X1809Y1074D01*
X1809Y1074D01*
X1809Y1074D01*
X1810Y1075D01*
X1810Y1075D01*
X1810Y1076D01*
X1811Y1076D01*
X1811Y1076D01*
X1811Y1076D01*
X1811Y1076D01*
X1812Y1077D01*
X1812Y1077D01*
X1813Y1077D01*
X1813Y1077D01*
X1813Y1078D01*
X1814Y1078D01*
X1814Y1078D01*
X1814D01*
X1815Y1078D01*
X1816Y1078D01*
X1817Y1078D01*
X1817Y1078D01*
X1819D01*
X1819Y1078D01*
D02*
G37*
G36*
X2405Y1085D02*
Y1078D01*
X2412D01*
Y1074D01*
X2405D01*
Y1061D01*
X2405Y1060D01*
X2405Y1059D01*
X2404Y1057D01*
X2404Y1056D01*
X2403Y1056D01*
X2403Y1055D01*
X2403Y1055D01*
X2403Y1055D01*
X2402Y1055D01*
X2402Y1054D01*
X2401Y1054D01*
X2399Y1053D01*
X2398Y1053D01*
X2397Y1053D01*
X2397Y1053D01*
X2397D01*
X2396Y1053D01*
X2396D01*
X2395Y1053D01*
X2394D01*
X2394Y1053D01*
X2393D01*
X2393Y1053D01*
X2393D01*
X2392Y1053D01*
X2391Y1053D01*
X2391Y1053D01*
X2390Y1053D01*
X2390Y1053D01*
X2390Y1053D01*
X2390D01*
Y1057D01*
X2391Y1057D01*
X2391Y1057D01*
X2392Y1057D01*
X2392Y1057D01*
X2392D01*
X2392Y1057D01*
X2393D01*
X2394Y1056D01*
X2394D01*
X2394Y1056D01*
X2395D01*
X2396Y1056D01*
X2397Y1057D01*
X2398Y1057D01*
X2398Y1057D01*
X2399Y1057D01*
X2399Y1058D01*
X2399Y1058D01*
X2399Y1058D01*
X2400Y1058D01*
X2400Y1059D01*
X2400Y1060D01*
X2401Y1060D01*
X2401Y1061D01*
X2401Y1061D01*
Y1062D01*
Y1062D01*
Y1062D01*
Y1074D01*
X2390D01*
Y1078D01*
X2401D01*
Y1086D01*
X2405Y1085D01*
D02*
G37*
G36*
X2354Y1053D02*
X2350D01*
Y1069D01*
X2338Y1053D01*
X2332D01*
X2346Y1070D01*
X2333Y1085D01*
X2338D01*
X2350Y1070D01*
Y1085D01*
X2354D01*
Y1053D01*
D02*
G37*
G36*
X1653Y1078D02*
X1654D01*
X1654Y1078D01*
X1654D01*
X1654Y1078D01*
X1654D01*
X1655Y1078D01*
X1656Y1078D01*
X1656Y1078D01*
X1656Y1078D01*
X1657Y1078D01*
X1657Y1078D01*
X1657D01*
X1658Y1078D01*
X1658Y1077D01*
X1659Y1077D01*
X1659Y1077D01*
X1659Y1077D01*
X1659D01*
X1660Y1077D01*
X1660Y1077D01*
X1660Y1077D01*
X1660Y1077D01*
X1661Y1077D01*
X1661D01*
Y1073D01*
X1660Y1073D01*
X1659Y1073D01*
X1658Y1074D01*
X1658Y1074D01*
X1657Y1074D01*
X1657Y1074D01*
X1657Y1074D01*
X1656D01*
X1655Y1074D01*
X1654Y1074D01*
X1654Y1075D01*
X1653Y1075D01*
X1652D01*
X1651Y1075D01*
X1650Y1074D01*
X1650Y1074D01*
X1649Y1074D01*
X1649Y1074D01*
X1648Y1074D01*
X1648Y1073D01*
X1648Y1073D01*
X1648Y1073D01*
X1647Y1072D01*
X1647Y1072D01*
X1647Y1071D01*
X1647Y1071D01*
X1647Y1070D01*
Y1070D01*
Y1070D01*
Y1068D01*
X1653D01*
X1654Y1068D01*
X1655Y1067D01*
X1655Y1067D01*
X1656Y1067D01*
X1657Y1067D01*
X1657Y1067D01*
X1658Y1067D01*
X1658Y1066D01*
X1659Y1066D01*
X1659Y1066D01*
X1659Y1066D01*
X1660Y1066D01*
X1660Y1066D01*
X1660Y1066D01*
X1660D01*
X1660Y1065D01*
X1661Y1065D01*
X1661Y1064D01*
X1662Y1064D01*
X1662Y1063D01*
X1662Y1062D01*
X1663Y1061D01*
X1663Y1061D01*
X1663Y1060D01*
X1663Y1060D01*
Y1060D01*
Y1060D01*
Y1060D01*
X1663Y1059D01*
X1663Y1058D01*
X1662Y1058D01*
X1662Y1057D01*
X1662Y1057D01*
X1662Y1057D01*
Y1057D01*
X1662Y1056D01*
X1662Y1056D01*
X1661Y1055D01*
X1661Y1055D01*
X1661Y1055D01*
X1661Y1055D01*
X1661Y1055D01*
X1660Y1054D01*
X1659Y1054D01*
X1659Y1053D01*
X1659Y1053D01*
X1658Y1053D01*
X1658D01*
X1657Y1053D01*
X1657Y1053D01*
X1656Y1053D01*
X1656D01*
X1655Y1053D01*
X1655D01*
X1654Y1053D01*
X1653Y1053D01*
X1652Y1053D01*
X1652Y1053D01*
X1651Y1053D01*
X1651Y1053D01*
X1651Y1054D01*
X1650Y1054D01*
X1650Y1054D01*
X1649Y1054D01*
X1648Y1055D01*
X1648Y1055D01*
X1647Y1056D01*
X1647Y1056D01*
X1646Y1056D01*
X1646Y1056D01*
X1646Y1053D01*
X1642D01*
Y1070D01*
X1642Y1071D01*
X1642Y1072D01*
X1643Y1072D01*
X1643Y1073D01*
X1643Y1073D01*
X1643Y1073D01*
X1643Y1074D01*
X1643Y1074D01*
X1643Y1074D01*
X1644Y1075D01*
X1644Y1075D01*
X1644Y1076D01*
X1645Y1076D01*
X1645Y1076D01*
X1645Y1076D01*
X1645Y1076D01*
X1645Y1077D01*
X1646Y1077D01*
X1646Y1077D01*
X1647Y1077D01*
X1647Y1078D01*
X1648Y1078D01*
X1648Y1078D01*
X1648D01*
X1649Y1078D01*
X1650Y1078D01*
X1651Y1078D01*
X1651Y1078D01*
X1653D01*
X1653Y1078D01*
D02*
G37*
G36*
X1634Y1055D02*
X1633Y1054D01*
X1632Y1054D01*
X1631Y1054D01*
X1631Y1053D01*
X1630Y1053D01*
X1630Y1053D01*
X1630D01*
X1629Y1053D01*
X1628Y1053D01*
X1627Y1053D01*
X1627Y1053D01*
X1626Y1053D01*
X1625D01*
X1624Y1053D01*
X1623Y1053D01*
X1623Y1053D01*
X1622Y1053D01*
X1621Y1053D01*
X1621Y1054D01*
X1621Y1054D01*
X1620Y1054D01*
X1620Y1054D01*
X1619Y1055D01*
X1618Y1055D01*
X1618Y1055D01*
X1617Y1056D01*
X1617Y1056D01*
X1617Y1056D01*
X1617Y1056D01*
X1616Y1057D01*
X1616Y1058D01*
X1615Y1058D01*
X1615Y1059D01*
X1615Y1060D01*
X1614Y1060D01*
X1614Y1060D01*
X1614Y1060D01*
X1614Y1061D01*
X1614Y1062D01*
X1614Y1063D01*
X1613Y1064D01*
X1613Y1065D01*
X1613Y1065D01*
Y1066D01*
Y1066D01*
Y1066D01*
Y1066D01*
Y1067D01*
X1613Y1068D01*
X1613Y1069D01*
X1614Y1069D01*
X1614Y1070D01*
X1614Y1071D01*
X1614Y1071D01*
Y1071D01*
X1614Y1072D01*
X1614Y1073D01*
X1615Y1073D01*
X1615Y1074D01*
X1615Y1074D01*
X1615Y1075D01*
X1615Y1075D01*
X1615Y1075D01*
X1616Y1075D01*
X1616Y1076D01*
X1617Y1076D01*
X1617Y1077D01*
X1618Y1077D01*
X1618Y1077D01*
X1618Y1077D01*
X1618Y1077D01*
X1619Y1078D01*
X1619Y1078D01*
X1620Y1078D01*
X1621Y1078D01*
X1621Y1078D01*
X1621Y1078D01*
X1622D01*
X1623Y1078D01*
X1624Y1078D01*
X1624Y1078D01*
X1625Y1078D01*
X1626Y1078D01*
X1626Y1077D01*
X1626Y1077D01*
X1626Y1077D01*
X1627Y1077D01*
X1628Y1076D01*
X1629Y1076D01*
X1629Y1075D01*
X1630Y1075D01*
X1630Y1074D01*
X1630Y1074D01*
X1630Y1074D01*
X1630Y1078D01*
Y1088D01*
X1634D01*
Y1055D01*
D02*
G37*
G36*
X2068Y1088D02*
X2068Y1088D01*
X2069Y1088D01*
X2069Y1088D01*
X2069D01*
X2069Y1088D01*
X2070Y1087D01*
X2070Y1087D01*
X2070Y1087D01*
X2070Y1087D01*
X2070Y1086D01*
X2071Y1086D01*
X2071Y1086D01*
Y1086D01*
X2071Y1086D01*
X2071Y1085D01*
X2071Y1085D01*
Y1085D01*
Y1085D01*
X2071Y1084D01*
X2071Y1084D01*
X2071Y1084D01*
X2071Y1084D01*
Y1083D01*
X2070Y1083D01*
X2070Y1083D01*
X2070Y1082D01*
X2070Y1082D01*
X2069Y1082D01*
X2069Y1082D01*
X2069Y1082D01*
X2069Y1082D01*
X2068Y1082D01*
X2068Y1081D01*
X2068Y1081D01*
X2067D01*
X2067Y1081D01*
X2067Y1082D01*
X2066Y1082D01*
X2066Y1082D01*
X2066Y1082D01*
X2065Y1082D01*
X2065Y1082D01*
X2065Y1082D01*
X2065Y1083D01*
X2065Y1083D01*
X2064Y1083D01*
X2064Y1083D01*
X2064Y1084D01*
X2064Y1084D01*
X2064Y1085D01*
Y1085D01*
Y1085D01*
X2064Y1085D01*
X2064Y1086D01*
X2064Y1086D01*
X2064Y1086D01*
X2065Y1087D01*
X2065Y1087D01*
X2065Y1087D01*
X2065Y1087D01*
X2065Y1087D01*
X2066Y1088D01*
X2066Y1088D01*
X2066Y1088D01*
X2066D01*
X2067Y1088D01*
X2067Y1088D01*
X2067Y1088D01*
X2067D01*
X2068Y1088D01*
D02*
G37*
G36*
X2428D02*
X2428Y1088D01*
X2429Y1088D01*
X2429Y1088D01*
X2429D01*
X2429Y1088D01*
X2429Y1087D01*
X2430Y1087D01*
X2430Y1087D01*
X2430Y1087D01*
X2430Y1086D01*
X2430Y1086D01*
X2430Y1086D01*
Y1086D01*
X2431Y1086D01*
X2431Y1085D01*
X2431Y1085D01*
Y1085D01*
Y1085D01*
X2431Y1084D01*
X2431Y1084D01*
X2430Y1084D01*
X2430Y1084D01*
Y1083D01*
X2430Y1083D01*
X2430Y1083D01*
X2430Y1082D01*
X2430Y1082D01*
X2429Y1082D01*
X2429Y1082D01*
X2429Y1082D01*
X2429Y1082D01*
X2428Y1082D01*
X2428Y1081D01*
X2427Y1081D01*
X2427D01*
X2427Y1081D01*
X2426Y1082D01*
X2426Y1082D01*
X2426Y1082D01*
X2426Y1082D01*
X2425Y1082D01*
X2425Y1082D01*
X2425Y1082D01*
X2425Y1083D01*
X2424Y1083D01*
X2424Y1083D01*
X2424Y1083D01*
X2424Y1084D01*
X2424Y1084D01*
X2424Y1085D01*
Y1085D01*
Y1085D01*
X2424Y1085D01*
X2424Y1086D01*
X2424Y1086D01*
X2424Y1086D01*
X2424Y1087D01*
X2425Y1087D01*
X2425Y1087D01*
X2425Y1087D01*
X2425Y1087D01*
X2426Y1088D01*
X2426Y1088D01*
X2426Y1088D01*
X2426D01*
X2426Y1088D01*
X2427Y1088D01*
X2427Y1088D01*
X2427D01*
X2428Y1088D01*
D02*
G37*
G36*
X2456D02*
X2456Y1088D01*
X2456Y1088D01*
X2456Y1088D01*
X2456D01*
X2457Y1088D01*
X2457Y1087D01*
X2457Y1087D01*
X2457Y1087D01*
X2458Y1087D01*
X2458Y1086D01*
X2458Y1086D01*
X2458Y1086D01*
Y1086D01*
X2458Y1086D01*
X2458Y1085D01*
X2458Y1085D01*
Y1085D01*
Y1085D01*
X2458Y1084D01*
X2458Y1084D01*
X2458Y1084D01*
X2458Y1084D01*
Y1083D01*
X2458Y1083D01*
X2458Y1083D01*
X2457Y1082D01*
X2457Y1082D01*
X2457Y1082D01*
X2457Y1082D01*
X2456Y1082D01*
X2456Y1082D01*
X2456Y1082D01*
X2455Y1081D01*
X2455Y1081D01*
X2455D01*
X2455Y1081D01*
X2454Y1082D01*
X2454Y1082D01*
X2454Y1082D01*
X2453Y1082D01*
X2453Y1082D01*
X2453Y1082D01*
X2453Y1082D01*
X2452Y1083D01*
X2452Y1083D01*
X2452Y1083D01*
X2452Y1083D01*
X2452Y1084D01*
X2452Y1084D01*
X2452Y1085D01*
Y1085D01*
Y1085D01*
X2452Y1085D01*
X2452Y1086D01*
X2452Y1086D01*
X2452Y1086D01*
X2452Y1087D01*
X2452Y1087D01*
X2453Y1087D01*
X2453Y1087D01*
X2453Y1087D01*
X2453Y1088D01*
X2454Y1088D01*
X2454Y1088D01*
X2454D01*
X2454Y1088D01*
X2455Y1088D01*
X2455Y1088D01*
X2455D01*
X2456Y1088D01*
D02*
G37*
G36*
X2040D02*
X2041Y1088D01*
X2041Y1088D01*
X2041Y1088D01*
X2041D01*
X2042Y1088D01*
X2042Y1087D01*
X2042Y1087D01*
X2042Y1087D01*
X2042Y1087D01*
X2043Y1086D01*
X2043Y1086D01*
X2043Y1086D01*
Y1086D01*
X2043Y1086D01*
X2043Y1085D01*
X2043Y1085D01*
Y1085D01*
Y1085D01*
X2043Y1084D01*
X2043Y1084D01*
X2043Y1084D01*
X2043Y1084D01*
Y1083D01*
X2043Y1083D01*
X2042Y1083D01*
X2042Y1082D01*
X2042Y1082D01*
X2042Y1082D01*
X2041Y1082D01*
X2041Y1082D01*
X2041Y1082D01*
X2041Y1082D01*
X2040Y1081D01*
X2040Y1081D01*
X2040D01*
X2039Y1081D01*
X2039Y1082D01*
X2039Y1082D01*
X2038Y1082D01*
X2038Y1082D01*
X2038Y1082D01*
X2037Y1082D01*
X2037Y1082D01*
X2037Y1083D01*
X2037Y1083D01*
X2037Y1083D01*
X2037Y1083D01*
X2037Y1084D01*
X2036Y1084D01*
X2036Y1085D01*
Y1085D01*
Y1085D01*
X2036Y1085D01*
X2037Y1086D01*
X2037Y1086D01*
X2037Y1086D01*
X2037Y1087D01*
X2037Y1087D01*
X2037Y1087D01*
X2037Y1087D01*
X2038Y1087D01*
X2038Y1088D01*
X2038Y1088D01*
X2038Y1088D01*
X2038D01*
X2039Y1088D01*
X2039Y1088D01*
X2040Y1088D01*
X2040D01*
X2040Y1088D01*
D02*
G37*
G36*
X1497Y1080D02*
X1495Y1076D01*
X1487Y1081D01*
Y1057D01*
X1496D01*
Y1053D01*
X1475D01*
Y1057D01*
X1483D01*
Y1085D01*
X1486D01*
X1497Y1080D01*
D02*
G37*
G36*
X1543Y1086D02*
X1544Y1086D01*
X1545Y1085D01*
X1546Y1085D01*
X1546Y1085D01*
X1547Y1085D01*
X1547Y1085D01*
X1547Y1085D01*
X1547D01*
X1548Y1084D01*
X1549Y1084D01*
X1550Y1083D01*
X1550Y1083D01*
X1551Y1082D01*
X1551Y1082D01*
X1551Y1082D01*
X1552Y1081D01*
X1549Y1079D01*
X1549Y1079D01*
X1548Y1080D01*
X1548Y1080D01*
X1547Y1080D01*
X1547Y1081D01*
X1546Y1081D01*
X1546Y1081D01*
X1546Y1081D01*
X1545Y1081D01*
X1545Y1082D01*
X1544Y1082D01*
X1544Y1082D01*
X1543Y1082D01*
X1543Y1082D01*
X1542D01*
X1541Y1082D01*
X1541Y1082D01*
X1541Y1082D01*
X1540Y1082D01*
X1540Y1082D01*
X1540Y1081D01*
X1540D01*
X1539Y1081D01*
X1539Y1081D01*
X1538Y1080D01*
X1538Y1080D01*
X1538Y1080D01*
X1538Y1080D01*
X1538Y1080D01*
X1537Y1079D01*
X1537Y1079D01*
X1537Y1078D01*
X1537Y1078D01*
Y1078D01*
X1537Y1078D01*
X1537Y1077D01*
X1537Y1076D01*
Y1076D01*
Y1076D01*
Y1076D01*
X1537Y1075D01*
X1537Y1075D01*
Y1074D01*
X1537Y1074D01*
X1537Y1074D01*
X1537Y1074D01*
Y1074D01*
X1537Y1073D01*
X1538Y1072D01*
X1538Y1072D01*
X1538Y1072D01*
X1538Y1071D01*
X1538Y1071D01*
X1539Y1070D01*
X1539Y1070D01*
X1539Y1070D01*
X1540Y1069D01*
X1540Y1069D01*
X1540Y1069D01*
X1540Y1069D01*
X1541Y1068D01*
X1541Y1068D01*
X1542Y1067D01*
X1542Y1066D01*
X1543Y1066D01*
X1543Y1066D01*
X1543Y1065D01*
X1543Y1065D01*
X1552Y1057D01*
Y1053D01*
X1530D01*
Y1057D01*
X1546D01*
X1540Y1063D01*
X1540Y1064D01*
X1539Y1064D01*
X1538Y1065D01*
X1538Y1065D01*
X1537Y1066D01*
X1537Y1066D01*
X1537Y1066D01*
X1537Y1067D01*
X1536Y1067D01*
X1536Y1068D01*
X1535Y1068D01*
X1535Y1069D01*
X1535Y1069D01*
X1534Y1069D01*
X1534Y1070D01*
X1534Y1070D01*
X1534Y1071D01*
X1533Y1071D01*
X1533Y1072D01*
X1533Y1072D01*
X1533Y1073D01*
X1533Y1073D01*
Y1073D01*
X1532Y1074D01*
X1532Y1075D01*
X1532Y1075D01*
X1532Y1076D01*
Y1076D01*
Y1076D01*
Y1076D01*
X1532Y1077D01*
X1532Y1078D01*
X1532Y1079D01*
X1533Y1079D01*
X1533Y1080D01*
X1533Y1080D01*
X1533Y1080D01*
X1533Y1080D01*
X1533Y1081D01*
X1534Y1081D01*
X1534Y1082D01*
X1534Y1082D01*
X1535Y1083D01*
X1535Y1083D01*
X1535Y1083D01*
X1535Y1083D01*
X1536Y1084D01*
X1536Y1084D01*
X1537Y1085D01*
X1537Y1085D01*
X1538Y1085D01*
X1538Y1085D01*
X1538Y1085D01*
X1539Y1085D01*
X1539Y1085D01*
X1540Y1086D01*
X1541Y1086D01*
X1541D01*
X1542Y1086D01*
X1542D01*
X1543Y1086D01*
D02*
G37*
G36*
X1763Y1088D02*
X1764Y1088D01*
X1764Y1088D01*
X1764Y1088D01*
X1764D01*
X1765Y1088D01*
X1765Y1087D01*
X1765Y1087D01*
X1765Y1087D01*
X1766Y1087D01*
X1766Y1086D01*
X1766Y1086D01*
X1766Y1086D01*
Y1086D01*
X1766Y1086D01*
X1766Y1085D01*
X1766Y1085D01*
Y1085D01*
Y1085D01*
X1766Y1084D01*
X1766Y1084D01*
X1766Y1084D01*
X1766Y1084D01*
Y1083D01*
X1766Y1083D01*
X1766Y1083D01*
X1765Y1082D01*
X1765Y1082D01*
X1765Y1082D01*
X1765Y1082D01*
X1764Y1082D01*
X1764Y1082D01*
X1764Y1082D01*
X1763Y1081D01*
X1763Y1081D01*
X1763D01*
X1762Y1081D01*
X1762Y1082D01*
X1762Y1082D01*
X1762Y1082D01*
X1761Y1082D01*
X1761Y1082D01*
X1761Y1082D01*
X1761Y1082D01*
X1760Y1083D01*
X1760Y1083D01*
X1760Y1083D01*
X1760Y1083D01*
X1760Y1084D01*
X1760Y1084D01*
X1760Y1085D01*
Y1085D01*
Y1085D01*
X1760Y1085D01*
X1760Y1086D01*
X1760Y1086D01*
X1760Y1086D01*
X1760Y1087D01*
X1760Y1087D01*
X1761Y1087D01*
X1761Y1087D01*
X1761Y1087D01*
X1761Y1088D01*
X1762Y1088D01*
X1762Y1088D01*
X1762D01*
X1762Y1088D01*
X1763Y1088D01*
X1763Y1088D01*
X1763D01*
X1763Y1088D01*
D02*
G37*
G36*
X2520Y1053D02*
X2516D01*
Y1065D01*
X2512D01*
X2511Y1065D01*
X2510Y1065D01*
X2509Y1065D01*
X2508Y1065D01*
X2507Y1065D01*
X2507Y1065D01*
X2506Y1066D01*
X2506Y1066D01*
X2505Y1066D01*
X2505Y1066D01*
X2504Y1067D01*
X2503Y1067D01*
X2503Y1068D01*
X2503Y1068D01*
X2502Y1068D01*
X2502Y1068D01*
X2502Y1069D01*
X2501Y1069D01*
X2501Y1070D01*
X2500Y1070D01*
X2500Y1071D01*
X2500Y1071D01*
X2500Y1071D01*
X2500Y1071D01*
X2500Y1072D01*
X2500Y1073D01*
X2499Y1074D01*
X2499Y1074D01*
X2499Y1075D01*
X2499Y1075D01*
Y1075D01*
Y1075D01*
X2499Y1076D01*
X2499Y1077D01*
X2500Y1078D01*
X2500Y1079D01*
X2500Y1079D01*
X2500Y1080D01*
X2500Y1080D01*
X2500Y1080D01*
X2501Y1081D01*
X2501Y1081D01*
X2501Y1082D01*
X2502Y1082D01*
X2502Y1083D01*
X2503Y1083D01*
X2503Y1083D01*
X2503Y1083D01*
X2503Y1083D01*
X2504Y1084D01*
X2505Y1084D01*
X2505Y1084D01*
X2506Y1084D01*
X2506Y1085D01*
X2507Y1085D01*
X2507D01*
X2508Y1085D01*
X2509Y1085D01*
X2510Y1085D01*
X2510Y1085D01*
X2520D01*
Y1053D01*
D02*
G37*
G36*
X1934Y1085D02*
Y1078D01*
X1941D01*
Y1074D01*
X1934D01*
Y1061D01*
X1934Y1060D01*
X1934Y1059D01*
X1934Y1057D01*
X1933Y1056D01*
X1933Y1056D01*
X1932Y1055D01*
X1932Y1055D01*
X1932Y1055D01*
X1932Y1055D01*
X1931Y1054D01*
X1930Y1054D01*
X1929Y1053D01*
X1928Y1053D01*
X1927Y1053D01*
X1926Y1053D01*
X1926D01*
X1926Y1053D01*
X1925D01*
X1924Y1053D01*
X1923D01*
X1923Y1053D01*
X1923D01*
X1922Y1053D01*
X1922D01*
X1921Y1053D01*
X1920Y1053D01*
X1920Y1053D01*
X1920Y1053D01*
X1919Y1053D01*
X1919Y1053D01*
X1919D01*
Y1057D01*
X1920Y1057D01*
X1921Y1057D01*
X1921Y1057D01*
X1921Y1057D01*
X1922D01*
X1922Y1057D01*
X1922D01*
X1923Y1056D01*
X1923D01*
X1924Y1056D01*
X1925D01*
X1926Y1056D01*
X1926Y1057D01*
X1927Y1057D01*
X1928Y1057D01*
X1928Y1057D01*
X1928Y1058D01*
X1929Y1058D01*
X1929Y1058D01*
X1929Y1058D01*
X1930Y1059D01*
X1930Y1060D01*
X1930Y1060D01*
X1930Y1061D01*
X1930Y1061D01*
Y1062D01*
Y1062D01*
Y1062D01*
Y1074D01*
X1919D01*
Y1078D01*
X1930D01*
Y1086D01*
X1934Y1085D01*
D02*
G37*
G36*
X1796D02*
Y1078D01*
X1803D01*
Y1074D01*
X1796D01*
Y1061D01*
X1796Y1060D01*
X1796Y1059D01*
X1795Y1057D01*
X1795Y1056D01*
X1794Y1056D01*
X1794Y1055D01*
X1794Y1055D01*
X1794Y1055D01*
X1793Y1055D01*
X1793Y1054D01*
X1792Y1054D01*
X1790Y1053D01*
X1789Y1053D01*
X1788Y1053D01*
X1788Y1053D01*
X1788D01*
X1787Y1053D01*
X1787D01*
X1786Y1053D01*
X1785D01*
X1785Y1053D01*
X1784D01*
X1784Y1053D01*
X1784D01*
X1783Y1053D01*
X1782Y1053D01*
X1782Y1053D01*
X1781Y1053D01*
X1781Y1053D01*
X1781Y1053D01*
X1781D01*
Y1057D01*
X1782Y1057D01*
X1782Y1057D01*
X1783Y1057D01*
X1783Y1057D01*
X1783D01*
X1783Y1057D01*
X1784D01*
X1785Y1056D01*
X1785D01*
X1785Y1056D01*
X1786D01*
X1787Y1056D01*
X1788Y1057D01*
X1789Y1057D01*
X1789Y1057D01*
X1790Y1057D01*
X1790Y1058D01*
X1790Y1058D01*
X1790Y1058D01*
X1791Y1058D01*
X1791Y1059D01*
X1791Y1060D01*
X1792Y1060D01*
X1792Y1061D01*
X1792Y1061D01*
Y1062D01*
Y1062D01*
Y1062D01*
Y1074D01*
X1781D01*
Y1078D01*
X1792D01*
Y1086D01*
X1796Y1085D01*
D02*
G37*
G36*
X2464Y1074D02*
X2456D01*
Y1057D01*
X2465D01*
Y1053D01*
X2445D01*
Y1057D01*
X2452D01*
Y1078D01*
X2464D01*
Y1074D01*
D02*
G37*
G36*
X2017Y1085D02*
Y1078D01*
X2024D01*
Y1074D01*
X2017D01*
Y1061D01*
X2017Y1060D01*
X2017Y1059D01*
X2017Y1057D01*
X2016Y1056D01*
X2016Y1056D01*
X2016Y1055D01*
X2015Y1055D01*
X2015Y1055D01*
X2015Y1055D01*
X2014Y1054D01*
X2013Y1054D01*
X2012Y1053D01*
X2011Y1053D01*
X2010Y1053D01*
X2009Y1053D01*
X2009D01*
X2009Y1053D01*
X2008D01*
X2007Y1053D01*
X2007D01*
X2006Y1053D01*
X2006D01*
X2005Y1053D01*
X2005D01*
X2004Y1053D01*
X2003Y1053D01*
X2003Y1053D01*
X2003Y1053D01*
X2002Y1053D01*
X2002Y1053D01*
X2002D01*
Y1057D01*
X2003Y1057D01*
X2004Y1057D01*
X2004Y1057D01*
X2004Y1057D01*
X2005D01*
X2005Y1057D01*
X2005D01*
X2006Y1056D01*
X2006D01*
X2007Y1056D01*
X2008D01*
X2009Y1056D01*
X2009Y1057D01*
X2010Y1057D01*
X2011Y1057D01*
X2011Y1057D01*
X2011Y1058D01*
X2012Y1058D01*
X2012Y1058D01*
X2012Y1058D01*
X2013Y1059D01*
X2013Y1060D01*
X2013Y1060D01*
X2013Y1061D01*
X2013Y1061D01*
Y1062D01*
Y1062D01*
Y1062D01*
Y1074D01*
X2002D01*
Y1078D01*
X2013D01*
Y1086D01*
X2017Y1085D01*
D02*
G37*
G36*
X2480Y1078D02*
X2481Y1078D01*
X2481Y1078D01*
X2482Y1078D01*
X2482Y1077D01*
X2483Y1077D01*
X2483Y1077D01*
X2483Y1077D01*
X2484Y1077D01*
X2485Y1076D01*
X2486Y1075D01*
X2486Y1075D01*
X2487Y1074D01*
X2487Y1074D01*
X2487Y1073D01*
X2488Y1073D01*
Y1073D01*
X2488Y1078D01*
X2492D01*
Y1053D01*
X2487D01*
Y1069D01*
X2487Y1070D01*
X2486Y1070D01*
X2486Y1070D01*
X2486Y1071D01*
X2485Y1071D01*
X2485Y1071D01*
X2485Y1071D01*
X2485Y1071D01*
X2484Y1072D01*
X2484Y1073D01*
X2483Y1073D01*
X2483Y1073D01*
X2483Y1073D01*
X2483Y1073D01*
X2482Y1074D01*
X2482Y1074D01*
X2482Y1074D01*
X2481Y1074D01*
X2481Y1074D01*
X2481D01*
X2481Y1074D01*
X2480Y1074D01*
X2480Y1075D01*
X2480D01*
X2479Y1074D01*
X2478Y1074D01*
X2478Y1074D01*
X2477Y1074D01*
X2477Y1074D01*
X2477Y1073D01*
X2477Y1073D01*
X2477Y1073D01*
X2476Y1072D01*
X2476Y1072D01*
X2476Y1071D01*
X2476Y1070D01*
X2476Y1070D01*
X2476Y1069D01*
Y1069D01*
Y1069D01*
Y1068D01*
Y1068D01*
X2471D01*
Y1069D01*
X2471Y1070D01*
X2471Y1071D01*
X2472Y1072D01*
X2472Y1072D01*
X2472Y1073D01*
X2472Y1073D01*
X2472Y1074D01*
X2472Y1074D01*
X2473Y1075D01*
X2473Y1075D01*
X2473Y1075D01*
X2473Y1075D01*
X2473Y1076D01*
X2473Y1076D01*
X2474Y1076D01*
X2474Y1077D01*
X2475Y1077D01*
X2476Y1078D01*
X2477Y1078D01*
X2478Y1078D01*
X2478Y1078D01*
X2478D01*
X2479Y1078D01*
X2479D01*
X2480Y1078D01*
D02*
G37*
%LPC*%
G36*
X2234Y1064D02*
X2228D01*
Y1060D01*
X2229Y1059D01*
X2230Y1059D01*
X2230Y1058D01*
X2231Y1058D01*
X2231Y1058D01*
X2232Y1057D01*
X2232Y1057D01*
X2232Y1057D01*
X2233Y1057D01*
X2233Y1057D01*
X2234Y1056D01*
X2234Y1056D01*
X2235Y1056D01*
X2235Y1056D01*
X2235D01*
X2236Y1056D01*
X2237Y1056D01*
X2237D01*
X2237Y1056D01*
X2237Y1057D01*
X2237D01*
X2238Y1057D01*
X2238Y1057D01*
X2238Y1057D01*
X2239Y1057D01*
X2239Y1058D01*
X2239Y1058D01*
X2239Y1058D01*
X2239Y1058D01*
Y1059D01*
X2239Y1059D01*
X2239Y1059D01*
X2240Y1060D01*
Y1060D01*
Y1060D01*
X2239Y1061D01*
X2239Y1061D01*
X2239Y1061D01*
X2239Y1062D01*
X2239Y1062D01*
Y1062D01*
X2239Y1062D01*
X2238Y1063D01*
X2238Y1063D01*
X2238Y1063D01*
X2238D01*
X2237Y1064D01*
X2237Y1064D01*
X2237Y1064D01*
X2236Y1064D01*
X2236Y1064D01*
X2236D01*
X2235Y1064D01*
X2234Y1064D01*
X2234Y1064D01*
D02*
G37*
G36*
X2308Y1931D02*
X2307D01*
X2305Y1931D01*
X2303Y1931D01*
X2302Y1930D01*
X2301Y1930D01*
X2299Y1930D01*
X2298Y1930D01*
X2297Y1930D01*
X2297Y1929D01*
X2296Y1929D01*
X2295Y1929D01*
X2295Y1929D01*
X2294Y1929D01*
X2294Y1929D01*
X2294Y1928D01*
X2294Y1928D01*
X2294D01*
X2293Y1928D01*
X2293Y1928D01*
X2292Y1927D01*
X2292Y1927D01*
X2292Y1926D01*
X2291Y1925D01*
X2291Y1924D01*
X2291Y1924D01*
X2291Y1923D01*
Y1923D01*
Y1923D01*
Y1923D01*
X2291Y1922D01*
X2291Y1922D01*
X2291Y1921D01*
X2291Y1921D01*
X2292Y1920D01*
X2292Y1919D01*
X2293Y1918D01*
X2294Y1918D01*
X2294Y1918D01*
X2294Y1918D01*
X2294Y1917D01*
X2294D01*
X2295Y1917D01*
X2295Y1917D01*
X2296Y1916D01*
X2297Y1916D01*
X2298Y1916D01*
X2299Y1916D01*
X2301Y1916D01*
X2303Y1915D01*
X2303Y1915D01*
X2304Y1915D01*
X2305D01*
X2306Y1915D01*
X2308D01*
X2310Y1915D01*
X2311Y1915D01*
X2313Y1916D01*
X2314Y1916D01*
X2315Y1916D01*
X2316Y1916D01*
X2317Y1916D01*
X2317Y1917D01*
X2318Y1917D01*
X2318Y1917D01*
X2319Y1917D01*
X2319Y1917D01*
X2319Y1917D01*
X2319Y1918D01*
X2319D01*
X2320Y1918D01*
X2320Y1918D01*
X2321Y1919D01*
X2321Y1919D01*
X2322Y1920D01*
X2322Y1921D01*
X2322Y1922D01*
X2322Y1922D01*
X2322Y1923D01*
Y1923D01*
Y1923D01*
Y1923D01*
X2322Y1924D01*
X2322Y1924D01*
X2322Y1925D01*
X2321Y1926D01*
X2321Y1927D01*
X2320Y1928D01*
X2320Y1928D01*
X2319Y1928D01*
X2319Y1928D01*
X2319D01*
X2319Y1929D01*
X2318Y1929D01*
X2317Y1930D01*
X2316Y1930D01*
X2315Y1930D01*
X2314Y1930D01*
X2312Y1930D01*
X2311Y1931D01*
X2310Y1931D01*
X2309Y1931D01*
X2308D01*
X2308Y1931D01*
D02*
G37*
G36*
Y2020D02*
X2307D01*
X2305Y2020D01*
X2303Y2020D01*
X2302Y2020D01*
X2301Y2020D01*
X2299Y2020D01*
X2298Y2019D01*
X2297Y2019D01*
X2297Y2019D01*
X2296Y2019D01*
X2295Y2019D01*
X2295Y2018D01*
X2294Y2018D01*
X2294Y2018D01*
X2294Y2018D01*
X2294Y2018D01*
X2294D01*
X2293Y2017D01*
X2293Y2017D01*
X2292Y2017D01*
X2292Y2016D01*
X2292Y2015D01*
X2291Y2014D01*
X2291Y2014D01*
X2291Y2013D01*
X2291Y2013D01*
Y2013D01*
Y2013D01*
Y2013D01*
X2291Y2012D01*
X2291Y2011D01*
X2291Y2011D01*
X2291Y2010D01*
X2292Y2009D01*
X2292Y2009D01*
X2293Y2008D01*
X2294Y2007D01*
X2294Y2007D01*
X2294Y2007D01*
X2294Y2007D01*
X2294D01*
X2295Y2007D01*
X2295Y2006D01*
X2296Y2006D01*
X2297Y2006D01*
X2298Y2006D01*
X2299Y2005D01*
X2301Y2005D01*
X2303Y2005D01*
X2303Y2005D01*
X2304Y2005D01*
X2305D01*
X2306Y2005D01*
X2308D01*
X2310Y2005D01*
X2311Y2005D01*
X2313Y2005D01*
X2314Y2005D01*
X2315Y2006D01*
X2316Y2006D01*
X2317Y2006D01*
X2317Y2006D01*
X2318Y2006D01*
X2318Y2007D01*
X2319Y2007D01*
X2319Y2007D01*
X2319Y2007D01*
X2319Y2007D01*
X2319D01*
X2320Y2008D01*
X2320Y2008D01*
X2321Y2008D01*
X2321Y2009D01*
X2322Y2010D01*
X2322Y2011D01*
X2322Y2011D01*
X2322Y2012D01*
X2322Y2012D01*
Y2012D01*
Y2012D01*
Y2013D01*
X2322Y2013D01*
X2322Y2014D01*
X2322Y2015D01*
X2321Y2016D01*
X2321Y2017D01*
X2320Y2017D01*
X2320Y2018D01*
X2319Y2018D01*
X2319Y2018D01*
X2319D01*
X2319Y2018D01*
X2318Y2019D01*
X2317Y2019D01*
X2316Y2019D01*
X2315Y2020D01*
X2314Y2020D01*
X2312Y2020D01*
X2311Y2020D01*
X2310Y2020D01*
X2309Y2020D01*
X2308D01*
X2308Y2020D01*
D02*
G37*
G36*
X1630Y1074D02*
X1630Y1074D01*
Y1074D01*
X1630Y1074D01*
D02*
G37*
G36*
X2317Y1064D02*
X2311D01*
Y1060D01*
X2312Y1059D01*
X2313Y1059D01*
X2313Y1058D01*
X2314Y1058D01*
X2314Y1058D01*
X2315Y1057D01*
X2315Y1057D01*
X2315Y1057D01*
X2316Y1057D01*
X2316Y1057D01*
X2317Y1056D01*
X2317Y1056D01*
X2318Y1056D01*
X2318Y1056D01*
X2318D01*
X2319Y1056D01*
X2320Y1056D01*
X2320D01*
X2320Y1056D01*
X2320Y1057D01*
X2320D01*
X2321Y1057D01*
X2321Y1057D01*
X2322Y1057D01*
X2322Y1057D01*
X2322Y1058D01*
X2322Y1058D01*
X2322Y1058D01*
X2322Y1058D01*
Y1059D01*
X2322Y1059D01*
X2322Y1059D01*
X2323Y1060D01*
Y1060D01*
Y1060D01*
X2322Y1061D01*
X2322Y1061D01*
X2322Y1061D01*
X2322Y1062D01*
X2322Y1062D01*
Y1062D01*
X2322Y1062D01*
X2322Y1063D01*
X2321Y1063D01*
X2321Y1063D01*
X2321D01*
X2321Y1064D01*
X2320Y1064D01*
X2320Y1064D01*
X2319Y1064D01*
X2319Y1064D01*
X2319D01*
X2318Y1064D01*
X2317Y1064D01*
X2317Y1064D01*
D02*
G37*
G36*
X2300Y1865D02*
X2300D01*
X2299Y1865D01*
X2297Y1865D01*
X2296Y1864D01*
X2295Y1864D01*
X2294Y1863D01*
X2294Y1863D01*
X2294Y1863D01*
X2294Y1863D01*
X2294Y1863D01*
X2293D01*
X2293Y1862D01*
X2293Y1862D01*
X2292Y1861D01*
X2291Y1860D01*
X2291Y1859D01*
X2291Y1858D01*
X2291Y1858D01*
X2291Y1858D01*
Y1857D01*
Y1857D01*
Y1857D01*
Y1857D01*
X2291Y1856D01*
X2291Y1855D01*
X2292Y1854D01*
X2292Y1853D01*
X2292Y1853D01*
X2293Y1852D01*
X2293Y1852D01*
X2293Y1852D01*
X2293D01*
X2294Y1851D01*
X2295Y1851D01*
X2296Y1850D01*
X2297Y1850D01*
X2298Y1850D01*
X2299Y1850D01*
X2299D01*
X2299Y1850D01*
X2300D01*
X2301Y1850D01*
X2302Y1850D01*
X2304Y1850D01*
X2304Y1851D01*
X2305Y1851D01*
X2306Y1852D01*
X2306Y1852D01*
X2306Y1852D01*
X2307Y1853D01*
X2307Y1854D01*
X2308Y1855D01*
X2308Y1855D01*
X2308Y1856D01*
X2308Y1857D01*
X2308Y1857D01*
Y1857D01*
Y1857D01*
Y1857D01*
X2308Y1859D01*
X2308Y1860D01*
X2308Y1861D01*
X2307Y1861D01*
X2307Y1862D01*
X2306Y1862D01*
X2306Y1863D01*
X2306Y1863D01*
X2305Y1864D01*
X2304Y1864D01*
X2303Y1864D01*
X2302Y1865D01*
X2301Y1865D01*
X2301Y1865D01*
X2301D01*
X2300Y1865D01*
D02*
G37*
G36*
X1653Y1064D02*
X1647D01*
Y1060D01*
X1647Y1059D01*
X1648Y1059D01*
X1649Y1058D01*
X1649Y1058D01*
X1650Y1058D01*
X1650Y1057D01*
X1651Y1057D01*
X1651Y1057D01*
X1651Y1057D01*
X1652Y1057D01*
X1653Y1056D01*
X1653Y1056D01*
X1654Y1056D01*
X1654Y1056D01*
X1654D01*
X1655Y1056D01*
X1655Y1056D01*
X1656D01*
X1656Y1056D01*
X1656Y1057D01*
X1656D01*
X1656Y1057D01*
X1657Y1057D01*
X1657Y1057D01*
X1657Y1057D01*
X1658Y1058D01*
X1658Y1058D01*
X1658Y1058D01*
X1658Y1058D01*
Y1059D01*
X1658Y1059D01*
X1658Y1059D01*
X1658Y1060D01*
Y1060D01*
Y1060D01*
X1658Y1061D01*
X1658Y1061D01*
X1658Y1061D01*
X1658Y1062D01*
X1658Y1062D01*
Y1062D01*
X1658Y1062D01*
X1657Y1063D01*
X1657Y1063D01*
X1657Y1063D01*
X1657D01*
X1656Y1064D01*
X1656Y1064D01*
X1655Y1064D01*
X1655Y1064D01*
X1655Y1064D01*
X1655D01*
X1654Y1064D01*
X1653Y1064D01*
X1653Y1064D01*
D02*
G37*
G36*
X2310Y1831D02*
X2299Y1827D01*
X2297Y1827D01*
X2296Y1826D01*
X2295Y1826D01*
X2293Y1825D01*
X2293Y1825D01*
X2292Y1825D01*
X2292Y1825D01*
X2292Y1825D01*
X2291D01*
X2291Y1825D01*
X2291D01*
X2292Y1825D01*
X2294Y1824D01*
X2295Y1824D01*
X2296Y1823D01*
X2297Y1823D01*
X2297Y1823D01*
X2298Y1823D01*
X2298Y1822D01*
X2299Y1822D01*
X2299Y1822D01*
X2299Y1822D01*
X2299D01*
X2310Y1818D01*
Y1831D01*
D02*
G37*
G36*
X1902Y1064D02*
X1896D01*
Y1060D01*
X1897Y1059D01*
X1897Y1059D01*
X1898Y1058D01*
X1899Y1058D01*
X1899Y1058D01*
X1900Y1057D01*
X1900Y1057D01*
X1900Y1057D01*
X1901Y1057D01*
X1901Y1057D01*
X1902Y1056D01*
X1902Y1056D01*
X1903Y1056D01*
X1903Y1056D01*
X1903D01*
X1904Y1056D01*
X1905Y1056D01*
X1905D01*
X1905Y1056D01*
X1905Y1057D01*
X1905D01*
X1906Y1057D01*
X1906Y1057D01*
X1906Y1057D01*
X1906Y1057D01*
X1907Y1058D01*
X1907Y1058D01*
X1907Y1058D01*
X1907Y1058D01*
Y1059D01*
X1907Y1059D01*
X1907Y1059D01*
X1907Y1060D01*
Y1060D01*
Y1060D01*
X1907Y1061D01*
X1907Y1061D01*
X1907Y1061D01*
X1907Y1062D01*
X1907Y1062D01*
Y1062D01*
X1907Y1062D01*
X1906Y1063D01*
X1906Y1063D01*
X1906Y1063D01*
X1906D01*
X1905Y1064D01*
X1905Y1064D01*
X1904Y1064D01*
X1904Y1064D01*
X1904Y1064D01*
X1904D01*
X1903Y1064D01*
X1902Y1064D01*
X1902Y1064D01*
D02*
G37*
G36*
X1819D02*
X1813D01*
Y1060D01*
X1814Y1059D01*
X1814Y1059D01*
X1815Y1058D01*
X1816Y1058D01*
X1816Y1058D01*
X1816Y1057D01*
X1817Y1057D01*
X1817Y1057D01*
X1818Y1057D01*
X1818Y1057D01*
X1819Y1056D01*
X1819Y1056D01*
X1820Y1056D01*
X1820Y1056D01*
X1820D01*
X1821Y1056D01*
X1822Y1056D01*
X1822D01*
X1822Y1056D01*
X1822Y1057D01*
X1822D01*
X1823Y1057D01*
X1823Y1057D01*
X1823Y1057D01*
X1823Y1057D01*
X1824Y1058D01*
X1824Y1058D01*
X1824Y1058D01*
X1824Y1058D01*
Y1059D01*
X1824Y1059D01*
X1824Y1059D01*
X1824Y1060D01*
Y1060D01*
Y1060D01*
X1824Y1061D01*
X1824Y1061D01*
X1824Y1061D01*
X1824Y1062D01*
X1824Y1062D01*
Y1062D01*
X1824Y1062D01*
X1823Y1063D01*
X1823Y1063D01*
X1823Y1063D01*
X1823D01*
X1822Y1064D01*
X1822Y1064D01*
X1821Y1064D01*
X1821Y1064D01*
X1821Y1064D01*
X1821D01*
X1820Y1064D01*
X1819Y1064D01*
X1819Y1064D01*
D02*
G37*
G36*
X1623Y1075D02*
X1622D01*
X1622Y1074D01*
X1621Y1074D01*
X1621Y1074D01*
X1621Y1074D01*
X1621Y1074D01*
X1621Y1074D01*
X1620Y1074D01*
X1620Y1073D01*
X1619Y1073D01*
X1619Y1072D01*
X1619Y1072D01*
X1619Y1072D01*
Y1072D01*
X1618Y1071D01*
X1618Y1070D01*
X1618Y1070D01*
X1618Y1070D01*
X1618Y1069D01*
Y1069D01*
X1618Y1068D01*
X1618Y1067D01*
Y1067D01*
X1618Y1066D01*
Y1066D01*
Y1066D01*
Y1066D01*
Y1065D01*
X1618Y1064D01*
X1618Y1063D01*
X1618Y1062D01*
X1618Y1062D01*
X1618Y1062D01*
X1618Y1061D01*
X1618Y1061D01*
X1619Y1061D01*
X1619Y1060D01*
X1619Y1060D01*
X1619Y1059D01*
X1620Y1059D01*
X1620Y1059D01*
X1620Y1058D01*
X1620Y1058D01*
X1620Y1058D01*
X1621Y1058D01*
X1621Y1057D01*
X1622Y1057D01*
X1622Y1057D01*
X1622Y1057D01*
X1622D01*
X1623Y1056D01*
X1624Y1056D01*
X1624Y1056D01*
X1625Y1056D01*
X1625D01*
X1626Y1056D01*
X1626Y1056D01*
X1627Y1056D01*
X1627D01*
X1627Y1057D01*
X1628Y1057D01*
X1628D01*
X1629Y1057D01*
X1629Y1057D01*
X1629Y1057D01*
X1630Y1057D01*
X1630Y1057D01*
X1630Y1057D01*
X1630D01*
Y1069D01*
X1630Y1070D01*
X1629Y1070D01*
X1629Y1071D01*
X1629Y1071D01*
X1628Y1071D01*
X1628Y1072D01*
X1628Y1072D01*
X1628Y1072D01*
X1627Y1072D01*
X1627Y1073D01*
X1626Y1073D01*
X1626Y1073D01*
X1626Y1073D01*
X1626D01*
X1625Y1074D01*
X1625Y1074D01*
X1625Y1074D01*
X1625Y1074D01*
X1624Y1074D01*
X1624D01*
X1624Y1074D01*
X1623Y1074D01*
X1623Y1075D01*
D02*
G37*
G36*
X1514Y1082D02*
X1514D01*
X1513Y1082D01*
X1513Y1082D01*
X1512Y1082D01*
X1512Y1082D01*
X1512Y1082D01*
X1512Y1082D01*
X1512D01*
X1511Y1081D01*
X1510Y1081D01*
X1510Y1081D01*
X1510Y1081D01*
X1510Y1081D01*
X1510Y1080D01*
X1509Y1080D01*
X1509Y1079D01*
X1509Y1079D01*
X1508Y1079D01*
X1508Y1079D01*
Y1079D01*
X1508Y1078D01*
X1508Y1077D01*
X1508Y1077D01*
X1507Y1077D01*
X1507Y1076D01*
Y1076D01*
X1521Y1066D01*
X1521Y1067D01*
Y1067D01*
Y1068D01*
Y1068D01*
Y1068D01*
Y1068D01*
Y1069D01*
Y1069D01*
Y1069D01*
Y1069D01*
Y1070D01*
X1521Y1071D01*
X1521Y1072D01*
X1521Y1073D01*
X1521Y1074D01*
X1521Y1074D01*
X1521Y1075D01*
Y1075D01*
X1520Y1076D01*
X1520Y1076D01*
X1520Y1077D01*
X1520Y1078D01*
X1519Y1078D01*
X1519Y1079D01*
X1519Y1079D01*
X1519Y1079D01*
X1519Y1079D01*
X1518Y1080D01*
X1518Y1080D01*
X1518Y1081D01*
X1517Y1081D01*
X1517Y1081D01*
X1517Y1081D01*
X1517Y1081D01*
X1516Y1082D01*
X1516Y1082D01*
X1515Y1082D01*
X1515Y1082D01*
X1514Y1082D01*
X1514Y1082D01*
D02*
G37*
G36*
X2314Y2217D02*
X2313D01*
X2312Y2217D01*
X2311Y2217D01*
X2310Y2216D01*
X2309Y2216D01*
X2308Y2215D01*
X2308Y2215D01*
X2307Y2215D01*
X2307Y2215D01*
X2306Y2214D01*
X2306Y2213D01*
X2305Y2212D01*
X2305Y2211D01*
X2305Y2210D01*
X2305Y2210D01*
X2305Y2210D01*
Y2209D01*
Y2209D01*
Y2209D01*
X2305Y2208D01*
X2305Y2207D01*
X2306Y2206D01*
X2306Y2205D01*
X2306Y2205D01*
X2307Y2204D01*
X2307Y2204D01*
X2307Y2204D01*
X2308Y2203D01*
X2309Y2203D01*
X2310Y2202D01*
X2311Y2202D01*
X2312Y2202D01*
X2312Y2202D01*
X2313D01*
X2313Y2202D01*
X2313D01*
X2315Y2202D01*
X2316Y2202D01*
X2317Y2202D01*
X2318Y2203D01*
X2319Y2203D01*
X2319Y2204D01*
X2320Y2204D01*
X2320Y2204D01*
X2320D01*
X2320Y2204D01*
X2321Y2205D01*
X2321Y2206D01*
X2322Y2207D01*
X2322Y2207D01*
X2322Y2208D01*
X2322Y2209D01*
X2322Y2209D01*
Y2209D01*
Y2209D01*
Y2209D01*
X2322Y2210D01*
X2322Y2211D01*
X2322Y2211D01*
X2322Y2212D01*
X2322Y2212D01*
X2321Y2213D01*
X2321Y2213D01*
X2321Y2213D01*
X2321Y2214D01*
X2320Y2214D01*
X2320Y2215D01*
X2319Y2215D01*
X2319Y2215D01*
X2318Y2216D01*
X2318Y2216D01*
X2318Y2216D01*
X2317Y2216D01*
X2316Y2216D01*
X2315Y2217D01*
X2315Y2217D01*
X2314Y2217D01*
X2314Y2217D01*
D02*
G37*
G36*
X2516Y1082D02*
X2511D01*
X2510Y1082D01*
X2509Y1081D01*
X2508Y1081D01*
X2507Y1081D01*
X2507Y1080D01*
X2506Y1080D01*
X2506Y1080D01*
X2506Y1080D01*
X2505Y1079D01*
X2505Y1078D01*
X2504Y1078D01*
X2504Y1077D01*
X2504Y1076D01*
X2504Y1076D01*
X2504Y1075D01*
Y1075D01*
Y1075D01*
Y1075D01*
X2504Y1074D01*
X2504Y1073D01*
X2504Y1072D01*
X2505Y1071D01*
X2505Y1071D01*
X2506Y1070D01*
X2506Y1070D01*
X2506Y1070D01*
X2507Y1070D01*
X2508Y1069D01*
X2509Y1069D01*
X2510Y1069D01*
X2510Y1068D01*
X2511Y1068D01*
X2511D01*
X2511Y1068D01*
X2516D01*
Y1082D01*
D02*
G37*
G36*
X1878Y1054D02*
X1878D01*
X1872Y1054D01*
X1871Y1054D01*
X1870Y1053D01*
X1869Y1053D01*
X1869Y1053D01*
X1868Y1053D01*
X1868Y1053D01*
X1868Y1053D01*
X1868Y1053D01*
X1867Y1052D01*
X1867Y1052D01*
X1867Y1052D01*
X1867Y1051D01*
X1867Y1051D01*
X1866Y1051D01*
Y1051D01*
Y1051D01*
X1867Y1050D01*
X1867Y1049D01*
X1867Y1049D01*
X1867Y1049D01*
X1867Y1049D01*
Y1049D01*
X1867Y1048D01*
X1868Y1048D01*
X1868Y1048D01*
X1868Y1048D01*
X1868Y1048D01*
X1868Y1047D01*
X1869Y1047D01*
X1870Y1047D01*
X1870Y1047D01*
X1870Y1047D01*
X1870Y1047D01*
X1870D01*
X1871Y1047D01*
X1871Y1046D01*
X1872Y1046D01*
X1873Y1046D01*
X1873Y1046D01*
X1874D01*
X1875Y1046D01*
X1876Y1046D01*
X1877Y1047D01*
X1878Y1047D01*
X1878Y1047D01*
X1878Y1047D01*
X1879Y1047D01*
X1879Y1047D01*
X1879Y1047D01*
X1880Y1048D01*
X1880Y1048D01*
X1880Y1049D01*
X1881Y1049D01*
X1881Y1049D01*
X1881Y1050D01*
Y1050D01*
Y1050D01*
X1881Y1050D01*
X1881Y1051D01*
Y1051D01*
X1880Y1051D01*
X1880Y1051D01*
X1880Y1052D01*
X1880Y1052D01*
X1880Y1052D01*
X1880Y1052D01*
X1879Y1053D01*
X1879Y1053D01*
X1879Y1053D01*
X1878Y1053D01*
X1878Y1054D01*
X1878Y1054D01*
D02*
G37*
G36*
X1983Y1073D02*
X1983D01*
X1983Y1073D01*
X1983Y1073D01*
X1982Y1072D01*
X1982Y1072D01*
X1982Y1072D01*
X1982Y1072D01*
X1982Y1072D01*
X1981Y1072D01*
X1983Y1061D01*
X1983Y1060D01*
X1984Y1060D01*
X1984Y1060D01*
X1984Y1060D01*
X1984Y1059D01*
Y1059D01*
X1984Y1059D01*
X1984Y1059D01*
X1985Y1059D01*
X1985Y1058D01*
X1985Y1058D01*
X1985Y1058D01*
X1985Y1058D01*
X1985D01*
X1986Y1058D01*
X1986D01*
X1986Y1058D01*
X1986Y1058D01*
X1987Y1058D01*
X1987Y1059D01*
X1987Y1059D01*
Y1059D01*
X1987Y1059D01*
X1987Y1060D01*
X1987Y1061D01*
X1987Y1062D01*
Y1062D01*
Y1062D01*
Y1062D01*
Y1063D01*
X1987Y1064D01*
Y1064D01*
Y1064D01*
Y1064D01*
Y1064D01*
X1987Y1065D01*
X1987Y1066D01*
X1987Y1066D01*
X1987Y1066D01*
Y1067D01*
Y1067D01*
X1987Y1067D01*
X1987Y1068D01*
X1987Y1068D01*
X1987Y1069D01*
X1986Y1069D01*
Y1069D01*
X1986Y1070D01*
X1986Y1070D01*
X1986Y1070D01*
X1986Y1071D01*
X1986Y1071D01*
Y1071D01*
X1985Y1071D01*
X1985Y1072D01*
X1985Y1072D01*
X1985Y1072D01*
X1984Y1072D01*
X1984Y1073D01*
X1983Y1073D01*
D02*
G37*
G36*
X1874Y1075D02*
X1874D01*
X1873Y1075D01*
X1873Y1075D01*
X1872Y1075D01*
X1872Y1075D01*
X1872Y1075D01*
X1872Y1075D01*
X1872D01*
X1871Y1074D01*
X1871Y1074D01*
X1870Y1074D01*
X1870Y1074D01*
X1870Y1074D01*
X1870Y1074D01*
X1870Y1073D01*
X1869Y1072D01*
X1869Y1072D01*
X1869Y1072D01*
X1869Y1072D01*
Y1072D01*
X1869Y1071D01*
X1869Y1070D01*
X1869Y1070D01*
Y1070D01*
Y1070D01*
Y1070D01*
X1869Y1069D01*
X1869Y1068D01*
X1869Y1068D01*
X1869Y1068D01*
X1869Y1068D01*
Y1068D01*
X1869Y1067D01*
X1870Y1067D01*
X1870Y1066D01*
X1870Y1066D01*
X1870Y1066D01*
X1870Y1066D01*
X1871Y1066D01*
X1871Y1065D01*
X1871Y1065D01*
X1872Y1065D01*
X1872Y1065D01*
X1872D01*
X1873Y1065D01*
X1873Y1065D01*
X1874Y1065D01*
X1874D01*
X1875Y1065D01*
X1875Y1065D01*
X1876Y1065D01*
X1876Y1065D01*
X1876Y1065D01*
X1876Y1065D01*
X1876D01*
X1877Y1065D01*
X1877Y1066D01*
X1878Y1066D01*
X1878Y1066D01*
X1878Y1066D01*
X1878Y1066D01*
X1878Y1066D01*
X1879Y1067D01*
X1879Y1067D01*
X1879Y1067D01*
X1879Y1068D01*
Y1068D01*
X1879Y1068D01*
X1879Y1069D01*
X1879Y1069D01*
Y1070D01*
Y1070D01*
Y1070D01*
X1879Y1071D01*
X1879Y1071D01*
X1879Y1071D01*
X1879Y1072D01*
X1879Y1072D01*
Y1072D01*
X1879Y1072D01*
X1878Y1073D01*
X1878Y1073D01*
X1878Y1073D01*
X1878Y1073D01*
Y1073D01*
X1877Y1074D01*
X1877Y1074D01*
X1877Y1074D01*
X1876Y1074D01*
X1876Y1075D01*
X1876D01*
X1875Y1075D01*
X1875Y1075D01*
X1874Y1075D01*
D02*
G37*
G36*
X2314Y2157D02*
X2313D01*
X2312Y2157D01*
X2311Y2157D01*
X2310Y2156D01*
X2309Y2156D01*
X2308Y2156D01*
X2308Y2155D01*
X2307Y2155D01*
X2307Y2155D01*
X2306Y2154D01*
X2306Y2153D01*
X2305Y2152D01*
X2305Y2151D01*
X2305Y2151D01*
X2305Y2150D01*
X2305Y2150D01*
Y2150D01*
Y2150D01*
Y2150D01*
X2305Y2148D01*
X2305Y2147D01*
X2306Y2146D01*
X2306Y2146D01*
X2306Y2145D01*
X2307Y2145D01*
X2307Y2144D01*
X2307Y2144D01*
X2308Y2143D01*
X2309Y2143D01*
X2310Y2143D01*
X2311Y2142D01*
X2312Y2142D01*
X2312Y2142D01*
X2313D01*
X2313Y2142D01*
X2313D01*
X2315Y2142D01*
X2316Y2142D01*
X2317Y2143D01*
X2318Y2143D01*
X2319Y2144D01*
X2319Y2144D01*
X2320Y2144D01*
X2320Y2144D01*
X2320D01*
X2320Y2145D01*
X2321Y2145D01*
X2321Y2146D01*
X2322Y2147D01*
X2322Y2148D01*
X2322Y2148D01*
X2322Y2149D01*
X2322Y2149D01*
Y2149D01*
Y2149D01*
Y2149D01*
X2322Y2150D01*
X2322Y2151D01*
X2322Y2152D01*
X2322Y2152D01*
X2322Y2153D01*
X2321Y2153D01*
X2321Y2153D01*
X2321Y2153D01*
X2321Y2154D01*
X2320Y2154D01*
X2320Y2155D01*
X2319Y2155D01*
X2319Y2156D01*
X2318Y2156D01*
X2318Y2156D01*
X2318Y2156D01*
X2317Y2156D01*
X2316Y2157D01*
X2315Y2157D01*
X2315Y2157D01*
X2314Y2157D01*
X2314Y2157D01*
D02*
G37*
G36*
X2312Y2100D02*
X2295Y2088D01*
X2312D01*
Y2100D01*
D02*
G37*
G36*
X2121Y1075D02*
X2121D01*
X2120Y1074D01*
X2120Y1074D01*
X2119Y1074D01*
X2119Y1074D01*
X2119Y1074D01*
X2119Y1074D01*
X2119Y1074D01*
X2118Y1073D01*
X2118Y1073D01*
X2117Y1072D01*
X2117Y1072D01*
X2117Y1072D01*
Y1072D01*
X2117Y1071D01*
X2116Y1070D01*
X2116Y1070D01*
X2116Y1070D01*
X2116Y1069D01*
Y1069D01*
X2116Y1068D01*
X2116Y1067D01*
Y1067D01*
X2116Y1066D01*
Y1066D01*
Y1066D01*
Y1066D01*
Y1065D01*
X2116Y1064D01*
X2116Y1063D01*
X2116Y1063D01*
X2116Y1062D01*
X2117Y1061D01*
X2117Y1061D01*
X2117Y1060D01*
X2117Y1060D01*
X2117Y1060D01*
X2117Y1059D01*
X2118Y1059D01*
X2118Y1059D01*
X2118Y1059D01*
X2118Y1059D01*
Y1059D01*
X2118Y1058D01*
X2119Y1058D01*
X2120Y1057D01*
X2121Y1057D01*
X2121Y1057D01*
X2122Y1056D01*
X2123Y1056D01*
X2123Y1056D01*
X2123D01*
X2124Y1056D01*
X2125Y1056D01*
X2125Y1056D01*
X2125D01*
X2126Y1057D01*
X2126Y1057D01*
X2126D01*
X2127Y1057D01*
X2127Y1057D01*
X2128Y1057D01*
X2128Y1057D01*
X2128Y1057D01*
X2128Y1057D01*
X2128D01*
Y1069D01*
X2128Y1070D01*
X2128Y1070D01*
X2127Y1071D01*
X2127Y1071D01*
X2127Y1071D01*
X2126Y1072D01*
X2126Y1072D01*
X2126Y1072D01*
X2126Y1072D01*
X2125Y1073D01*
X2125Y1073D01*
X2125Y1073D01*
X2124Y1073D01*
X2124D01*
X2124Y1074D01*
X2123Y1074D01*
X2123Y1074D01*
X2123Y1074D01*
X2123Y1074D01*
X2123D01*
X2122Y1074D01*
X2122Y1074D01*
X2121Y1075D01*
D02*
G37*
G36*
X1736Y1075D02*
X1735D01*
X1734Y1074D01*
X1734Y1074D01*
X1733Y1074D01*
X1733Y1074D01*
X1732Y1074D01*
X1732Y1074D01*
X1732Y1074D01*
X1731Y1073D01*
X1731Y1073D01*
X1731Y1073D01*
X1730Y1073D01*
X1730Y1072D01*
X1730Y1072D01*
X1730Y1072D01*
X1730Y1072D01*
X1729Y1071D01*
X1729Y1070D01*
X1729Y1070D01*
X1729Y1070D01*
X1729Y1069D01*
Y1069D01*
X1728Y1069D01*
X1728Y1068D01*
X1728Y1067D01*
X1728Y1067D01*
X1728Y1066D01*
Y1066D01*
Y1066D01*
Y1065D01*
X1728Y1064D01*
X1728Y1064D01*
X1728Y1063D01*
X1728Y1063D01*
X1728Y1062D01*
X1728Y1062D01*
Y1062D01*
X1729Y1061D01*
X1729Y1061D01*
X1729Y1060D01*
X1729Y1060D01*
X1729Y1060D01*
X1730Y1059D01*
X1730Y1059D01*
X1730Y1059D01*
X1730Y1058D01*
X1731Y1058D01*
X1731Y1058D01*
X1731Y1057D01*
X1732Y1057D01*
X1732Y1057D01*
X1732Y1057D01*
X1732Y1057D01*
X1733Y1057D01*
X1734Y1056D01*
X1734Y1056D01*
X1735Y1056D01*
X1735Y1056D01*
X1736D01*
X1736Y1056D01*
X1737Y1056D01*
X1737Y1057D01*
X1738Y1057D01*
X1738Y1057D01*
X1738Y1057D01*
X1738D01*
X1739Y1057D01*
X1740Y1058D01*
X1740Y1058D01*
X1740Y1058D01*
X1740Y1058D01*
X1740Y1059D01*
X1741Y1059D01*
X1741Y1059D01*
X1742Y1060D01*
X1742Y1061D01*
X1742Y1061D01*
X1742Y1061D01*
Y1061D01*
X1742Y1063D01*
X1742Y1063D01*
X1742Y1064D01*
Y1065D01*
X1742Y1065D01*
Y1065D01*
Y1065D01*
X1742Y1067D01*
X1742Y1067D01*
X1742Y1068D01*
X1742Y1068D01*
X1742Y1069D01*
X1742Y1069D01*
Y1069D01*
X1742Y1070D01*
X1742Y1070D01*
X1742Y1071D01*
X1741Y1071D01*
X1741Y1071D01*
X1741Y1072D01*
X1741Y1072D01*
X1741Y1072D01*
X1740Y1073D01*
X1740Y1073D01*
X1739Y1073D01*
X1739Y1074D01*
X1739Y1074D01*
X1739Y1074D01*
X1739Y1074D01*
X1738Y1074D01*
X1737Y1074D01*
X1737Y1074D01*
X1736Y1074D01*
X1736Y1075D01*
X1736Y1075D01*
D02*
G37*
G36*
X1507Y1072D02*
X1507Y1072D01*
Y1071D01*
X1507Y1071D01*
Y1071D01*
Y1071D01*
Y1071D01*
X1506Y1070D01*
X1506Y1070D01*
Y1069D01*
Y1069D01*
Y1069D01*
Y1069D01*
Y1068D01*
X1507Y1067D01*
X1507Y1066D01*
X1507Y1065D01*
X1507Y1064D01*
X1507Y1064D01*
X1507Y1064D01*
Y1064D01*
Y1064D01*
X1507Y1063D01*
X1507Y1062D01*
X1508Y1061D01*
X1508Y1061D01*
X1508Y1060D01*
X1508Y1060D01*
X1508Y1060D01*
X1508Y1060D01*
X1509Y1059D01*
X1509Y1059D01*
X1510Y1058D01*
X1510Y1058D01*
X1510Y1057D01*
X1510Y1057D01*
X1511Y1057D01*
X1511Y1057D01*
X1511Y1057D01*
X1512Y1057D01*
X1512Y1057D01*
X1513Y1056D01*
X1513Y1056D01*
X1513Y1056D01*
X1514D01*
X1515Y1056D01*
X1515Y1056D01*
X1515Y1057D01*
X1516Y1057D01*
X1516Y1057D01*
X1516Y1057D01*
X1516D01*
X1517Y1057D01*
X1517Y1058D01*
X1518Y1058D01*
X1518Y1058D01*
X1518Y1058D01*
X1518Y1058D01*
X1518Y1059D01*
X1519Y1059D01*
X1519Y1059D01*
X1519Y1060D01*
X1519Y1060D01*
X1519Y1060D01*
X1520Y1061D01*
X1520Y1061D01*
X1520Y1062D01*
X1520Y1062D01*
X1520Y1062D01*
Y1062D01*
X1507Y1072D01*
D02*
G37*
G36*
X2297Y2126D02*
X2297D01*
X2296Y2126D01*
X2295Y2126D01*
X2294Y2126D01*
X2294Y2125D01*
X2293Y2125D01*
X2293Y2125D01*
X2293Y2125D01*
X2293Y2124D01*
X2292Y2124D01*
X2292Y2123D01*
X2291Y2122D01*
X2291Y2122D01*
X2291Y2121D01*
X2291Y2120D01*
Y2120D01*
Y2120D01*
Y2120D01*
X2291Y2119D01*
X2291Y2118D01*
X2291Y2117D01*
X2292Y2117D01*
X2292Y2116D01*
X2292Y2116D01*
X2293Y2116D01*
X2293Y2115D01*
X2293Y2115D01*
X2294Y2114D01*
X2295Y2114D01*
X2295Y2114D01*
X2296Y2114D01*
X2297Y2114D01*
X2297D01*
X2298Y2114D01*
X2299Y2114D01*
X2299Y2114D01*
X2300Y2115D01*
X2301Y2115D01*
X2301Y2115D01*
X2301Y2115D01*
X2301Y2115D01*
X2302Y2116D01*
X2302Y2117D01*
X2303Y2118D01*
X2303Y2118D01*
X2303Y2119D01*
X2303Y2119D01*
X2303Y2120D01*
Y2120D01*
Y2120D01*
X2303Y2121D01*
X2303Y2122D01*
X2302Y2123D01*
X2302Y2123D01*
X2302Y2124D01*
X2302Y2124D01*
X2301Y2124D01*
X2301Y2124D01*
X2301Y2125D01*
X2300Y2125D01*
X2299Y2126D01*
X2298Y2126D01*
X2298Y2126D01*
X2297Y2126D01*
X2297Y2126D01*
D02*
G37*
G36*
X2315Y2128D02*
X2315D01*
X2313Y2128D01*
X2312Y2127D01*
X2311Y2127D01*
X2311Y2127D01*
X2310Y2126D01*
X2309Y2126D01*
X2309Y2126D01*
X2309Y2126D01*
X2308Y2125D01*
X2308Y2124D01*
X2307Y2123D01*
X2307Y2122D01*
X2307Y2121D01*
X2307Y2121D01*
X2307Y2120D01*
Y2120D01*
Y2120D01*
Y2120D01*
X2307Y2119D01*
X2307Y2118D01*
X2308Y2117D01*
X2308Y2116D01*
X2308Y2115D01*
X2309Y2115D01*
X2309Y2114D01*
X2309Y2114D01*
X2310Y2114D01*
X2311Y2113D01*
X2312Y2113D01*
X2313Y2112D01*
X2314Y2112D01*
X2314Y2112D01*
X2314Y2112D01*
X2315D01*
X2316Y2112D01*
X2317Y2112D01*
X2318Y2113D01*
X2319Y2113D01*
X2319Y2114D01*
X2320Y2114D01*
X2320Y2114D01*
X2320Y2114D01*
X2321Y2115D01*
X2321Y2116D01*
X2322Y2117D01*
X2322Y2118D01*
X2322Y2119D01*
X2322Y2119D01*
X2322Y2120D01*
Y2120D01*
Y2120D01*
Y2120D01*
X2322Y2121D01*
X2322Y2121D01*
X2322Y2122D01*
X2322Y2123D01*
X2322Y2123D01*
X2321Y2124D01*
X2321Y2124D01*
X2321Y2124D01*
X2321Y2125D01*
X2320Y2125D01*
X2320Y2126D01*
X2319Y2126D01*
X2319Y2126D01*
X2319Y2127D01*
X2318Y2127D01*
X2318Y2127D01*
X2318Y2127D01*
X2317Y2127D01*
X2316Y2128D01*
X2316Y2128D01*
X2315Y2128D01*
X2315Y2128D01*
D02*
G37*
%LPD*%
D10*
X2132Y1655D02*
X2161D01*
D29*
X2104Y2500D02*
G03*
X2104Y2500I-5J0D01*
G01*
D30*
X2379Y2585D02*
X2416D01*
X2379Y1384D02*
X2416D01*
X2196D02*
X2281D01*
X2197Y2585D02*
X2281D01*
X2196Y1384D02*
Y1482D01*
X2416Y1384D02*
Y2585D01*
X2197Y2486D02*
Y2585D01*
X1962Y2745D02*
X2001D01*
X1962Y2867D02*
X2001D01*
X1962Y2745D02*
Y2867D01*
X2001Y2745D02*
Y2867D01*
X1704Y1570D02*
Y2965D01*
X1003Y1570D02*
X1704D01*
X1514Y2965D02*
X1704D01*
X1003D02*
X1197D01*
X1003Y1570D02*
Y2965D01*
X2094Y2480D02*
X2133D01*
Y2512D01*
X2094Y2598D02*
X2133D01*
Y2567D02*
Y2598D01*
M02*
