%FSLAX23Y23*%
%MOIN*%
G70*
G01*
G75*
G04 Layer_Physical_Order=1*
G04 Layer_Color=255*
%ADD10C,0.006*%
%ADD11C,0.060*%
%ADD12C,0.024*%
%ADD13C,0.020*%
G36*
X2963Y2959D02*
Y1004D01*
X1004D01*
Y2963D01*
X2959Y2963D01*
X2963Y2959D01*
D02*
G37*
%LPC*%
G36*
X1653Y2051D02*
X1644Y2050D01*
X1635Y2046D01*
X1628Y2040D01*
X1622Y2033D01*
X1618Y2024D01*
X1617Y2015D01*
X1618Y2005D01*
X1622Y1997D01*
X1628Y1989D01*
X1635Y1983D01*
X1644Y1980D01*
X1653Y1978D01*
X1663Y1980D01*
X1672Y1983D01*
X1679Y1989D01*
X1685Y1997D01*
X1688Y2005D01*
X1690Y2015D01*
X1688Y2024D01*
X1685Y2033D01*
X1679Y2040D01*
X1672Y2046D01*
X1663Y2050D01*
X1653Y2051D01*
D02*
G37*
G36*
X1053Y2151D02*
X1044Y2150D01*
X1035Y2146D01*
X1028Y2140D01*
X1022Y2133D01*
X1018Y2124D01*
X1017Y2115D01*
X1018Y2105D01*
X1022Y2097D01*
X1028Y2089D01*
X1035Y2083D01*
X1044Y2080D01*
X1053Y2078D01*
X1063Y2080D01*
X1072Y2083D01*
X1079Y2089D01*
X1085Y2097D01*
X1088Y2105D01*
X1090Y2115D01*
X1088Y2124D01*
X1085Y2133D01*
X1079Y2140D01*
X1072Y2146D01*
X1063Y2150D01*
X1053Y2151D01*
D02*
G37*
G36*
X1653Y1951D02*
X1644Y1950D01*
X1635Y1946D01*
X1628Y1940D01*
X1622Y1933D01*
X1618Y1924D01*
X1617Y1915D01*
X1618Y1905D01*
X1622Y1897D01*
X1628Y1889D01*
X1635Y1883D01*
X1644Y1880D01*
X1653Y1878D01*
X1663Y1880D01*
X1672Y1883D01*
X1679Y1889D01*
X1685Y1897D01*
X1688Y1905D01*
X1690Y1915D01*
X1688Y1924D01*
X1685Y1933D01*
X1679Y1940D01*
X1672Y1946D01*
X1663Y1950D01*
X1653Y1951D01*
D02*
G37*
G36*
X1053Y2051D02*
X1044Y2050D01*
X1035Y2046D01*
X1028Y2040D01*
X1022Y2033D01*
X1018Y2024D01*
X1017Y2015D01*
X1018Y2005D01*
X1022Y1997D01*
X1028Y1989D01*
X1035Y1983D01*
X1044Y1980D01*
X1053Y1978D01*
X1063Y1980D01*
X1072Y1983D01*
X1079Y1989D01*
X1085Y1997D01*
X1088Y2005D01*
X1090Y2015D01*
X1088Y2024D01*
X1085Y2033D01*
X1079Y2040D01*
X1072Y2046D01*
X1063Y2050D01*
X1053Y2051D01*
D02*
G37*
G36*
X1653Y2251D02*
X1644Y2250D01*
X1635Y2246D01*
X1628Y2240D01*
X1622Y2233D01*
X1618Y2224D01*
X1617Y2215D01*
X1618Y2205D01*
X1622Y2197D01*
X1628Y2189D01*
X1635Y2183D01*
X1644Y2180D01*
X1653Y2178D01*
X1663Y2180D01*
X1672Y2183D01*
X1679Y2189D01*
X1685Y2197D01*
X1688Y2205D01*
X1690Y2215D01*
X1688Y2224D01*
X1685Y2233D01*
X1679Y2240D01*
X1672Y2246D01*
X1663Y2250D01*
X1653Y2251D01*
D02*
G37*
G36*
X1053Y2351D02*
X1044Y2350D01*
X1035Y2346D01*
X1028Y2340D01*
X1022Y2333D01*
X1018Y2324D01*
X1017Y2315D01*
X1018Y2305D01*
X1022Y2297D01*
X1028Y2289D01*
X1035Y2283D01*
X1044Y2280D01*
X1053Y2278D01*
X1063Y2280D01*
X1072Y2283D01*
X1079Y2289D01*
X1085Y2297D01*
X1088Y2305D01*
X1090Y2315D01*
X1088Y2324D01*
X1085Y2333D01*
X1079Y2340D01*
X1072Y2346D01*
X1063Y2350D01*
X1053Y2351D01*
D02*
G37*
G36*
X1653Y2151D02*
X1644Y2150D01*
X1635Y2146D01*
X1628Y2140D01*
X1622Y2133D01*
X1618Y2124D01*
X1617Y2115D01*
X1618Y2105D01*
X1622Y2097D01*
X1628Y2089D01*
X1635Y2083D01*
X1644Y2080D01*
X1653Y2078D01*
X1663Y2080D01*
X1672Y2083D01*
X1679Y2089D01*
X1685Y2097D01*
X1688Y2105D01*
X1690Y2115D01*
X1688Y2124D01*
X1685Y2133D01*
X1679Y2140D01*
X1672Y2146D01*
X1663Y2150D01*
X1653Y2151D01*
D02*
G37*
G36*
X1053Y2251D02*
X1044Y2250D01*
X1035Y2246D01*
X1028Y2240D01*
X1022Y2233D01*
X1018Y2224D01*
X1017Y2215D01*
X1018Y2205D01*
X1022Y2197D01*
X1028Y2189D01*
X1035Y2183D01*
X1044Y2180D01*
X1053Y2178D01*
X1063Y2180D01*
X1072Y2183D01*
X1079Y2189D01*
X1085Y2197D01*
X1088Y2205D01*
X1090Y2215D01*
X1088Y2224D01*
X1085Y2233D01*
X1079Y2240D01*
X1072Y2246D01*
X1063Y2250D01*
X1053Y2251D01*
D02*
G37*
G36*
Y1951D02*
X1044Y1950D01*
X1035Y1946D01*
X1028Y1940D01*
X1022Y1933D01*
X1018Y1924D01*
X1017Y1915D01*
X1018Y1905D01*
X1022Y1897D01*
X1028Y1889D01*
X1035Y1883D01*
X1044Y1880D01*
X1053Y1878D01*
X1063Y1880D01*
X1072Y1883D01*
X1079Y1889D01*
X1085Y1897D01*
X1088Y1905D01*
X1090Y1915D01*
X1088Y1924D01*
X1085Y1933D01*
X1079Y1940D01*
X1072Y1946D01*
X1063Y1950D01*
X1053Y1951D01*
D02*
G37*
G36*
X1653Y1651D02*
X1644Y1650D01*
X1635Y1646D01*
X1628Y1640D01*
X1622Y1633D01*
X1618Y1624D01*
X1617Y1615D01*
X1618Y1605D01*
X1622Y1597D01*
X1628Y1589D01*
X1635Y1583D01*
X1644Y1580D01*
X1653Y1578D01*
X1663Y1580D01*
X1672Y1583D01*
X1679Y1589D01*
X1685Y1597D01*
X1688Y1605D01*
X1690Y1615D01*
X1688Y1624D01*
X1685Y1633D01*
X1679Y1640D01*
X1672Y1646D01*
X1663Y1650D01*
X1653Y1651D01*
D02*
G37*
G36*
X1053Y1751D02*
X1044Y1750D01*
X1035Y1746D01*
X1028Y1740D01*
X1022Y1733D01*
X1018Y1724D01*
X1017Y1715D01*
X1018Y1705D01*
X1022Y1697D01*
X1028Y1689D01*
X1035Y1683D01*
X1044Y1680D01*
X1053Y1678D01*
X1063Y1680D01*
X1072Y1683D01*
X1079Y1689D01*
X1085Y1697D01*
X1088Y1705D01*
X1090Y1715D01*
X1088Y1724D01*
X1085Y1733D01*
X1079Y1740D01*
X1072Y1746D01*
X1063Y1750D01*
X1053Y1751D01*
D02*
G37*
G36*
X2685Y2601D02*
X2537D01*
X2533Y2599D01*
X2531Y2594D01*
Y1374D01*
X2533Y1369D01*
X2537Y1368D01*
X2685D01*
X2690Y1369D01*
X2692Y1374D01*
Y2594D01*
X2690Y2599D01*
X2685Y2601D01*
D02*
G37*
G36*
X1053Y1651D02*
X1044Y1650D01*
X1035Y1646D01*
X1028Y1640D01*
X1022Y1633D01*
X1018Y1624D01*
X1017Y1615D01*
X1018Y1605D01*
X1022Y1597D01*
X1028Y1589D01*
X1035Y1583D01*
X1044Y1580D01*
X1053Y1578D01*
X1063Y1580D01*
X1072Y1583D01*
X1079Y1589D01*
X1085Y1597D01*
X1088Y1605D01*
X1090Y1615D01*
X1088Y1624D01*
X1085Y1633D01*
X1079Y1640D01*
X1072Y1646D01*
X1063Y1650D01*
X1053Y1651D01*
D02*
G37*
G36*
Y1851D02*
X1044Y1850D01*
X1035Y1846D01*
X1028Y1840D01*
X1022Y1833D01*
X1018Y1824D01*
X1017Y1815D01*
X1018Y1805D01*
X1022Y1797D01*
X1028Y1789D01*
X1035Y1783D01*
X1044Y1780D01*
X1053Y1778D01*
X1063Y1780D01*
X1072Y1783D01*
X1079Y1789D01*
X1085Y1797D01*
X1088Y1805D01*
X1090Y1815D01*
X1088Y1824D01*
X1085Y1833D01*
X1079Y1840D01*
X1072Y1846D01*
X1063Y1850D01*
X1053Y1851D01*
D02*
G37*
G36*
X1653D02*
X1644Y1850D01*
X1635Y1846D01*
X1628Y1840D01*
X1622Y1833D01*
X1618Y1824D01*
X1617Y1815D01*
X1618Y1805D01*
X1622Y1797D01*
X1628Y1789D01*
X1635Y1783D01*
X1644Y1780D01*
X1653Y1778D01*
X1663Y1780D01*
X1672Y1783D01*
X1679Y1789D01*
X1685Y1797D01*
X1688Y1805D01*
X1690Y1815D01*
X1688Y1824D01*
X1685Y1833D01*
X1679Y1840D01*
X1672Y1846D01*
X1663Y1850D01*
X1653Y1851D01*
D02*
G37*
G36*
Y1751D02*
X1644Y1750D01*
X1635Y1746D01*
X1628Y1740D01*
X1622Y1733D01*
X1618Y1724D01*
X1617Y1715D01*
X1618Y1705D01*
X1622Y1697D01*
X1628Y1689D01*
X1635Y1683D01*
X1644Y1680D01*
X1653Y1678D01*
X1663Y1680D01*
X1672Y1683D01*
X1679Y1689D01*
X1685Y1697D01*
X1688Y1705D01*
X1690Y1715D01*
X1688Y1724D01*
X1685Y1733D01*
X1679Y1740D01*
X1672Y1746D01*
X1663Y1750D01*
X1653Y1751D01*
D02*
G37*
G36*
X1295Y2585D02*
X1288Y2584D01*
X1282Y2580D01*
X1278Y2574D01*
X1277Y2567D01*
X1278Y2560D01*
X1282Y2554D01*
X1286Y2552D01*
Y1803D01*
X1282Y1800D01*
X1278Y1794D01*
X1277Y1787D01*
X1278Y1780D01*
X1282Y1775D01*
X1288Y1771D01*
X1295Y1769D01*
X1298Y1770D01*
X1301Y1766D01*
X1301Y1764D01*
X1302Y1757D01*
X1306Y1751D01*
X1312Y1747D01*
X1319Y1746D01*
X1326Y1747D01*
X1332Y1751D01*
X1336Y1757D01*
X1337Y1764D01*
X1336Y1771D01*
X1332Y1777D01*
X1328Y1779D01*
Y2347D01*
X1332Y2349D01*
X1336Y2355D01*
X1337Y2362D01*
X1336Y2369D01*
X1332Y2375D01*
X1326Y2379D01*
X1319Y2380D01*
X1312Y2379D01*
X1309Y2377D01*
X1304Y2380D01*
Y2552D01*
X1308Y2554D01*
X1312Y2560D01*
X1313Y2567D01*
X1312Y2574D01*
X1308Y2580D01*
X1302Y2584D01*
X1295Y2585D01*
D02*
G37*
G36*
X1053Y2851D02*
X1044Y2850D01*
X1035Y2846D01*
X1028Y2840D01*
X1022Y2833D01*
X1018Y2824D01*
X1017Y2815D01*
X1018Y2805D01*
X1022Y2797D01*
X1028Y2789D01*
X1035Y2783D01*
X1044Y2780D01*
X1053Y2778D01*
X1063Y2780D01*
X1072Y2783D01*
X1079Y2789D01*
X1085Y2797D01*
X1088Y2805D01*
X1090Y2815D01*
X1088Y2824D01*
X1085Y2833D01*
X1079Y2840D01*
X1072Y2846D01*
X1063Y2850D01*
X1053Y2851D01*
D02*
G37*
G36*
X1153D02*
X1144Y2850D01*
X1135Y2846D01*
X1128Y2840D01*
X1122Y2833D01*
X1118Y2824D01*
X1117Y2815D01*
X1118Y2805D01*
X1122Y2797D01*
X1128Y2789D01*
X1135Y2783D01*
X1144Y2780D01*
X1153Y2778D01*
X1163Y2780D01*
X1172Y2783D01*
X1179Y2789D01*
X1185Y2797D01*
X1188Y2805D01*
X1190Y2815D01*
X1188Y2824D01*
X1185Y2833D01*
X1179Y2840D01*
X1172Y2846D01*
X1163Y2850D01*
X1153Y2851D01*
D02*
G37*
G36*
X1658Y2954D02*
Y2920D01*
X1693D01*
X1692Y2925D01*
X1688Y2935D01*
X1682Y2943D01*
X1674Y2950D01*
X1664Y2954D01*
X1658Y2954D01*
D02*
G37*
G36*
X1653Y2751D02*
X1644Y2750D01*
X1635Y2746D01*
X1628Y2740D01*
X1622Y2733D01*
X1618Y2724D01*
X1617Y2715D01*
X1618Y2705D01*
X1622Y2697D01*
X1628Y2689D01*
X1635Y2683D01*
X1644Y2680D01*
X1653Y2678D01*
X1663Y2680D01*
X1672Y2683D01*
X1679Y2689D01*
X1685Y2697D01*
X1688Y2705D01*
X1690Y2715D01*
X1688Y2724D01*
X1685Y2733D01*
X1679Y2740D01*
X1672Y2746D01*
X1663Y2750D01*
X1653Y2751D01*
D02*
G37*
G36*
Y2851D02*
X1644Y2850D01*
X1635Y2846D01*
X1628Y2840D01*
X1622Y2833D01*
X1618Y2824D01*
X1617Y2815D01*
X1618Y2805D01*
X1622Y2797D01*
X1628Y2789D01*
X1635Y2783D01*
X1644Y2780D01*
X1653Y2778D01*
X1663Y2780D01*
X1672Y2783D01*
X1679Y2789D01*
X1685Y2797D01*
X1688Y2805D01*
X1690Y2815D01*
X1688Y2824D01*
X1685Y2833D01*
X1679Y2840D01*
X1672Y2846D01*
X1663Y2850D01*
X1653Y2851D01*
D02*
G37*
G36*
X1053Y2951D02*
X1044Y2950D01*
X1035Y2946D01*
X1028Y2940D01*
X1022Y2933D01*
X1018Y2924D01*
X1017Y2915D01*
X1018Y2905D01*
X1022Y2897D01*
X1028Y2889D01*
X1035Y2883D01*
X1044Y2880D01*
X1053Y2878D01*
X1063Y2880D01*
X1072Y2883D01*
X1079Y2889D01*
X1085Y2897D01*
X1088Y2905D01*
X1090Y2915D01*
X1088Y2924D01*
X1085Y2933D01*
X1079Y2940D01*
X1072Y2946D01*
X1063Y2950D01*
X1053Y2951D01*
D02*
G37*
G36*
X1648Y2954D02*
X1643Y2954D01*
X1633Y2950D01*
X1625Y2943D01*
X1618Y2935D01*
X1614Y2925D01*
X1614Y2920D01*
X1648D01*
Y2954D01*
D02*
G37*
G36*
Y2910D02*
X1614D01*
X1614Y2904D01*
X1618Y2895D01*
X1625Y2886D01*
X1633Y2880D01*
X1643Y2876D01*
X1648Y2875D01*
Y2910D01*
D02*
G37*
G36*
X1693D02*
X1658D01*
Y2875D01*
X1664Y2876D01*
X1674Y2880D01*
X1682Y2886D01*
X1688Y2895D01*
X1692Y2904D01*
X1693Y2910D01*
D02*
G37*
G36*
X1653Y2451D02*
X1644Y2450D01*
X1635Y2446D01*
X1628Y2440D01*
X1622Y2433D01*
X1618Y2424D01*
X1617Y2415D01*
X1618Y2405D01*
X1622Y2397D01*
X1628Y2389D01*
X1635Y2383D01*
X1644Y2380D01*
X1653Y2378D01*
X1663Y2380D01*
X1672Y2383D01*
X1679Y2389D01*
X1685Y2397D01*
X1688Y2405D01*
X1690Y2415D01*
X1688Y2424D01*
X1685Y2433D01*
X1679Y2440D01*
X1672Y2446D01*
X1663Y2450D01*
X1653Y2451D01*
D02*
G37*
G36*
X1053Y2551D02*
X1044Y2550D01*
X1035Y2546D01*
X1028Y2540D01*
X1022Y2533D01*
X1018Y2524D01*
X1017Y2515D01*
X1018Y2505D01*
X1022Y2497D01*
X1028Y2489D01*
X1035Y2483D01*
X1044Y2480D01*
X1053Y2478D01*
X1063Y2480D01*
X1072Y2483D01*
X1079Y2489D01*
X1085Y2497D01*
X1088Y2505D01*
X1090Y2515D01*
X1088Y2524D01*
X1085Y2533D01*
X1079Y2540D01*
X1072Y2546D01*
X1063Y2550D01*
X1053Y2551D01*
D02*
G37*
G36*
X1653Y2351D02*
X1644Y2350D01*
X1635Y2346D01*
X1628Y2340D01*
X1622Y2333D01*
X1618Y2324D01*
X1617Y2315D01*
X1618Y2305D01*
X1622Y2297D01*
X1628Y2289D01*
X1635Y2283D01*
X1644Y2280D01*
X1653Y2278D01*
X1663Y2280D01*
X1672Y2283D01*
X1679Y2289D01*
X1685Y2297D01*
X1688Y2305D01*
X1690Y2315D01*
X1688Y2324D01*
X1685Y2333D01*
X1679Y2340D01*
X1672Y2346D01*
X1663Y2350D01*
X1653Y2351D01*
D02*
G37*
G36*
X1053Y2451D02*
X1044Y2450D01*
X1035Y2446D01*
X1028Y2440D01*
X1022Y2433D01*
X1018Y2424D01*
X1017Y2415D01*
X1018Y2405D01*
X1022Y2397D01*
X1028Y2389D01*
X1035Y2383D01*
X1044Y2380D01*
X1053Y2378D01*
X1063Y2380D01*
X1072Y2383D01*
X1079Y2389D01*
X1085Y2397D01*
X1088Y2405D01*
X1090Y2415D01*
X1088Y2424D01*
X1085Y2433D01*
X1079Y2440D01*
X1072Y2446D01*
X1063Y2450D01*
X1053Y2451D01*
D02*
G37*
G36*
X1653Y2551D02*
X1644Y2550D01*
X1635Y2546D01*
X1628Y2540D01*
X1622Y2533D01*
X1618Y2524D01*
X1617Y2515D01*
X1618Y2505D01*
X1622Y2497D01*
X1628Y2489D01*
X1635Y2483D01*
X1644Y2480D01*
X1653Y2478D01*
X1663Y2480D01*
X1672Y2483D01*
X1679Y2489D01*
X1685Y2497D01*
X1688Y2505D01*
X1690Y2515D01*
X1688Y2524D01*
X1685Y2533D01*
X1679Y2540D01*
X1672Y2546D01*
X1663Y2550D01*
X1653Y2551D01*
D02*
G37*
G36*
Y2651D02*
X1644Y2650D01*
X1635Y2646D01*
X1628Y2640D01*
X1622Y2633D01*
X1618Y2624D01*
X1617Y2615D01*
X1618Y2605D01*
X1622Y2597D01*
X1628Y2589D01*
X1635Y2583D01*
X1644Y2580D01*
X1653Y2578D01*
X1663Y2580D01*
X1672Y2583D01*
X1679Y2589D01*
X1685Y2597D01*
X1688Y2605D01*
X1690Y2615D01*
X1688Y2624D01*
X1685Y2633D01*
X1679Y2640D01*
X1672Y2646D01*
X1663Y2650D01*
X1653Y2651D01*
D02*
G37*
G36*
X1053Y2751D02*
X1044Y2750D01*
X1035Y2746D01*
X1028Y2740D01*
X1022Y2733D01*
X1018Y2724D01*
X1017Y2715D01*
X1018Y2705D01*
X1022Y2697D01*
X1028Y2689D01*
X1035Y2683D01*
X1044Y2680D01*
X1053Y2678D01*
X1063Y2680D01*
X1072Y2683D01*
X1079Y2689D01*
X1085Y2697D01*
X1088Y2705D01*
X1090Y2715D01*
X1088Y2724D01*
X1085Y2733D01*
X1079Y2740D01*
X1072Y2746D01*
X1063Y2750D01*
X1053Y2751D01*
D02*
G37*
G36*
X1898Y2585D02*
X1891Y2584D01*
X1885Y2580D01*
X1882Y2576D01*
X1866D01*
X1863Y2580D01*
X1857Y2584D01*
X1850Y2585D01*
X1843Y2584D01*
X1838Y2580D01*
X1834Y2574D01*
X1832Y2567D01*
X1834Y2560D01*
X1838Y2554D01*
X1843Y2550D01*
X1850Y2549D01*
X1857Y2550D01*
X1863Y2554D01*
X1866Y2558D01*
X1882D01*
X1885Y2554D01*
X1891Y2550D01*
X1898Y2549D01*
X1905Y2550D01*
X1910Y2554D01*
X1914Y2560D01*
X1916Y2567D01*
X1914Y2574D01*
X1910Y2580D01*
X1905Y2584D01*
X1898Y2585D01*
D02*
G37*
G36*
X1053Y2651D02*
X1044Y2650D01*
X1035Y2646D01*
X1028Y2640D01*
X1022Y2633D01*
X1018Y2624D01*
X1017Y2615D01*
X1018Y2605D01*
X1022Y2597D01*
X1028Y2589D01*
X1035Y2583D01*
X1044Y2580D01*
X1053Y2578D01*
X1063Y2580D01*
X1072Y2583D01*
X1079Y2589D01*
X1085Y2597D01*
X1088Y2605D01*
X1090Y2615D01*
X1088Y2624D01*
X1085Y2633D01*
X1079Y2640D01*
X1072Y2646D01*
X1063Y2650D01*
X1053Y2651D01*
D02*
G37*
%LPD*%
G36*
X1310Y2342D02*
Y1811D01*
X1305Y1808D01*
X1304Y1808D01*
Y2339D01*
X1309Y2342D01*
X1310Y2342D01*
D02*
G37*
D10*
X1319Y1764D02*
Y2362D01*
X1850Y2567D02*
X1898D01*
X1295Y1787D02*
Y2567D01*
D11*
X1053Y2915D02*
D03*
Y2815D02*
D03*
Y2715D02*
D03*
Y2615D02*
D03*
Y2515D02*
D03*
Y2415D02*
D03*
Y2315D02*
D03*
Y2215D02*
D03*
Y2115D02*
D03*
Y2015D02*
D03*
Y1915D02*
D03*
Y1815D02*
D03*
Y1715D02*
D03*
Y1615D02*
D03*
X1653Y2915D02*
D03*
Y1615D02*
D03*
Y1715D02*
D03*
Y1815D02*
D03*
Y1915D02*
D03*
Y2015D02*
D03*
Y2115D02*
D03*
Y2215D02*
D03*
Y2315D02*
D03*
Y2415D02*
D03*
Y2515D02*
D03*
Y2615D02*
D03*
Y2715D02*
D03*
Y2815D02*
D03*
X1153D02*
D03*
D12*
X1913Y2535D02*
D03*
X1319Y2362D02*
D03*
Y1764D02*
D03*
X1898Y2567D02*
D03*
X1850D02*
D03*
X1295D02*
D03*
Y1787D02*
D03*
D13*
X2756Y2756D02*
D03*
X2854Y2559D02*
D03*
X2756Y2362D02*
D03*
X2854Y2165D02*
D03*
X2756Y1969D02*
D03*
X2854Y1772D02*
D03*
X2756Y1575D02*
D03*
X2854Y1378D02*
D03*
X2756Y1181D02*
D03*
X2559Y2756D02*
D03*
Y1181D02*
D03*
X2362Y2756D02*
D03*
Y2362D02*
D03*
X2461Y2165D02*
D03*
X2362Y1969D02*
D03*
X2461Y1772D02*
D03*
X2362Y1575D02*
D03*
X2461Y1378D02*
D03*
X2362Y1181D02*
D03*
X2165Y2756D02*
D03*
Y2362D02*
D03*
X2264Y1378D02*
D03*
X2165Y1181D02*
D03*
X1969Y2756D02*
D03*
X2067Y2165D02*
D03*
Y1772D02*
D03*
Y1378D02*
D03*
X1969Y1181D02*
D03*
X1772Y2756D02*
D03*
X1870Y2165D02*
D03*
Y1772D02*
D03*
X1772Y1575D02*
D03*
X1870Y1378D02*
D03*
X1772Y1181D02*
D03*
X1575Y2756D02*
D03*
X1673Y2165D02*
D03*
X1575Y1969D02*
D03*
X1673Y1378D02*
D03*
X1575Y1181D02*
D03*
X1378Y2756D02*
D03*
X1476Y2165D02*
D03*
X1378Y1969D02*
D03*
X1476Y1772D02*
D03*
X1378Y1575D02*
D03*
X1476Y1378D02*
D03*
X1378Y1181D02*
D03*
X1181Y2756D02*
D03*
Y2362D02*
D03*
Y1575D02*
D03*
X1280Y1378D02*
D03*
X1181Y1181D02*
D03*
M02*
